<svg id="visual" viewBox="0 0 900 600" width="900" height="600" xmlns="http://www.w3.org/2000/svg" xmlns:xlink="http://www.w3.org/1999/xlink" version="1.1"><path d="M0 269L21.5 275.7C43 282.3 86 295.7 128.8 284.3C171.7 273 214.3 237 257.2 249.5C300 262 343 323 385.8 344.7C428.7 366.3 471.3 348.7 514.2 334.2C557 319.7 600 308.3 642.8 282.5C685.7 256.7 728.3 216.3 771.2 225.8C814 235.3 857 294.7 878.5 324.3L900 354L900 0L878.5 0C857 0 814 0 771.2 0C728.3 0 685.7 0 642.8 0C600 0 557 0 514.2 0C471.3 0 428.7 0 385.8 0C343 0 300 0 257.2 0C214.3 0 171.7 0 128.8 0C86 0 43 0 21.5 0L0 0Z" fill="#0066FF" stroke-linecap="round" stroke-linejoin="miter"></path></svg>