<svg xmlns="http://www.w3.org/2000/svg" width="463.763" height="392.121" viewBox="0 0 463.763 392.121">
  <g id="Advantages-rafiki" transform="translate(0 -29.22)">
    <g id="freepik--background-complete--inject-85" transform="translate(0 70.052)">
      <rect id="Rectangle_561" data-name="Rectangle 561" width="30.72" height="0.243" transform="translate(386.574 334.54)" fill="#ebebeb"/>
      <rect id="Rectangle_562" data-name="Rectangle 562" width="8.06" height="0.243" transform="translate(299.155 337.189)" fill="#ebebeb"/>
      <rect id="Rectangle_563" data-name="Rectangle 563" width="17.799" height="0.243" transform="translate(367.847 325.503)" fill="#ebebeb"/>
      <rect id="Rectangle_564" data-name="Rectangle 564" width="40.06" height="0.243" transform="translate(48.658 327.139)" fill="#ebebeb"/>
      <rect id="Rectangle_565" data-name="Rectangle 565" width="5.871" height="0.243" transform="translate(96.982 327.139)" fill="#ebebeb"/>
      <rect id="Rectangle_566" data-name="Rectangle 566" width="86.891" height="0.243" transform="translate(121.942 331.249)" fill="#ebebeb"/>
      <path id="Path_608" data-name="Path 608" d="M223.991,346.59H44.886a5.433,5.433,0,0,1-5.3-5.56V76.71a5.433,5.433,0,0,1,5.3-5.56H223.991a5.433,5.433,0,0,1,5.3,5.56V341.03A5.433,5.433,0,0,1,223.991,346.59ZM44.886,71.393a5.2,5.2,0,0,0-5.064,5.317V341.03a5.2,5.2,0,0,0,5.064,5.317H223.991a5.2,5.2,0,0,0,5.064-5.317V76.71a5.2,5.2,0,0,0-5.064-5.317Z" transform="translate(-2.869 -71.15)" fill="#ebebeb"/>
      <path id="Path_609" data-name="Path 609" d="M440.291,346.59H261.186a5.433,5.433,0,0,1-5.3-5.56V76.71a5.433,5.433,0,0,1,5.3-5.56H440.291a5.433,5.433,0,0,1,5.3,5.56V341.03A5.433,5.433,0,0,1,440.291,346.59ZM261.186,71.393a5.2,5.2,0,0,0-5.064,5.317V341.03a5.2,5.2,0,0,0,5.064,5.317H440.291a5.2,5.2,0,0,0,5.064-5.317V76.71a5.2,5.2,0,0,0-5.064-5.317Z" transform="translate(-18.546 -71.15)" fill="#ebebeb"/>
      <rect id="Rectangle_567" data-name="Rectangle 567" width="463.763" height="0.243" transform="translate(0 318.872)" fill="#ebebeb"/>
      <rect id="Rectangle_568" data-name="Rectangle 568" width="68.952" height="172.519" transform="translate(68.377 146.518)" fill="#f0f0f0"/>
      <rect id="Rectangle_569" data-name="Rectangle 569" width="6.956" height="10.955" transform="translate(77.81 155.838)" fill="#fff"/>
      <rect id="Rectangle_570" data-name="Rectangle 570" width="6.956" height="10.955" transform="translate(92.187 155.838)" fill="#fff"/>
      <rect id="Rectangle_571" data-name="Rectangle 571" width="6.956" height="10.955" transform="translate(106.563 155.838)" fill="#fafafa"/>
      <rect id="Rectangle_572" data-name="Rectangle 572" width="6.956" height="10.955" transform="translate(120.94 155.838)" fill="#f5f5f5"/>
      <rect id="Rectangle_573" data-name="Rectangle 573" width="6.956" height="10.955" transform="translate(77.81 172.168)" fill="#fff"/>
      <rect id="Rectangle_574" data-name="Rectangle 574" width="6.956" height="10.955" transform="translate(92.187 172.168)" fill="#f5f5f5"/>
      <rect id="Rectangle_575" data-name="Rectangle 575" width="6.956" height="10.955" transform="translate(106.563 172.168)" fill="#f5f5f5"/>
      <rect id="Rectangle_576" data-name="Rectangle 576" width="6.956" height="10.955" transform="translate(120.94 172.168)" fill="#fff"/>
      <rect id="Rectangle_577" data-name="Rectangle 577" width="6.956" height="10.955" transform="translate(77.81 188.499)" fill="#fafafa"/>
      <rect id="Rectangle_578" data-name="Rectangle 578" width="6.956" height="10.955" transform="translate(92.187 188.499)" fill="#fff"/>
      <rect id="Rectangle_579" data-name="Rectangle 579" width="6.956" height="10.955" transform="translate(106.563 188.499)" fill="#fafafa"/>
      <rect id="Rectangle_580" data-name="Rectangle 580" width="6.956" height="10.955" transform="translate(120.94 188.499)" fill="#f5f5f5"/>
      <rect id="Rectangle_581" data-name="Rectangle 581" width="6.956" height="10.955" transform="translate(77.81 204.82)" fill="#fff"/>
      <rect id="Rectangle_582" data-name="Rectangle 582" width="6.956" height="10.955" transform="translate(92.187 204.82)" fill="#f5f5f5"/>
      <rect id="Rectangle_583" data-name="Rectangle 583" width="6.956" height="10.955" transform="translate(106.563 204.82)" fill="#fff"/>
      <rect id="Rectangle_584" data-name="Rectangle 584" width="6.956" height="10.955" transform="translate(120.94 204.82)" fill="#fff"/>
      <rect id="Rectangle_585" data-name="Rectangle 585" width="6.956" height="10.955" transform="translate(77.81 221.151)" fill="#fff"/>
      <rect id="Rectangle_586" data-name="Rectangle 586" width="6.956" height="10.955" transform="translate(92.187 221.151)" fill="#fafafa"/>
      <rect id="Rectangle_587" data-name="Rectangle 587" width="6.956" height="10.955" transform="translate(106.563 221.151)" fill="#f5f5f5"/>
      <rect id="Rectangle_588" data-name="Rectangle 588" width="6.956" height="10.955" transform="translate(120.94 221.151)" fill="#fafafa"/>
      <rect id="Rectangle_589" data-name="Rectangle 589" width="6.956" height="10.955" transform="translate(77.81 237.472)" fill="#f5f5f5"/>
      <rect id="Rectangle_590" data-name="Rectangle 590" width="6.956" height="10.955" transform="translate(92.187 237.472)" fill="#fff"/>
      <rect id="Rectangle_591" data-name="Rectangle 591" width="6.956" height="10.955" transform="translate(106.563 237.472)" fill="#fff"/>
      <rect id="Rectangle_592" data-name="Rectangle 592" width="6.956" height="10.955" transform="translate(120.94 237.472)" fill="#fff"/>
      <rect id="Rectangle_593" data-name="Rectangle 593" width="6.956" height="10.955" transform="translate(77.81 253.802)" fill="#fafafa"/>
      <rect id="Rectangle_594" data-name="Rectangle 594" width="6.956" height="10.955" transform="translate(92.187 253.802)" fill="#fff"/>
      <rect id="Rectangle_595" data-name="Rectangle 595" width="6.956" height="10.955" transform="translate(106.563 253.802)" fill="#f5f5f5"/>
      <rect id="Rectangle_596" data-name="Rectangle 596" width="6.956" height="10.955" transform="translate(120.94 253.802)" fill="#fff"/>
      <rect id="Rectangle_597" data-name="Rectangle 597" width="6.956" height="10.955" transform="translate(77.81 270.133)" fill="#fff"/>
      <rect id="Rectangle_598" data-name="Rectangle 598" width="6.956" height="10.955" transform="translate(92.187 270.133)" fill="#f5f5f5"/>
      <rect id="Rectangle_599" data-name="Rectangle 599" width="6.956" height="10.955" transform="translate(106.563 270.133)" fill="#fafafa"/>
      <rect id="Rectangle_600" data-name="Rectangle 600" width="6.956" height="10.955" transform="translate(120.94 270.133)" fill="#fff"/>
      <rect id="Rectangle_601" data-name="Rectangle 601" width="6.956" height="10.955" transform="translate(77.81 286.454)" fill="#fff"/>
      <rect id="Rectangle_602" data-name="Rectangle 602" width="6.956" height="10.955" transform="translate(92.187 286.454)" fill="#fff"/>
      <rect id="Rectangle_603" data-name="Rectangle 603" width="6.956" height="10.955" transform="translate(106.563 286.454)" fill="#fff"/>
      <rect id="Rectangle_604" data-name="Rectangle 604" width="6.956" height="10.955" transform="translate(120.94 286.454)" fill="#f5f5f5"/>
      <rect id="Rectangle_605" data-name="Rectangle 605" width="63.925" height="205.609" transform="translate(342.665 113.438)" fill="#f5f5f5"/>
      <rect id="Rectangle_606" data-name="Rectangle 606" width="6.446" height="13.059" transform="translate(351.412 124.549)" fill="#fff"/>
      <rect id="Rectangle_607" data-name="Rectangle 607" width="6.446" height="13.059" transform="translate(364.74 124.549)" fill="#fff"/>
      <rect id="Rectangle_608" data-name="Rectangle 608" width="6.446" height="13.059" transform="translate(378.069 124.549)" fill="#fafafa"/>
      <rect id="Rectangle_609" data-name="Rectangle 609" width="6.446" height="13.059" transform="translate(391.397 124.549)" fill="#f5f5f5"/>
      <rect id="Rectangle_610" data-name="Rectangle 610" width="6.446" height="13.059" transform="translate(351.412 144.006)" fill="#fff"/>
      <rect id="Rectangle_611" data-name="Rectangle 611" width="6.446" height="13.059" transform="translate(364.74 144.006)" fill="#f5f5f5"/>
      <rect id="Rectangle_612" data-name="Rectangle 612" width="6.446" height="13.059" transform="translate(378.069 144.006)" fill="#f5f5f5"/>
      <rect id="Rectangle_613" data-name="Rectangle 613" width="6.446" height="13.059" transform="translate(391.397 144.006)" fill="#fff"/>
      <rect id="Rectangle_614" data-name="Rectangle 614" width="6.446" height="13.059" transform="translate(351.412 163.462)" fill="#fafafa"/>
      <rect id="Rectangle_615" data-name="Rectangle 615" width="6.446" height="13.059" transform="translate(364.74 163.462)" fill="#fff"/>
      <rect id="Rectangle_616" data-name="Rectangle 616" width="6.446" height="13.059" transform="translate(378.069 163.462)" fill="#fafafa"/>
      <rect id="Rectangle_617" data-name="Rectangle 617" width="6.446" height="13.059" transform="translate(391.397 163.462)" fill="#f5f5f5"/>
      <rect id="Rectangle_618" data-name="Rectangle 618" width="6.446" height="13.059" transform="translate(351.412 182.919)" fill="#fff"/>
      <rect id="Rectangle_619" data-name="Rectangle 619" width="6.446" height="13.059" transform="translate(364.74 182.919)" fill="#f5f5f5"/>
      <rect id="Rectangle_620" data-name="Rectangle 620" width="6.446" height="13.059" transform="translate(378.069 182.919)" fill="#fff"/>
      <rect id="Rectangle_621" data-name="Rectangle 621" width="6.446" height="13.059" transform="translate(391.397 182.919)" fill="#fff"/>
      <rect id="Rectangle_622" data-name="Rectangle 622" width="6.446" height="13.059" transform="translate(351.412 202.376)" fill="#fff"/>
      <rect id="Rectangle_623" data-name="Rectangle 623" width="6.446" height="13.059" transform="translate(364.74 202.376)" fill="#fafafa"/>
      <rect id="Rectangle_624" data-name="Rectangle 624" width="6.446" height="13.059" transform="translate(378.069 202.376)" fill="#f5f5f5"/>
      <rect id="Rectangle_625" data-name="Rectangle 625" width="6.446" height="13.059" transform="translate(391.397 202.376)" fill="#fafafa"/>
      <rect id="Rectangle_626" data-name="Rectangle 626" width="6.446" height="13.059" transform="translate(351.412 221.832)" fill="#f5f5f5"/>
      <rect id="Rectangle_627" data-name="Rectangle 627" width="6.446" height="13.059" transform="translate(364.74 221.832)" fill="#fff"/>
      <rect id="Rectangle_628" data-name="Rectangle 628" width="6.446" height="13.059" transform="translate(378.069 221.832)" fill="#fff"/>
      <rect id="Rectangle_629" data-name="Rectangle 629" width="6.446" height="13.059" transform="translate(391.397 221.832)" fill="#fff"/>
      <rect id="Rectangle_630" data-name="Rectangle 630" width="6.446" height="13.059" transform="translate(351.412 241.289)" fill="#fafafa"/>
      <rect id="Rectangle_631" data-name="Rectangle 631" width="6.446" height="13.059" transform="translate(364.74 241.289)" fill="#fff"/>
      <rect id="Rectangle_632" data-name="Rectangle 632" width="6.446" height="13.059" transform="translate(378.069 241.289)" fill="#f5f5f5"/>
      <rect id="Rectangle_633" data-name="Rectangle 633" width="6.446" height="13.059" transform="translate(391.397 241.289)" fill="#fff"/>
      <rect id="Rectangle_634" data-name="Rectangle 634" width="6.446" height="13.059" transform="translate(351.412 260.745)" fill="#fff"/>
      <rect id="Rectangle_635" data-name="Rectangle 635" width="6.446" height="13.059" transform="translate(364.74 260.745)" fill="#f5f5f5"/>
      <rect id="Rectangle_636" data-name="Rectangle 636" width="6.446" height="13.059" transform="translate(378.069 260.745)" fill="#fafafa"/>
      <rect id="Rectangle_637" data-name="Rectangle 637" width="6.446" height="13.059" transform="translate(391.397 260.745)" fill="#fff"/>
      <rect id="Rectangle_638" data-name="Rectangle 638" width="6.446" height="13.059" transform="translate(351.412 280.212)" fill="#fff"/>
      <rect id="Rectangle_639" data-name="Rectangle 639" width="6.446" height="13.059" transform="translate(364.74 280.212)" fill="#fff"/>
      <rect id="Rectangle_640" data-name="Rectangle 640" width="6.446" height="13.059" transform="translate(378.069 280.212)" fill="#fff"/>
      <rect id="Rectangle_641" data-name="Rectangle 641" width="6.446" height="13.059" transform="translate(391.397 280.212)" fill="#f5f5f5"/>
      <rect id="Rectangle_642" data-name="Rectangle 642" width="67.19" height="111.763" transform="translate(157.243 207.284)" fill="#ebebeb"/>
      <rect id="Rectangle_643" data-name="Rectangle 643" width="6.78" height="7.099" transform="translate(166.435 213.321)" fill="#fff"/>
      <rect id="Rectangle_644" data-name="Rectangle 644" width="6.78" height="7.099" transform="translate(180.441 213.321)" fill="#fff"/>
      <rect id="Rectangle_645" data-name="Rectangle 645" width="6.78" height="7.099" transform="translate(194.456 213.321)" fill="#fafafa"/>
      <rect id="Rectangle_646" data-name="Rectangle 646" width="6.78" height="7.099" transform="translate(208.461 213.321)" fill="#f5f5f5"/>
      <rect id="Rectangle_647" data-name="Rectangle 647" width="6.78" height="7.099" transform="translate(166.435 223.897)" fill="#fff"/>
      <rect id="Rectangle_648" data-name="Rectangle 648" width="6.78" height="7.099" transform="translate(180.441 223.897)" fill="#f5f5f5"/>
      <rect id="Rectangle_649" data-name="Rectangle 649" width="6.78" height="7.099" transform="translate(194.456 223.897)" fill="#f5f5f5"/>
      <rect id="Rectangle_650" data-name="Rectangle 650" width="6.78" height="7.099" transform="translate(208.461 223.897)" fill="#fff"/>
      <rect id="Rectangle_651" data-name="Rectangle 651" width="6.78" height="7.099" transform="translate(166.435 234.472)" fill="#fafafa"/>
      <rect id="Rectangle_652" data-name="Rectangle 652" width="6.78" height="7.099" transform="translate(180.441 234.472)" fill="#fff"/>
      <rect id="Rectangle_653" data-name="Rectangle 653" width="6.78" height="7.099" transform="translate(194.456 234.472)" fill="#fafafa"/>
      <rect id="Rectangle_654" data-name="Rectangle 654" width="6.78" height="7.099" transform="translate(208.461 234.472)" fill="#f5f5f5"/>
      <rect id="Rectangle_655" data-name="Rectangle 655" width="6.78" height="7.099" transform="translate(166.435 245.057)" fill="#fff"/>
      <rect id="Rectangle_656" data-name="Rectangle 656" width="6.78" height="7.099" transform="translate(180.441 245.057)" fill="#f5f5f5"/>
      <rect id="Rectangle_657" data-name="Rectangle 657" width="6.78" height="7.099" transform="translate(194.456 245.057)" fill="#fff"/>
      <rect id="Rectangle_658" data-name="Rectangle 658" width="6.78" height="7.099" transform="translate(208.461 245.057)" fill="#fff"/>
      <rect id="Rectangle_659" data-name="Rectangle 659" width="6.78" height="7.099" transform="translate(166.435 255.633)" fill="#fff"/>
      <rect id="Rectangle_660" data-name="Rectangle 660" width="6.78" height="7.099" transform="translate(180.441 255.633)" fill="#fafafa"/>
      <rect id="Rectangle_661" data-name="Rectangle 661" width="6.78" height="7.099" transform="translate(194.456 255.633)" fill="#f5f5f5"/>
      <rect id="Rectangle_662" data-name="Rectangle 662" width="6.78" height="7.099" transform="translate(208.461 255.633)" fill="#fafafa"/>
      <rect id="Rectangle_663" data-name="Rectangle 663" width="6.78" height="7.099" transform="translate(166.435 266.208)" fill="#f5f5f5"/>
      <rect id="Rectangle_664" data-name="Rectangle 664" width="6.78" height="7.099" transform="translate(180.441 266.208)" fill="#fff"/>
      <rect id="Rectangle_665" data-name="Rectangle 665" width="6.78" height="7.099" transform="translate(194.456 266.208)" fill="#fff"/>
      <rect id="Rectangle_666" data-name="Rectangle 666" width="6.78" height="7.099" transform="translate(208.461 266.208)" fill="#fff"/>
      <rect id="Rectangle_667" data-name="Rectangle 667" width="6.78" height="7.099" transform="translate(166.435 276.784)" fill="#fafafa"/>
      <rect id="Rectangle_668" data-name="Rectangle 668" width="6.78" height="7.099" transform="translate(180.441 276.784)" fill="#fff"/>
      <rect id="Rectangle_669" data-name="Rectangle 669" width="6.78" height="7.099" transform="translate(194.456 276.784)" fill="#f5f5f5"/>
      <rect id="Rectangle_670" data-name="Rectangle 670" width="6.78" height="7.099" transform="translate(208.461 276.784)" fill="#fff"/>
      <rect id="Rectangle_671" data-name="Rectangle 671" width="6.78" height="7.099" transform="translate(166.435 287.359)" fill="#fff"/>
      <rect id="Rectangle_672" data-name="Rectangle 672" width="6.78" height="7.099" transform="translate(180.441 287.359)" fill="#f5f5f5"/>
      <rect id="Rectangle_673" data-name="Rectangle 673" width="6.78" height="7.099" transform="translate(194.456 287.359)" fill="#fafafa"/>
      <rect id="Rectangle_674" data-name="Rectangle 674" width="6.78" height="7.099" transform="translate(208.461 287.359)" fill="#fff"/>
      <rect id="Rectangle_675" data-name="Rectangle 675" width="6.78" height="7.099" transform="translate(166.435 297.935)" fill="#fff"/>
      <rect id="Rectangle_676" data-name="Rectangle 676" width="6.78" height="7.099" transform="translate(180.441 297.935)" fill="#fff"/>
      <rect id="Rectangle_677" data-name="Rectangle 677" width="6.78" height="7.099" transform="translate(194.456 297.935)" fill="#fff"/>
      <rect id="Rectangle_678" data-name="Rectangle 678" width="6.78" height="7.099" transform="translate(208.461 297.935)" fill="#f5f5f5"/>
      <path id="Path_610" data-name="Path 610" d="M70.348,191.722c16.334,8.56,60.521,13.565,71.586-12.309,13.152-30.626-18.105-4.957-18.105-4.957s0-20.2-10.416-20.2c-14.2,0-12.985,18.5-12.985,18.5a13.442,13.442,0,0,0-13.82-7.216c-9.989,1.12-4.174,14.753-4.174,14.753S57.334,184.9,70.348,191.722Z" transform="translate(-4.827 -73.327)" fill="#f0f0f0"/>
      <path id="Path_611" data-name="Path 611" d="M176.894,146.993c18.551,6.71,69.472,8.219,73.469-19.8,4.749-33.246-22.836-11.958-22.836-11.958s-.241-15.581-12.985-17.09-12.568,16.126-12.568,16.126-22.882-14.7-20.7,13.575C181.263,127.849,145.562,135.629,176.894,146.993Z" transform="translate(-11.887 -71.855)" fill="#f5f5f5"/>
      <path id="Path_612" data-name="Path 612" d="M306.814,149.428c19.432,7.041,72.922,8.628,77.124-20.781,4.981-34.9-23.967-12.552-23.967-12.552s-.25-16.34-13.644-17.937-13.2,16.925-13.2,16.925S309.1,99.647,311.405,129.329C311.405,129.329,273.924,137.5,306.814,149.428Z" transform="translate(-21.257 -71.855)" fill="#ebebeb"/>
      <path id="Path_613" data-name="Path 613" d="M339.689,165.811c13.449,7.041,49.845,11.17,58.954-10.137,10.787-25.221-14.915-4.051-14.915-4.051s0-16.633-8.57-16.633c-11.7,0-10.713,15.211-10.713,15.211a11.082,11.082,0,0,0-11.381-5.95c-8.209.925-3.423,12.153-3.423,12.153S328.967,160.192,339.689,165.811Z" transform="translate(-24.395 -72.822)" fill="#f5f5f5"/>
    </g>
    <g id="freepik--Plant--inject-85" transform="translate(46.986 374.297)">
      <path id="Path_614" data-name="Path 614" d="M72.846,418.459s-4.118,2.035-5.176-1.441-5.4.136-6.27-3.973-4.434-1.393-5.649-4.236-5.343-2.921-5.083-5.843,5.027.195,7.2-.643,3.562,4.041,6.437,4.041,3.821,5.755,5.695,5.073S73.375,415.674,72.846,418.459Z" transform="translate(-50.657 -384.054)" fill="#407bff"/>
      <path id="Path_615" data-name="Path 615" d="M72.846,418.459s-4.118,2.035-5.176-1.441-5.4.136-6.27-3.973-4.434-1.393-5.649-4.236-5.343-2.921-5.083-5.843,5.027.195,7.2-.643,3.562,4.041,6.437,4.041,3.821,5.755,5.695,5.073S73.375,415.674,72.846,418.459Z" transform="translate(-50.657 -384.054)" fill="#fff" opacity="0.7"/>
      <path id="Path_616" data-name="Path 616" d="M74.032,419.937s-8.348-10.03-19.172-16.087c0,0,5.7.847,19.942,15.746Z" transform="translate(-50.962 -384.111)" fill="#407bff"/>
      <path id="Path_617" data-name="Path 617" d="M74.032,419.937s-8.348-10.03-19.172-16.087c0,0,5.7.847,19.942,15.746Z" transform="translate(-50.962 -384.111)" fill="#fff" opacity="0.2"/>
      <path id="Path_618" data-name="Path 618" d="M90.858,417.493s4.916-1.461,3.348-5.22,4.638-4.07,2.486-8.209,2.783-4.606,1.781-7.956,2.439-6.612.167-8.881-4.1,4.07-6.493,5.044-.167,6.174-2.579,8.4.826,7.79-1.243,8.7S88.456,415.555,90.858,417.493Z" transform="translate(-53.328 -383.663)" fill="#407bff"/>
      <path id="Path_619" data-name="Path 619" d="M90.858,417.493s4.916-1.461,3.348-5.22,4.638-4.07,2.486-8.209,2.783-4.606,1.781-7.956,2.439-6.612.167-8.881-4.1,4.07-6.493,5.044-.167,6.174-2.579,8.4.826,7.79-1.243,8.7S88.456,415.555,90.858,417.493Z" transform="translate(-53.328 -383.663)" fill="#fff" opacity="0.7"/>
      <path id="Path_620" data-name="Path 620" d="M91.32,419.485s0-14.919,4.851-28.435c0,0-4.2,5.142-5.741,28.747Z" transform="translate(-53.54 -383.776)" fill="#407bff"/>
      <path id="Path_621" data-name="Path 621" d="M91.32,419.485s0-14.919,4.851-28.435c0,0-4.2,5.142-5.741,28.747Z" transform="translate(-53.54 -383.776)" fill="#fff" opacity="0.2"/>
      <path id="Path_622" data-name="Path 622" d="M78.005,417.395s-5.63,1.285-5.973-3.379-6.678-1.48-6.632-6.865-5.083-3.1-5.816-7.011-5.778-5.288-4.638-8.842,6.14,1.792,9.043,1.412,3.293,6.115,6.827,7.011,3.144,8.326,5.639,8.053S79.406,414.084,78.005,417.395Z" transform="translate(-50.956 -383.75)" fill="#407bff"/>
      <path id="Path_623" data-name="Path 623" d="M78.005,417.395s-5.63,1.285-5.973-3.379-6.678-1.48-6.632-6.865-5.083-3.1-5.816-7.011-5.778-5.288-4.638-8.842,6.14,1.792,9.043,1.412,3.293,6.115,6.827,7.011,3.144,8.326,5.639,8.053S79.406,414.084,78.005,417.395Z" transform="translate(-50.956 -383.75)" fill="#fff" opacity="0.5"/>
      <path id="Path_624" data-name="Path 624" d="M79.075,419.523s-7.559-15.035-19.255-25.9c0,0,6.789,2.8,20.294,25.718Z" transform="translate(-51.321 -383.843)" fill="#407bff"/>
      <path id="Path_625" data-name="Path 625" d="M79.075,419.523s-7.559-15.035-19.255-25.9c0,0,6.789,2.8,20.294,25.718Z" transform="translate(-51.321 -383.843)" fill="#fff" opacity="0.2"/>
      <path id="Path_626" data-name="Path 626" d="M106.615,418.662s3.172.662,3.348-2.279,3.71-1.11,3.71-4.5,2.857-2.074,3.256-4.557,3.237-3.476,2.6-5.687-3.441,1.3-5.083,1.13-1.855,3.9-3.821,4.587-1.744,5.327-3.144,5.22S105.808,416.578,106.615,418.662Z" transform="translate(-54.68 -384.034)" fill="#407bff"/>
      <path id="Path_627" data-name="Path 627" d="M106.615,418.662s3.172.662,3.348-2.279,3.71-1.11,3.71-4.5,2.857-2.074,3.256-4.557,3.237-3.476,2.6-5.687-3.441,1.3-5.083,1.13-1.855,3.9-3.821,4.587-1.744,5.327-3.144,5.22S105.808,416.578,106.615,418.662Z" transform="translate(-54.68 -384.034)" fill="#fff" opacity="0.5"/>
      <path id="Path_628" data-name="Path 628" d="M106.184,420.018s4.2-9.65,10.75-16.788c0,0-3.8,1.948-11.344,16.7Z" transform="translate(-54.639 -384.095)" fill="#407bff"/>
      <path id="Path_629" data-name="Path 629" d="M106.184,420.018s4.2-9.65,10.75-16.788c0,0-3.8,1.948-11.344,16.7Z" transform="translate(-54.639 -384.095)" fill="#fff" opacity="0.2"/>
      <path id="Path_630" data-name="Path 630" d="M101.477,416.693s2.514,1.461,5.259-5.843,5-15.892,9.034-18.931c0,0-6.131-.331-10.769,8.764S100.216,416.138,101.477,416.693Z" transform="translate(-54.291 -383.798)" fill="#407bff"/>
      <path id="Path_631" data-name="Path 631" d="M101.477,416.693s2.514,1.461,5.259-5.843,5-15.892,9.034-18.931c0,0-6.131-.331-10.769,8.764S100.216,416.138,101.477,416.693Z" transform="translate(-54.291 -383.798)" fill="#fff" opacity="0.3"/>
      <path id="Path_632" data-name="Path 632" d="M100.23,419.679c1.261-4.557,2.467-8.287,3.59-11.325a6.347,6.347,0,0,0-.352-3.223,3.441,3.441,0,0,1,.7,2.279c.928-2.454,1.79-4.431,2.56-6.008.232-1.607-.315-2.045-.315-2.045.575.156.677.808.649,1.373,2.133-4.178,3.478-5.249,3.478-5.249-.529.847-1.02,1.7-1.493,2.561a4.419,4.419,0,0,1,2.3-.974,6.1,6.1,0,0,0-2.7,1.733c-.928,1.772-1.79,3.564-2.541,5.307a7.382,7.382,0,0,1,2.977-2.308,9.346,9.346,0,0,0-3.478,3.486c-.844,2.055-1.558,4.022-2.161,5.843a5.185,5.185,0,0,1,3.376-1.587,7.128,7.128,0,0,0-3.6,2.288,80.64,80.64,0,0,0-2.161,7.79Z" transform="translate(-54.25 -383.892)" fill="#407bff"/>
      <path id="Path_633" data-name="Path 633" d="M109.78,402Z" transform="translate(-54.942 -384.063)" fill="#407bff"/>
      <g id="Group_65" data-name="Group 65" transform="translate(45.98 11.588)" opacity="0.1">
        <path id="Path_634" data-name="Path 634" d="M100.23,419.679c1.261-4.557,2.467-8.287,3.59-11.325a6.347,6.347,0,0,0-.352-3.223,3.441,3.441,0,0,1,.7,2.279c.928-2.454,1.79-4.431,2.56-6.008.232-1.607-.315-2.045-.315-2.045.575.156.677.808.649,1.373,2.133-4.178,3.478-5.249,3.478-5.249-.529.847-1.02,1.7-1.493,2.561a4.419,4.419,0,0,1,2.3-.974,6.1,6.1,0,0,0-2.7,1.733c-.928,1.772-1.79,3.564-2.541,5.307a7.382,7.382,0,0,1,2.977-2.308,9.346,9.346,0,0,0-3.478,3.486c-.844,2.055-1.558,4.022-2.161,5.843a5.185,5.185,0,0,1,3.376-1.587,7.128,7.128,0,0,0-3.6,2.288,80.64,80.64,0,0,0-2.161,7.79Z" transform="translate(-100.23 -395.48)" fill="#fff"/>
        <path id="Path_635" data-name="Path 635" d="M109.78,402Z" transform="translate(-100.922 -395.651)" fill="#fff"/>
      </g>
      <path id="Path_636" data-name="Path 636" d="M96.8,416.626s2.708.974,4.276-6.69,2.477-16.555,5.983-20.216c0,0-6.094.721-9.275,10.468S95.46,416.285,96.8,416.626Z" transform="translate(-53.914 -383.741)" fill="#407bff"/>
      <path id="Path_637" data-name="Path 637" d="M96.8,416.626s2.708.974,4.276-6.69,2.477-16.555,5.983-20.216c0,0-6.094.721-9.275,10.468S95.46,416.285,96.8,416.626Z" transform="translate(-53.914 -383.741)" fill="#fff" opacity="0.6"/>
      <path id="Path_638" data-name="Path 638" d="M96.09,419.811c.538-4.713,1.15-8.6,1.781-11.783a6.294,6.294,0,0,0-.844-3.126,3.339,3.339,0,0,1,1.048,2.133c.538-2.581,1.085-4.684,1.6-6.369,0-1.626-.631-1.948-.631-1.948.594.058.8.691.863,1.256,1.447-4.489,2.606-5.775,2.606-5.775-.38.915-.733,1.85-1.067,2.785a4.407,4.407,0,0,1,2.105-1.363,6.2,6.2,0,0,0-2.393,2.162c-.659,1.948-1.215,3.817-1.688,5.677a7.629,7.629,0,0,1,2.588-2.785,9.437,9.437,0,0,0-2.894,4.041c-.519,2.172-.927,4.236-1.234,6.106a5.317,5.317,0,0,1,3.089-2.152,7.367,7.367,0,0,0-3.163,2.863q-.664,4.008-.928,8.073Z" transform="translate(-53.95 -383.858)" fill="#407bff"/>
      <path id="Path_639" data-name="Path 639" d="M102.53,400.83Z" transform="translate(-54.417 -384.032)" fill="#407bff"/>
      <g id="Group_66" data-name="Group 66" transform="translate(42.14 10.342)" opacity="0.2">
        <path id="Path_640" data-name="Path 640" d="M96.09,419.811c.538-4.713,1.15-8.6,1.781-11.783a6.294,6.294,0,0,0-.844-3.126,3.339,3.339,0,0,1,1.048,2.133c.538-2.581,1.085-4.684,1.6-6.369,0-1.626-.631-1.948-.631-1.948.594.058.8.691.863,1.256,1.447-4.489,2.606-5.775,2.606-5.775-.38.915-.733,1.85-1.067,2.785a4.407,4.407,0,0,1,2.105-1.363,6.2,6.2,0,0,0-2.393,2.162c-.659,1.948-1.215,3.817-1.688,5.677a7.629,7.629,0,0,1,2.588-2.785,9.437,9.437,0,0,0-2.894,4.041c-.519,2.172-.927,4.236-1.234,6.106a5.317,5.317,0,0,1,3.089-2.152,7.367,7.367,0,0,0-3.163,2.863q-.664,4.008-.928,8.073Z" transform="translate(-96.09 -394.2)" fill="#fff"/>
        <path id="Path_641" data-name="Path 641" d="M102.53,400.83Z" transform="translate(-96.557 -394.374)" fill="#fff"/>
      </g>
      <path id="Path_642" data-name="Path 642" d="M83.95,416.2s-3.283,1.344-5.454-8.053-3.571-20.177-7.986-24.569c0,0,7.494.672,11.687,12.513S85.592,415.754,83.95,416.2Z" transform="translate(-52.096 -383.58)" fill="#407bff"/>
      <path id="Path_643" data-name="Path 643" d="M83.95,416.2s-3.283,1.344-5.454-8.053-3.571-20.177-7.986-24.569c0,0,7.494.672,11.687,12.513S85.592,415.754,83.95,416.2Z" transform="translate(-52.096 -383.58)" fill="#fff" opacity="0.3"/>
      <path id="Path_644" data-name="Path 644" d="M85.331,420.06c-.816-5.755-1.7-10.488-2.569-14.373a7.755,7.755,0,0,1,.928-3.9,4.082,4.082,0,0,0-1.243,2.688c-.751-3.145-1.484-5.7-2.17-7.79,0-1.948.714-2.425.714-2.425-.733.088-.928.867-1.02,1.558-1.92-5.453-3.385-6.982-3.385-6.982.5,1.12.928,2.24,1.41,3.379a5.373,5.373,0,0,0-2.634-1.6,7.554,7.554,0,0,1,3.005,2.571c.863,2.318,1.6,4.635,2.245,6.885a9.166,9.166,0,0,0-3.256-3.311c.278.166,1.994,1.344,3.71,4.869.7,2.639,1.261,5.151,1.707,7.43a6.463,6.463,0,0,0-3.849-2.542,8.9,8.9,0,0,1,4.016,3.408,99.48,99.48,0,0,1,1.363,9.874Z" transform="translate(-52.448 -383.718)" fill="#407bff"/>
      <path id="Path_645" data-name="Path 645" d="M77.55,397Z" transform="translate(-52.606 -383.932)" fill="#407bff"/>
      <g id="Group_67" data-name="Group 67" transform="translate(22.912 5.122)" opacity="0.1">
        <path id="Path_646" data-name="Path 646" d="M85.331,420.06c-.816-5.755-1.7-10.488-2.569-14.373a7.755,7.755,0,0,1,.928-3.9,4.082,4.082,0,0,0-1.243,2.688c-.751-3.145-1.484-5.7-2.17-7.79,0-1.948.714-2.425.714-2.425-.733.088-.928.867-1.02,1.558-1.92-5.453-3.385-6.982-3.385-6.982.5,1.12.928,2.24,1.41,3.379a5.373,5.373,0,0,0-2.634-1.6,7.554,7.554,0,0,1,3.005,2.571c.863,2.318,1.6,4.635,2.245,6.885a9.166,9.166,0,0,0-3.256-3.311c.278.166,1.994,1.344,3.71,4.869.7,2.639,1.261,5.151,1.707,7.43a6.463,6.463,0,0,0-3.849-2.542,8.9,8.9,0,0,1,4.016,3.408,99.48,99.48,0,0,1,1.363,9.874Z" transform="translate(-75.36 -388.84)" fill="#fff"/>
        <path id="Path_647" data-name="Path 647" d="M77.55,397Z" transform="translate(-75.519 -389.054)" fill="#fff"/>
      </g>
      <path id="Path_648" data-name="Path 648" d="M63.134,422.445l1.354,5.473a4.683,4.683,0,0,0,4.5,3.642h36.081a4.683,4.683,0,0,0,4.489-3.642l1.354-5.473a2.621,2.621,0,0,0-.423-2.174,2.364,2.364,0,0,0-1.9-.981H65.462a2.363,2.363,0,0,0-1.9.978,2.621,2.621,0,0,0-.426,2.178Z" transform="translate(-51.556 -384.515)" fill="#407bff"/>
    </g>
    <g id="freepik--Device--inject-85" transform="translate(221.17 168.727)">
      <path id="Path_649" data-name="Path 649" d="M400.847,172.48h-23.1L360.5,425.094h23.1c6.344,0,11.947-6.612,12.5-14.763l15.193-223.088C411.839,179.092,407.145,172.48,400.847,172.48Z" transform="translate(-247.297 -172.48)" fill="#407bff"/>
      <path id="Path_650" data-name="Path 650" d="M371.123,425.094H248.987c-6.344,0-11.047-6.612-10.49-14.763l15.193-223.088c.557-8.151,6.159-14.763,12.5-14.763h122.1c6.344,0,11.038,6.612,10.481,14.763L383.654,410.331C383.07,418.482,377.468,425.094,371.123,425.094Z" transform="translate(-238.452 -172.48)" fill="#407bff"/>
      <path id="Path_651" data-name="Path 651" d="M371.123,425.094H248.987c-6.344,0-11.047-6.612-10.49-14.763l15.193-223.088c.557-8.151,6.159-14.763,12.5-14.763h122.1c6.344,0,11.038,6.612,10.481,14.763L383.654,410.331C383.07,418.482,377.468,425.094,371.123,425.094Z" transform="translate(-238.452 -172.48)" fill="#fff" opacity="0.6"/>
      <path id="Path_652" data-name="Path 652" d="M388.3,176.67H266.164c-4.591,0-8.645,4.791-9.043,10.712L241.927,410.441c-.408,5.843,3,10.712,7.587,10.712H371.651c4.582,0,8.645-4.791,9.043-10.712l15.193-223.088C396.286,181.461,392.882,176.67,388.3,176.67Z" transform="translate(-238.701 -172.59)" fill="#fff" opacity="0.7"/>
      <path id="Path_653" data-name="Path 653" d="M318.815,422.605H312.9c-1.642,0-2.848-1.7-2.708-3.8h0c.148-2.1,1.586-3.808,3.228-3.808h5.918c1.632,0,2.848,1.7,2.7,3.808h0C321.895,420.9,320.448,422.605,318.815,422.605Z" transform="translate(-243.65 -178.833)" fill="#407bff"/>
      <path id="Path_654" data-name="Path 654" d="M318.815,422.605H312.9c-1.642,0-2.848-1.7-2.708-3.8h0c.148-2.1,1.586-3.808,3.228-3.808h5.918c1.632,0,2.848,1.7,2.7,3.808h0C321.895,420.9,320.448,422.605,318.815,422.605Z" transform="translate(-243.65 -178.833)" fill="#fff" opacity="0.6"/>
      <path id="Path_655" data-name="Path 655" d="M335.034,183.289a2.233,2.233,0,0,1-1.9,2.249,1.839,1.839,0,0,1-1.259-.766,2.022,2.022,0,0,1-.346-1.484,2.223,2.223,0,0,1,1.911-2.249,1.84,1.84,0,0,1,1.253.769A2.022,2.022,0,0,1,335.034,183.289Z" transform="translate(-245.196 -172.704)" opacity="0.2"/>
      <path id="Path_656" data-name="Path 656" d="M379.887,404.228H243.94L258.224,194.5H394.171Z" transform="translate(-238.85 -173.057)" fill="#407bff"/>
      <path id="Path_657" data-name="Path 657" d="M379.887,404.228H243.94L258.224,194.5H394.171Z" transform="translate(-238.85 -173.057)" fill="#fff" opacity="0.3"/>
      <path id="Path_658" data-name="Path 658" d="M379.887,404.228H243.94L394.171,194.5Z" transform="translate(-238.85 -173.057)" fill="#407bff"/>
      <path id="Path_659" data-name="Path 659" d="M279.742,331.2h-9.22a4.844,4.844,0,0,1-3.96-2.191,8.162,8.162,0,0,1-1.354-5.3l.807-11.832c.269-4.022,3.033-7.284,6.159-7.284h9.22a4.844,4.844,0,0,1,3.961,2.191,8.143,8.143,0,0,1,1.354,5.288L285.9,323.92C285.632,327.932,282.867,331.2,279.742,331.2Zm-7.569-24.267c-2.208,0-4.165,2.318-4.359,5.151l-.807,11.841a5.493,5.493,0,0,0,.928,3.515,3.194,3.194,0,0,0,2.625,1.431h9.22c2.208,0,4.165-2.308,4.359-5.151l.8-11.832a5.417,5.417,0,0,0-.881-3.515,3.222,3.222,0,0,0-2.625-1.441Z" transform="translate(-240.388 -175.941)" fill="#263238"/>
      <path id="Path_660" data-name="Path 660" d="M282.632,290.774h-9.22a4.844,4.844,0,0,1-3.96-2.191A8.142,8.142,0,0,1,268.1,283.3l.807-11.841c.269-4.012,3.033-7.284,6.159-7.284h9.22a4.844,4.844,0,0,1,3.961,2.191,8.163,8.163,0,0,1,1.354,5.3l-.807,11.822C288.522,287.512,285.758,290.774,282.632,290.774Zm-7.569-24.267c-2.208,0-4.165,2.308-4.359,5.151l-.844,11.822a5.473,5.473,0,0,0,.928,3.515,3.2,3.2,0,0,0,2.625,1.441h9.22c2.208,0,4.165-2.318,4.359-5.151l.807-11.841a5.5,5.5,0,0,0-.927-3.515,3.194,3.194,0,0,0-2.625-1.431Z" transform="translate(-240.598 -174.882)" fill="#263238"/>
      <path id="Path_661" data-name="Path 661" d="M276.862,371.625h-9.22a4.834,4.834,0,0,1-3.961-2.181,8.163,8.163,0,0,1-1.354-5.3l.807-11.841c.269-4.012,3.033-7.274,6.159-7.274h9.22a4.844,4.844,0,0,1,3.961,2.191,8.082,8.082,0,0,1,1.354,5.288l-.807,11.841C282.742,368.372,279.978,371.625,276.862,371.625Zm-7.569-24.267c-2.208,0-4.165,2.308-4.359,5.151l-.807,11.841a5.5,5.5,0,0,0,.928,3.515,3.194,3.194,0,0,0,2.625,1.431h9.183c2.207,0,4.165-2.308,4.359-5.151l.8-11.841a5.447,5.447,0,0,0-.881-3.515,3.2,3.2,0,0,0-2.625-1.431Z" transform="translate(-240.18 -177)" fill="#263238"/>
      <path id="Path_662" data-name="Path 662" d="M280.058,233.384h-4.721l-1.085,2.8H271.84l5.417-13.049h2.328l3.645,13.049h-2.467Zm-.584-2.288-1.271-5-1.948,5Z" transform="translate(-240.872 -173.807)" fill="#fff"/>
      <path id="Path_663" data-name="Path 663" d="M286.154,223.14h4.638a4.99,4.99,0,0,1,2.866.808,4.812,4.812,0,0,1,1.855,2.279,7.493,7.493,0,0,1,.473,3.438,8.268,8.268,0,0,1-.928,3.428,5.717,5.717,0,0,1-5.111,3.1H285.31Zm3.784,10.576a3.217,3.217,0,0,0,2.5-1.091,4.8,4.8,0,0,0,1.1-2.921,4.225,4.225,0,0,0-.7-2.921,2.772,2.772,0,0,0-2.356-1.091h-2.143l-.538,8.024Z" transform="translate(-241.848 -173.807)" fill="#fff"/>
      <path id="Path_664" data-name="Path 664" d="M308.453,223.14l-5.287,13.049h-2.319l-3.5-13.049h2.541l2.449,9.319,3.775-9.319Z" transform="translate(-242.72 -173.807)" fill="#fff"/>
      <path id="Path_665" data-name="Path 665" d="M315.688,233.384h-4.721l-1.085,2.8H307.47l5.417-13.049h2.319l3.654,13.049h-2.467ZM315.1,231.1l-1.271-5-1.957,5Z" transform="translate(-243.454 -173.807)" fill="#fff"/>
      <path id="Path_666" data-name="Path 666" d="M331.1,223.14l-.928,13.049h-1.929l-4.471-7.927-.538,7.927H320.91l.928-13.049h1.939l4.508,7.917.538-7.917Z" transform="translate(-244.428 -173.807)" fill="#fff"/>
      <path id="Path_667" data-name="Path 667" d="M336.326,225.594H333.08l.167-2.454H342.1l-.167,2.454h-3.246l-.723,10.595H335.6Z" transform="translate(-245.31 -173.807)" fill="#fff"/>
      <path id="Path_668" data-name="Path 668" d="M349.429,233.384h-4.7l-1.095,2.8h-2.4l5.417-13.049h2.319l3.654,13.049h-2.467Zm-.584-2.288-1.271-5-1.948,5Z" transform="translate(-245.901 -173.807)" fill="#fff"/>
      <path id="Path_669" data-name="Path 669" d="M361.788,229.454h2.143l-.352,5.288a6.533,6.533,0,0,1-2,1.237,6.219,6.219,0,0,1-2.217.428,4.687,4.687,0,0,1-2.783-.867,5.371,5.371,0,0,1-1.855-2.405,7.962,7.962,0,0,1-.482-3.476,8.583,8.583,0,0,1,.927-3.477,6.386,6.386,0,0,1,2.161-2.405,5.235,5.235,0,0,1,2.931-.867,4.8,4.8,0,0,1,2.384.575,4.518,4.518,0,0,1,1.716,1.675l-1.632,1.792a2.93,2.93,0,0,0-2.523-1.47,3.185,3.185,0,0,0-1.762.516,3.757,3.757,0,0,0-1.28,1.48,5.686,5.686,0,0,0-.566,2.181,5.1,5.1,0,0,0,.278,2.162,3.144,3.144,0,0,0,1.067,1.48,2.689,2.689,0,0,0,1.669.526,3.339,3.339,0,0,0,1.855-.555Z" transform="translate(-246.841 -173.801)" fill="#fff"/>
      <path id="Path_670" data-name="Path 670" d="M374.582,233.764l-.167,2.425H366.55l.928-13.049h7.671l-.167,2.415h-5.333l-.195,2.834h4.712l-.158,2.357H369.3l-.213,3.019Z" transform="translate(-247.736 -173.807)" fill="#fff"/>
      <path id="Path_671" data-name="Path 671" d="M378.014,235.989a4.655,4.655,0,0,1-1.735-1.091l.928-2.279a4.829,4.829,0,0,0,3.256,1.363,2.464,2.464,0,0,0,1.5-.38,1.356,1.356,0,0,0,.557-.974,1.006,1.006,0,0,0-.232-.769,1.919,1.919,0,0,0-.7-.5,10.266,10.266,0,0,0-1.169-.409,13.1,13.1,0,0,1-1.855-.711,2.838,2.838,0,0,1-1.187-1.139,3.542,3.542,0,0,1-.39-2.084,4.719,4.719,0,0,1,.622-2.064,3.875,3.875,0,0,1,1.54-1.461,4.969,4.969,0,0,1,2.393-.536,6.1,6.1,0,0,1,1.855.292,4.756,4.756,0,0,1,1.567.857l-.881,2.3a4.5,4.5,0,0,0-2.783-1.032,2.3,2.3,0,0,0-1.484.419,1.453,1.453,0,0,0-.547,1.081.988.988,0,0,0,.473.974,7.114,7.114,0,0,0,1.623.643,12.928,12.928,0,0,1,1.855.711,2.833,2.833,0,0,1,1.2,1.12,3.389,3.389,0,0,1,.39,2.064,4.526,4.526,0,0,1-.621,2.045,3.994,3.994,0,0,1-1.558,1.461,5.032,5.032,0,0,1-2.4.545,6.488,6.488,0,0,1-2.217-.448Z" transform="translate(-248.441 -173.802)" fill="#fff"/>
      <path id="Path_672" data-name="Path 672" d="M332.836,282.672H303.563c-2.143,0-3.71-2.23-3.534-4.976h0c.186-2.746,2.068-4.976,4.211-4.976h29.273c2.143,0,3.71,2.23,3.534,4.976h0C336.861,280.442,334.978,282.672,332.836,282.672Z" transform="translate(-242.914 -175.106)" fill="#407bff"/>
      <path id="Path_673" data-name="Path 673" d="M377.775,282.672H348.493c-2.143,0-3.71-2.23-3.534-4.976h0c.186-2.746,2.068-4.976,4.211-4.976h29.282c2.133,0,3.71,2.23,3.534,4.976h0C381.791,280.442,379.908,282.672,377.775,282.672Z" transform="translate(-246.17 -175.106)" fill="#407bff"/>
      <g id="Group_68" data-name="Group 68" transform="translate(57.102 97.614)" opacity="0.7">
        <path id="Path_674" data-name="Path 674" d="M332.836,282.672H303.563c-2.143,0-3.71-2.23-3.534-4.976h0c.186-2.746,2.068-4.976,4.211-4.976h29.273c2.143,0,3.71,2.23,3.534,4.976h0C336.861,280.442,334.978,282.672,332.836,282.672Z" transform="translate(-300.015 -272.72)" fill="#fff"/>
        <path id="Path_675" data-name="Path 675" d="M377.775,282.672H348.493c-2.143,0-3.71-2.23-3.534-4.976h0c.186-2.746,2.068-4.976,4.211-4.976h29.282c2.133,0,3.71,2.23,3.534,4.976h0C381.791,280.442,379.908,282.672,377.775,282.672Z" transform="translate(-303.272 -272.72)" fill="#fff"/>
      </g>
      <path id="Path_676" data-name="Path 676" d="M317.066,323.1H300.723c-2.143,0-3.71-2.23-3.534-4.976h0c.186-2.746,2.068-4.976,4.211-4.976h16.389c2.133,0,3.71,2.23,3.525,4.976h0C321.128,320.872,319.2,323.1,317.066,323.1Z" transform="translate(-242.708 -176.165)" fill="#407bff"/>
      <path id="Path_677" data-name="Path 677" d="M367.525,323.1h-35.8c-2.143,0-3.71-2.23-3.534-4.976h0c.186-2.746,2.068-4.976,4.211-4.976h35.821c2.143,0,3.71,2.23,3.534,4.976h0C371.551,320.872,369.668,323.1,367.525,323.1Z" transform="translate(-244.954 -176.165)" fill="#407bff"/>
      <g id="Group_69" data-name="Group 69" transform="translate(54.468 136.985)" opacity="0.7">
        <path id="Path_678" data-name="Path 678" d="M317.066,323.1H300.723c-2.143,0-3.71-2.23-3.534-4.976h0c.186-2.746,2.068-4.976,4.211-4.976h16.389c2.133,0,3.71,2.23,3.525,4.976h0C321.128,320.872,319.2,323.1,317.066,323.1Z" transform="translate(-297.175 -313.15)" fill="#fff"/>
        <path id="Path_679" data-name="Path 679" d="M367.525,323.1h-35.8c-2.143,0-3.71-2.23-3.534-4.976h0c.186-2.746,2.068-4.976,4.211-4.976h35.821c2.143,0,3.71,2.23,3.534,4.976h0C371.551,320.872,369.668,323.1,367.525,323.1Z" transform="translate(-299.422 -313.15)" fill="#fff"/>
      </g>
      <path id="Path_680" data-name="Path 680" d="M314.163,363.522H297.773c-2.133,0-3.71-2.22-3.525-4.966h0c.186-2.746,2.068-4.976,4.211-4.976h16.389c2.133,0,3.71,2.23,3.525,4.976h0C318.188,361.3,316.278,363.522,314.163,363.522Z" transform="translate(-242.495 -177.224)" fill="#407bff"/>
      <path id="Path_681" data-name="Path 681" d="M368.388,363.522h-1.6c-2.143,0-3.71-2.22-3.534-4.966h0c.186-2.746,2.068-4.976,4.211-4.976h1.6c2.143,0,3.71,2.23,3.534,4.976h0C372.414,361.3,370.531,363.522,368.388,363.522Z" transform="translate(-247.496 -177.224)" fill="#407bff"/>
      <path id="Path_682" data-name="Path 682" d="M352.474,363.522H328.813c-2.143,0-3.71-2.22-3.534-4.966h0c.186-2.746,2.068-4.976,4.211-4.976h23.661c2.133,0,3.71,2.23,3.534,4.976h0C356.5,361.3,354.607,363.522,352.474,363.522Z" transform="translate(-244.744 -177.224)" fill="#407bff"/>
      <g id="Group_70" data-name="Group 70" transform="translate(51.739 176.356)" opacity="0.7">
        <path id="Path_683" data-name="Path 683" d="M314.163,363.522H297.773c-2.133,0-3.71-2.22-3.525-4.966h0c.186-2.746,2.068-4.976,4.211-4.976h16.389c2.133,0,3.71,2.23,3.525,4.976h0C318.188,361.3,316.278,363.522,314.163,363.522Z" transform="translate(-294.234 -353.58)" fill="#fff"/>
        <path id="Path_684" data-name="Path 684" d="M368.388,363.522h-1.6c-2.143,0-3.71-2.22-3.534-4.966h0c.186-2.746,2.068-4.976,4.211-4.976h1.6c2.143,0,3.71,2.23,3.534,4.976h0C372.414,361.3,370.531,363.522,368.388,363.522Z" transform="translate(-299.236 -353.58)" fill="#fff"/>
        <path id="Path_685" data-name="Path 685" d="M352.474,363.522H328.813c-2.143,0-3.71-2.22-3.534-4.966h0c.186-2.746,2.068-4.976,4.211-4.976h23.661c2.133,0,3.71,2.23,3.534,4.976h0C356.5,361.3,354.607,363.522,352.474,363.522Z" transform="translate(-296.483 -353.58)" fill="#fff"/>
      </g>
      <path id="Path_686" data-name="Path 686" d="M298.167,258.57a60.262,60.262,0,0,0-20.656,16.652,19.2,19.2,0,0,0-11.028-6.106h-.093a.5.5,0,0,0-.369.136.547.547,0,0,0-.169.37l-.343,2.542a.546.546,0,0,0,.241.574h0a21.721,21.721,0,0,1,10.2,11.617h0a.42.42,0,0,0,.8,0v-.068c5.565-9.972,13.162-18.327,21.509-23.517h0a.686.686,0,0,0,.288-.477l.148-1.081c.056-.438-.26-.769-.594-.6Z" transform="translate(-240.412 -174.735)" fill="#fff"/>
      <path id="Path_687" data-name="Path 687" d="M295.277,299a60.177,60.177,0,0,0-20.656,16.652,19.2,19.2,0,0,0-11.028-6.106H263.5a.5.5,0,0,0-.369.136.547.547,0,0,0-.169.37l-.343,2.542a.546.546,0,0,0,.241.575h0a21.721,21.721,0,0,1,10.2,11.617h0a.42.42,0,0,0,.8,0v-.068c5.565-9.972,13.162-18.327,21.509-23.527h0a.686.686,0,0,0,.288-.477l.148-1.081c.056-.448-.26-.769-.594-.6Z" transform="translate(-240.202 -175.794)" fill="#fff"/>
      <path id="Path_688" data-name="Path 688" d="M292.387,339.43a60.147,60.147,0,0,0-20.656,16.642,19.264,19.264,0,0,0-11.028-6.1h-.093a.5.5,0,0,0-.369.136.546.546,0,0,0-.169.37l-.343,2.542a.546.546,0,0,0,.241.575h0a21.626,21.626,0,0,1,10.2,11.617h0a.428.428,0,0,0,.807,0v-.068c5.565-9.972,13.162-18.327,21.5-23.527h.046a.666.666,0,0,0,.288-.477l.148-1.081c.056-.438-.26-.76-.594-.594Z" transform="translate(-239.993 -176.854)" fill="#fff"/>
    </g>
    <g id="freepik--Character--inject-85" transform="translate(64.315 29.22)">
      <path id="Path_689" data-name="Path 689" d="M246.182,122.053c0-51.27-39.587-92.833-88.421-92.833S69.34,70.783,69.34,122.053c0,42.107,41.739,82,63.294,118.492,3.014,5.112,0,19.067,0,19.067h50.253s-3.014-13.955,0-19.067C204.443,204.056,246.182,164.16,246.182,122.053Z" transform="translate(-69.34 -29.22)" fill="#407bff"/>
      <path id="Path_690" data-name="Path 690" d="M246.182,122.053c0-51.27-39.587-92.833-88.421-92.833S69.34,70.783,69.34,122.053c0,42.107,41.739,82,63.294,118.492,3.014,5.112,0,19.067,0,19.067h50.253s-3.014-13.955,0-19.067C204.443,204.056,246.182,164.16,246.182,122.053Z" transform="translate(-69.34 -29.22)" fill="#fff" opacity="0.5"/>
      <path id="Path_691" data-name="Path 691" d="M160.524,259.612H145.443s1.855-13.955,0-19.067c-12.911-36.488-37.973-76.385-37.973-118.492,0-51.261,23.754-92.833,53.054-92.833s53.054,41.572,53.054,92.833c0,42.107-25.043,82-38.029,118.492-1.809,5.112,0,19.067,0,19.067Z" transform="translate(-72.103 -29.22)" fill="#fff" opacity="0.3"/>
      <path id="Path_692" data-name="Path 692" d="M163.288,259.612h-5.027s.6-13.955,0-19.067c-4.3-36.488-12.661-76.385-12.661-118.492,0-51.261,7.921-92.833,17.688-92.833s17.688,41.572,17.688,92.833c0,42.107-8.348,82-12.661,118.492-.6,5.112,0,19.067,0,19.067Z" transform="translate(-74.867 -29.22)" fill="#fff" opacity="0.5"/>
      <rect id="Rectangle_679" data-name="Rectangle 679" width="54.251" height="6.671" rx="2.25" transform="translate(61.3 227.393)" fill="#407bff"/>
      <rect id="Rectangle_680" data-name="Rectangle 680" width="54.251" height="6.671" rx="2.25" transform="translate(61.3 227.393)" opacity="0.2"/>
      <rect id="Rectangle_681" data-name="Rectangle 681" width="166.38" height="6.671" rx="2.25" transform="translate(5.231 124.189)" fill="#407bff"/>
      <rect id="Rectangle_682" data-name="Rectangle 682" width="166.38" height="6.671" rx="2.25" transform="translate(5.231 124.189)" opacity="0.2"/>
      <ellipse id="Ellipse_35" data-name="Ellipse 35" cx="35.728" cy="37.511" rx="35.728" ry="37.511" transform="translate(52.693 41.932)" fill="#407bff"/>
      <ellipse id="Ellipse_36" data-name="Ellipse 36" cx="35.728" cy="37.511" rx="35.728" ry="37.511" transform="translate(52.693 41.932)" fill="#fff" opacity="0.2"/>
      <g id="Group_71" data-name="Group 71" transform="translate(55.494 44.873)" opacity="0.8">
        <path id="Path_693" data-name="Path 693" d="M162.1,144.44c-18.185,0-32.927-15.478-32.927-34.57S143.912,75.3,162.1,75.3s32.927,15.478,32.927,34.57c-.02,19.084-14.75,34.549-32.927,34.57Zm0-64.972c-15.993,0-28.957,13.611-28.957,30.4s12.965,30.4,28.957,30.4,28.957-13.612,28.957-30.4c-.02-16.782-12.973-30.381-28.957-30.4Z" transform="translate(-129.17 -75.3)" fill="#fff"/>
      </g>
      <path id="Path_694" data-name="Path 694" d="M182.817,97.673l-18.476-1.393-.241.127.677-3.291h0l.788-3.817a1.175,1.175,0,0,0,0-.253c0-.974.056-6.817-1.252-8.2-.677-.711-3-.867-4.434-.9a1.266,1.266,0,0,0-1.271,1.178,90.251,90.251,0,0,1-1.484,10.984,89.462,89.462,0,0,1-4.434,10.1L150.15,103.5a1.9,1.9,0,0,0-1.855-1.831h-7.114a1.96,1.96,0,0,0-1.911,2.006v24.481a1.97,1.97,0,0,0,1.911,2.016h7.114a1.917,1.917,0,0,0,1.855-1.461h28.03a3.883,3.883,0,0,0,3.766-3.243l4.378-22.972a4.2,4.2,0,0,0-.716-3.242A3.8,3.8,0,0,0,182.817,97.673Z" transform="translate(-74.408 -30.549)" opacity="0.2"/>
      <path id="Path_695" data-name="Path 695" d="M152.56,101.891s4.638-9.076,5.565-12.338a90.782,90.782,0,0,0,1.484-10.984,1.266,1.266,0,0,1,1.271-1.188c1.438,0,3.71.195,4.434.906,1.308,1.363,1.261,7.245,1.252,8.19a1.113,1.113,0,0,1,0,.253L164.3,97.674Z" transform="translate(-75.371 -30.482)" fill="#407bff"/>
      <path id="Path_696" data-name="Path 696" d="M152.56,101.891s4.638-9.076,5.565-12.338a90.782,90.782,0,0,0,1.484-10.984,1.266,1.266,0,0,1,1.271-1.188c1.438,0,3.71.195,4.434.906,1.308,1.363,1.261,7.245,1.252,8.19a1.113,1.113,0,0,1,0,.253L164.3,97.674Z" transform="translate(-75.371 -30.482)" fill="#fff" opacity="0.9"/>
      <path id="Path_697" data-name="Path 697" d="M165.921,90.91l-10.861,9.329,2.662.214,6.725-2.425Z" transform="translate(-75.553 -30.836)" opacity="0.2"/>
      <path id="Path_698" data-name="Path 698" d="M149.938,101.863l15.128-7.7,18.476,1.393a3.793,3.793,0,0,1,2.784,1.576,4.187,4.187,0,0,1,.713,3.235l-4.4,22.972a3.883,3.883,0,0,1-3.766,3.243H149.14Z" transform="translate(-75.123 -30.921)" fill="#407bff"/>
      <path id="Path_699" data-name="Path 699" d="M149.938,101.863l15.128-7.7,18.476,1.393a3.793,3.793,0,0,1,2.784,1.576,4.187,4.187,0,0,1,.713,3.235l-4.4,22.972a3.883,3.883,0,0,1-3.766,3.243H149.14Z" transform="translate(-75.123 -30.921)" fill="#fff" opacity="0.9"/>
      <rect id="Rectangle_683" data-name="Rectangle 683" width="10.945" height="28.503" rx="2.41" transform="translate(64.862 68.614)" fill="#407bff"/>
      <rect id="Rectangle_684" data-name="Rectangle 684" width="10.945" height="28.503" rx="2.41" transform="translate(64.862 68.614)" opacity="0.2"/>
      <path id="Path_700" data-name="Path 700" d="M245.04,163.6,190.78,327.637h1.243L246.283,163.6Z" transform="translate(-78.141 -32.74)"/>
      <path id="Path_701" data-name="Path 701" d="M78.72,163.6l54.26,164.037h1.234L79.963,163.6Z" transform="translate(-70.02 -32.74)"/>
      <path id="Path_702" data-name="Path 702" d="M197.841,268.55c.38,2.269.807,4.665,1.271,6.953a63.953,63.953,0,0,0,1.679,6.661,16.629,16.629,0,0,0,1.094,2.678l.13.224a.86.86,0,0,1,.111.166.535.535,0,0,1,.065.088h-.139a.608.608,0,0,0,.213.175,3.35,3.35,0,0,0,.547.253,26.257,26.257,0,0,0,3.014.876c1.085.273,2.226.516,3.33.808l.074,3.486a22.733,22.733,0,0,1-3.71.643,17.27,17.27,0,0,1-3.942,0,9.651,9.651,0,0,1-1.141-.224,5.983,5.983,0,0,1-1.4-.545,3.787,3.787,0,0,1-.436-.273c-.148-.107-.343-.253-.417-.321l-.557-.555-.464-.545-.38-.516a20.235,20.235,0,0,1-1.994-3.9,53.637,53.637,0,0,1-2.235-7.489c-.288-1.237-.547-2.483-.77-3.73s-.417-2.473-.584-3.788Z" transform="translate(-78.172 -35.49)" fill="#803e3c"/>
      <path id="Path_703" data-name="Path 703" d="M190.505,267.969c-1.809,4.022,2.458,13.312,2.458,13.312l7.374-3.72a20.224,20.224,0,0,0-2.476-9.5c-1.966-3.661-5.092-4.966-7.42-3.788C189.494,264.736,191.071,266.723,190.505,267.969Z" transform="translate(-78.089 -35.367)" fill="#407bff"/>
      <path id="Path_704" data-name="Path 704" d="M192.619,273.69c-2.068-1.412-2.866-.575-3.6.321a51.678,51.678,0,0,0,3.868,7.508l3.126-1.578C195.494,277.39,194.131,274.722,192.619,273.69Z" transform="translate(-78.014 -35.605)" opacity="0.2"/>
      <path id="Path_705" data-name="Path 705" d="M209.32,288.141l3.979-2.211.213,5.239s-3.71,1.753-4.452-.273Z" transform="translate(-79.466 -35.945)" fill="#7f3e3b"/>
      <path id="Path_706" data-name="Path 706" d="M218.082,286.2l-1.28,4.567-2.968.4-.2-5.239Z" transform="translate(-79.797 -35.945)" fill="#7f3e3b"/>
      <path id="Path_707" data-name="Path 707" d="M191.63,281.321l9.535-4.791.4,2.308-8.756,4.051Z" transform="translate(-78.203 -35.699)" fill="#407bff"/>
      <path id="Path_708" data-name="Path 708" d="M191.63,281.321l9.535-4.791.4,2.308-8.756,4.051Z" transform="translate(-78.203 -35.699)" fill="#fff" opacity="0.7"/>
      <path id="Path_709" data-name="Path 709" d="M177.77,407.77l4.415-.36.482-10.79-4.415.36Z" transform="translate(-77.198 -38.845)" fill="#7f3e3b"/>
      <path id="Path_710" data-name="Path 710" d="M142.07,404.041l4.257,1.246,3.951-9.991-4.257-1.247Z" transform="translate(-74.611 -38.778)" fill="#7f3e3b"/>
      <path id="Path_711" data-name="Path 711" d="M146.813,405.189l-5.194-1.519a.391.391,0,0,0-.445.195l-1.929,3.72a.7.7,0,0,0-.024.592.649.649,0,0,0,.432.382c1.67.458,2.922.711,5.027,1.324,1.289.38,5.157,1.665,6.938,2.191s2.532-1.266,1.855-1.646c-3.07-1.714-5.259-3.467-6.038-4.762a1.081,1.081,0,0,0-.621-.477Z" transform="translate(-74.401 -39.029)" fill="#263238"/>
      <path id="Path_712" data-name="Path 712" d="M182.431,406.862l-4.823-.312a.4.4,0,0,0-.4.292l-1.141,4.041a.7.7,0,0,0,.087.58.634.634,0,0,0,.488.287c1.744.078,4.267.127,6.493.273,2.56.156,4.192.078,7.2.273,1.855.117,2.449-1.772,1.7-1.948-3.4-.974-5.658-.906-8.515-3.019A1.962,1.962,0,0,0,182.431,406.862Z" transform="translate(-77.073 -39.105)" fill="#263238"/>
      <path id="Path_713" data-name="Path 713" d="M182.685,396.63l-.25,5.56-4.415.351.25-5.56Z" transform="translate(-77.217 -38.845)" opacity="0.2"/>
      <path id="Path_714" data-name="Path 714" d="M146.171,394.05l4.257,1.247-2.041,5.151L144.13,399.2Z" transform="translate(-74.76 -38.778)" opacity="0.2"/>
      <path id="Path_715" data-name="Path 715" d="M167.133,261.918a108.728,108.728,0,0,1,.584,15.5c-.1,3.613-.343,7.041-.64,10.137-.677,7.265-1.632,12.737-1.7,14.607,3.46.263,16.482,1.256,23.587,1.782,6.975-25.611,2.857-39.926,2.857-39.926a44.353,44.353,0,0,0-5.482-1.558c-.39-.088-.8-.166-1.2-.234a84.88,84.88,0,0,0-10.036-.76H173.2A58.768,58.768,0,0,0,167.133,261.918Z" transform="translate(-76.3 -35.304)" fill="#407bff"/>
      <path id="Path_716" data-name="Path 716" d="M167.133,261.918a108.728,108.728,0,0,1,.584,15.5c-.1,3.613-.343,7.041-.64,10.137-.677,7.265-1.632,12.737-1.7,14.607,3.46.263,16.482,1.256,23.587,1.782.761-26.565,2.857-39.926,2.857-39.926a44.353,44.353,0,0,0-5.482-1.558c-.39-.088-.8-.166-1.2-.234a84.88,84.88,0,0,0-10.036-.76H173.2A58.768,58.768,0,0,0,167.133,261.918Z" transform="translate(-76.3 -35.304)" fill="#fff" opacity="0.7"/>
      <path id="Path_717" data-name="Path 717" d="M184.7,267a33.2,33.2,0,0,1,1.642,8.384c-.362.974-.77,1.948-1.234,2.921-.464-1.032-.928-2.074-1.512-3.106.056-4.655.584-5.843.158-8.258Z" transform="translate(-77.621 -35.448)" fill="#263238"/>
      <path id="Path_718" data-name="Path 718" d="M184.469,268.486l.992-2.259-1.54-.847-1.252.672Z" transform="translate(-77.554 -35.407)" fill="#263238"/>
      <path id="Path_719" data-name="Path 719" d="M173.2,261.46c4.48,5.619,4.545,9.047,10.4,9.086,5.5,0,3.71-2.727,3.274-7.975a44.567,44.567,0,0,1,4.953,1.441s4.118,14.344-2.857,39.926c-7.1-.526-20.127-1.519-23.587-1.782.065-1.889,1.02-7.362,1.7-14.607.3-3.1.538-6.525.64-10.137a108.724,108.724,0,0,0-.584-15.5S170,261.528,173.2,261.46Z" transform="translate(-76.3 -35.304)" fill="#407bff"/>
      <path id="Path_720" data-name="Path 720" d="M177.79,249.39c.371,3.428.519,9.67-1.92,11.754a9.82,9.82,0,0,0,7.485,3.808c2.783.146,3.079-1.879,2.551-3.048-3.534-1.169-3.219-3.963-2.393-6.544Z" transform="translate(-77.061 -34.988)" fill="#7f3e3b"/>
      <path id="Path_721" data-name="Path 721" d="M183.37,265.232s-1.15,1.334-2.476,2.639c-1.762-1.139-5.871-4.148-5.565-6.661a2.428,2.428,0,0,1,1.234-1.1A26.188,26.188,0,0,0,183.37,265.232Z" transform="translate(-77.02 -35.269)" fill="#fff"/>
      <path id="Path_722" data-name="Path 722" d="M184,265.263a13.417,13.417,0,0,1,2.2,2.921c1.382-.876.928-5.619.445-6.174a3.038,3.038,0,0,0-1.744-.74S186.143,264.9,184,265.263Z" transform="translate(-77.65 -35.299)" fill="#fff"/>
      <path id="Path_723" data-name="Path 723" d="M180.442,251.89l3.385,3.535a12.4,12.4,0,0,0-.454,1.841c-1.354-.312-3.126-2.035-3.154-3.554A5.312,5.312,0,0,1,180.442,251.89Z" transform="translate(-77.375 -35.053)" opacity="0.2"/>
      <path id="Path_724" data-name="Path 724" d="M176.847,244.68c.464,4.577.51,7.284,2.783,9.514,3.469,3.35,8.774.974,9.628-3.691.77-4.178-.111-10.955-4.461-12.533a5.821,5.821,0,0,0-5.727,1.066,6.5,6.5,0,0,0-2.222,5.643Z" transform="translate(-77.129 -34.68)" fill="#7f3e3b"/>
      <path id="Path_725" data-name="Path 725" d="M183.737,398.554l-7.476.6s1.2-26.078,1.985-40.491a157.556,157.556,0,0,0-.408-17.236c-.557-8.384-1.456-17.528-2.235-24.647-.826-7.527-1.5-12.874-1.5-12.874l15.508,1.178s2.226,37.112,1.187,51.232C189.775,371,183.737,398.554,183.737,398.554Z" transform="translate(-76.932 -36.416)" fill="#263238"/>
      <path id="Path_726" data-name="Path 726" d="M177.955,341.687c-.557-8.384-1.456-17.528-2.235-24.647l2.115-3.36C180.951,319,179.847,333.828,177.955,341.687Z" transform="translate(-77.05 -36.672)" opacity="0.6"/>
      <path id="Path_727" data-name="Path 727" d="M178.968,304.44s-7.615,39.351-10.945,52.517c-3.636,14.4-17.493,40.656-17.493,40.656l-7.8-2.279s9.85-24.462,12.587-38.952c3.061-16.253,8.413-53.053,8.413-53.053Z" transform="translate(-74.659 -36.401)" fill="#263238"/>
      <path id="Path_728" data-name="Path 728" d="M151.383,400.47l-9.173-2.688L143,394.91l9.739,2.22Z" transform="translate(-74.621 -38.8)" fill="#263238"/>
      <path id="Path_729" data-name="Path 729" d="M184.791,401.193l-8.923.584-.148-3.009,9.795-.8Z" transform="translate(-77.05 -38.88)" fill="#263238"/>
      <path id="Path_730" data-name="Path 730" d="M184.06,245.791c0,.37.223.662.454.652s.408-.331.39-.7-.213-.662-.445-.652S184.051,245.411,184.06,245.791Z" transform="translate(-77.654 -34.875)" fill="#263238"/>
      <path id="Path_731" data-name="Path 731" d="M188.4,245.561c0,.37.223.662.454.652s.408-.331.39-.7-.213-.672-.445-.652S188.391,245.181,188.4,245.561Z" transform="translate(-77.969 -34.869)" fill="#263238"/>
      <path id="Path_732" data-name="Path 732" d="M187,245.84a13.074,13.074,0,0,0,1.855,2.99,2.063,2.063,0,0,1-1.688.39Z" transform="translate(-77.867 -34.895)" fill="#630f0f"/>
      <path id="Path_733" data-name="Path 733" d="M185.068,250.857a3.646,3.646,0,0,0,.464,0,.124.124,0,0,0,.1-.117.11.11,0,0,0-.033-.079.1.1,0,0,0-.078-.028,2.716,2.716,0,0,1-2.347-.974.1.1,0,0,0-.148,0,.111.111,0,0,0,0,.156,2.853,2.853,0,0,0,2.041,1.042Z" transform="translate(-77.577 -34.994)" fill="#263238"/>
      <path id="Path_734" data-name="Path 734" d="M182.646,244.444a.21.21,0,0,0,.195-.1,1.685,1.685,0,0,1,1.308-.808.2.2,0,0,0,.15-.059.219.219,0,0,0,.063-.155.211.211,0,0,0-.053-.161.19.19,0,0,0-.151-.063,2.066,2.066,0,0,0-1.66.974.223.223,0,0,0-.033.163.215.215,0,0,0,.089.139.2.2,0,0,0,.093.068Z" transform="translate(-77.538 -34.823)" fill="#263238"/>
      <path id="Path_735" data-name="Path 735" d="M190.091,243.961a.177.177,0,0,0,.121,0,.23.23,0,0,0,.083-.3,2.083,2.083,0,0,0-1.558-1.149.227.227,0,0,0,0,.438,1.607,1.607,0,0,1,1.224.974A.188.188,0,0,0,190.091,243.961Z" transform="translate(-77.981 -34.808)" fill="#263238"/>
      <path id="Path_736" data-name="Path 736" d="M147.535,405.987a.109.109,0,0,1,0-.195c.176-.058,1.8-.545,2.2-.146a.342.342,0,0,1,.093.341.678.678,0,0,1-.362.5,1.25,1.25,0,0,1-.927,0,4.959,4.959,0,0,1-1-.5Zm.334-.058a2.08,2.08,0,0,0,1.54.36.466.466,0,0,0,.241-.341c0-.088,0-.127,0-.146a.293.293,0,0,0-.121-.068,4.16,4.16,0,0,0-1.66.146Z" transform="translate(-75.003 -39.077)" fill="#407bff"/>
      <path id="Path_737" data-name="Path 737" d="M147.509,405.883a.142.142,0,0,1,0-.107c0-.058.473-1.315,1.085-1.587a.577.577,0,0,1,.473,0,.361.361,0,0,1,.241.38c-.046.516-1.169,1.246-1.679,1.363h-.046Zm1.15-1.5c-.39.175-.733.886-.881,1.246.529-.214,1.28-.8,1.308-1.1a.188.188,0,0,0-.121-.156h-.074A.345.345,0,0,0,148.659,404.383Z" transform="translate(-75.005 -39.042)" fill="#407bff"/>
      <path id="Path_738" data-name="Path 738" d="M183.289,407.439a.118.118,0,0,1,.065-.117c.2-.088,2.041-.925,2.56-.575a.375.375,0,0,1,.158.3.666.666,0,0,1-.232.526c-.519.409-1.772.156-2.477,0h0a.093.093,0,0,1-.07-.048.1.1,0,0,1,0-.088Zm.436,0a2.721,2.721,0,0,0,1.985,0,.418.418,0,0,0,.148-.341.149.149,0,0,0-.056-.127h0a4.324,4.324,0,0,0-2.078.429Z" transform="translate(-77.598 -39.108)" fill="#407bff"/>
      <path id="Path_739" data-name="Path 739" d="M183.329,407.486a.122.122,0,0,1,0-.107,3.249,3.249,0,0,1,.807-1.733.769.769,0,0,1,.594-.156c.278.049.352.214.362.331.046.526-1.076,1.461-1.623,1.675h-.1Zm1.326-1.772a.545.545,0,0,0-.436.107,2.608,2.608,0,0,0-.677,1.383c.566-.3,1.336-1.042,1.308-1.363,0,0,0-.068-.093-.1a.161.161,0,0,0-.1-.029Z" transform="translate(-77.6 -39.077)" fill="#407bff"/>
      <path id="Path_740" data-name="Path 740" d="M167.82,268.561c.13,2.678.148,5.317.1,7.868,4.1-2.921,4.758-9.037,4.758-9.037l-1.577-.652Z" transform="translate(-76.477 -35.442)" opacity="0.2"/>
      <path id="Path_741" data-name="Path 741" d="M168.268,269.1c-1.234.721-2.569,1.5-3.831,2.3s-2.532,1.607-3.71,2.454-2.4,1.714-3.487,2.62a17.079,17.079,0,0,0-2.708,2.717c-.306.4-.445.789-.445.711h0v-.146h0a2.37,2.37,0,0,0,.167.526,9.9,9.9,0,0,0,.928,1.558c.4.555.844,1.12,1.326,1.675,1.92,2.211,4.174,4.4,6.381,6.515l-1.855,2.921a43.809,43.809,0,0,1-8.153-5.424,18.593,18.593,0,0,1-3.71-4.119,8.287,8.287,0,0,1-.807-1.675,6.724,6.724,0,0,1-.278-1.139,5.3,5.3,0,0,1-.065-.682v-.682a7.454,7.454,0,0,1,.529-2.142,10.456,10.456,0,0,1,.807-1.568,16.941,16.941,0,0,1,1.79-2.357c.612-.691,1.243-1.3,1.855-1.9a45.647,45.647,0,0,1,3.9-3.194c1.326-.974,2.662-1.9,4.044-2.746s2.727-1.675,4.211-2.464Z" transform="translate(-75.042 -35.341)" fill="#803e3c"/>
      <path id="Path_742" data-name="Path 742" d="M168.373,261.679c-4.174-.73-12.5,7.041-12.5,7.041l5.472,7.372a22.891,22.891,0,0,0,8.876-5.434C174.541,266.295,173.437,262.565,168.373,261.679Z" transform="translate(-75.611 -35.309)" fill="#407bff"/>
      <path id="Path_743" data-name="Path 743" d="M162.815,290l4.48-.058-2.337,5.424s-3.821-.837-3.6-3.019Z" transform="translate(-76.008 -36.05)" fill="#7f3e3b"/>
      <path id="Path_744" data-name="Path 744" d="M170.5,292.257l-2.133,4.392-3.126-1.3,2.337-5.424Z" transform="translate(-76.29 -36.05)" fill="#7f3e3b"/>
      <path id="Path_745" data-name="Path 745" d="M156.184,267.45l6.428,8.823-2.078.886-5.574-8.17Z" transform="translate(-75.545 -35.461)" fill="#407bff"/>
      <path id="Path_746" data-name="Path 746" d="M156.184,267.45l6.428,8.823-2.078.886-5.574-8.17Z" transform="translate(-75.545 -35.461)" fill="#fff" opacity="0.7"/>
      <path id="Path_747" data-name="Path 747" d="M177.617,248.935s1.6,0,1.206-2.834,4.118-4.869,4.118-4.869,6.975.088,6.641-3.759a7.166,7.166,0,0,0-2.708-4.869.455.455,0,0,0-.523-.065.5.5,0,0,0-.256.484c.056.575-.176,1.13-1.289,1.042-1.855-.136-2.662-1.4-4.452-2.006a.78.78,0,0,0-.806.208.877.877,0,0,0-.205.844,1.966,1.966,0,0,1,.046,1.468,1.841,1.841,0,0,1-.974,1.054,7.647,7.647,0,0,1-3.525.7.382.382,0,0,0-.367.271.411.411,0,0,0,.135.449,2.192,2.192,0,0,1,1.02,2.386c-.677,1.948-3.283,4.674-1.688,6.671A10.255,10.255,0,0,0,177.617,248.935Z" transform="translate(-76.888 -34.533)" fill="#263238"/>
      <path id="Path_748" data-name="Path 748" d="M180.527,240.49l.714,1.948a7.308,7.308,0,0,0-4.016,5.541l-.315-1.763a7.385,7.385,0,0,1,3.617-5.726Z" transform="translate(-77.136 -34.755)" fill="#407bff"/>
      <path id="Path_749" data-name="Path 749" d="M180.527,240.49l.714,1.948a7.308,7.308,0,0,0-4.016,5.541l-.315-1.763a7.385,7.385,0,0,1,3.617-5.726Z" transform="translate(-77.136 -34.755)" fill="#fff" opacity="0.5"/>
      <path id="Path_750" data-name="Path 750" d="M180.984,240.255l1.289-.769,1.252-.146,1.234.458.185.292-.074.935-.519,1.558-1.057.594-1.419-.195-.761-1.509-.2-.721Z" transform="translate(-77.426 -34.725)" fill="#263238"/>
      <path id="Path_751" data-name="Path 751" d="M186.264,239.645l1.3-.76,1.252-.156,1.224.467.186.292-.065.935-.519,1.558-1.067.594-1.41-.2-.761-1.5-.213-.73Z" transform="translate(-77.809 -34.709)" fill="#263238"/>
      <path id="Path_752" data-name="Path 752" d="M182.03,243l1.345.185,1.057-.594.519-1.558.074-.935-.185-.292-.464-.175Z" transform="translate(-77.507 -34.732)" fill="#fff" opacity="0.5"/>
      <path id="Path_753" data-name="Path 753" d="M187.32,242.39l1.336.195,1.067-.594.519-1.558.065-.935-.186-.292-.454-.175Z" transform="translate(-77.891 -34.716)" fill="#fff" opacity="0.5"/>
      <path id="Path_754" data-name="Path 754" d="M189.9,238.905a2.445,2.445,0,0,0-1.855-.526,6.391,6.391,0,0,0-2.31.886,1.561,1.561,0,0,1-.928.107,6.454,6.454,0,0,0-1.716-.4,3.422,3.422,0,0,0-2.449.974,1.435,1.435,0,0,0,0,1.139c.167.536.6,1.821,1.187,2.152a2.262,2.262,0,0,0,1.345.166,2.359,2.359,0,0,0,1.271-.477,4.328,4.328,0,0,0,.686-2.415.411.411,0,0,1,0-.107.4.4,0,0,1,.39-.049s0,.1,0,.136c.167.536.6,1.821,1.187,2.162a2.421,2.421,0,0,0,1.345.166,2.334,2.334,0,0,0,1.261-.487,4.246,4.246,0,0,0,.7-2.405v-.107a1.394,1.394,0,0,0-.111-.915Zm-5.407,1.5v.127a3.674,3.674,0,0,1-.445,1.831,2.284,2.284,0,0,1-1.855.224,3.877,3.877,0,0,1-.844-1.714c-.083-.282-.1-.409-.13-.409h0a2.99,2.99,0,0,1,1.966-.73,2.091,2.091,0,0,1,1.317.253,1.92,1.92,0,0,1-.009.419Zm4.916-.584v.136a3.664,3.664,0,0,1-.445,1.821,2.346,2.346,0,0,1-1.855.234,4.138,4.138,0,0,1-.835-1.714c-.093-.292-.1-.409-.13-.409h0a2.928,2.928,0,0,1,1.957-.73,2.072,2.072,0,0,1,1.326.243,2.042,2.042,0,0,1-.019.419Z" transform="translate(-77.398 -34.699)" fill="#407bff"/>
      <path id="Path_755" data-name="Path 755" d="M175.2,248.805a4.258,4.258,0,0,0,2.152,2.434c1.336.614,2.226-.584,2.041-2.025s-1.057-3.175-2.486-3.184a1.834,1.834,0,0,0-1.586.891A2.032,2.032,0,0,0,175.2,248.805Z" transform="translate(-76.999 -34.9)" fill="#7f3e3b"/>
      <path id="Path_756" data-name="Path 756" d="M202.288,390.571l-6.725-66.111H127.371l-6.725,66.111c-1.187,11.686,4.053,22.31,10.963,22.31h59.714C198.234,412.881,203.512,402.218,202.288,390.571Z" transform="translate(-73.046 -36.955)" fill="#263238"/>
      <path id="Path_757" data-name="Path 757" d="M202.288,390.571l-6.725-66.111H127.371l-6.725,66.111c-1.187,11.686,4.053,22.31,10.963,22.31h59.714C198.234,412.881,203.512,402.218,202.288,390.571Z" transform="translate(-73.046 -36.955)" fill="#fff" opacity="0.5"/>
      <path id="Path_758" data-name="Path 758" d="M202.29,390.571l-6.725-66.111h-.8l5.834,57.289c1.178,11.686-4.063,22.31-10.973,22.31H129.915c-4.007,0-7.42-3.584-9.405-8.871.39,9.738,5.12,17.694,11.13,17.694h59.714C198.237,412.881,203.514,402.218,202.29,390.571Z" transform="translate(-73.049 -36.955)" opacity="0.2"/>
      <rect id="Rectangle_685" data-name="Rectangle 685" width="78.589" height="7.43" rx="2.25" transform="translate(49.122 283.786)" fill="#407bff"/>
      <rect id="Rectangle_686" data-name="Rectangle 686" width="78.589" height="7.43" rx="2.25" transform="translate(49.122 283.786)" opacity="0.2"/>
      <path id="Path_759" data-name="Path 759" d="M127.825,336.471l2.078-3.291a1.471,1.471,0,0,0,.143-1.393,1.354,1.354,0,0,0-1.071-.837h-4.3a1.354,1.354,0,0,0-1.071.837,1.471,1.471,0,0,0,.143,1.393l2.078,3.291c-3.033,1.587-5.352,9.952-5.352,13.633,0,4.1,2.848,7.43,6.354,7.43s6.354-3.33,6.354-7.43C133.177,346.424,130.858,338.059,127.825,336.471Z" transform="translate(-73.046 -37.125)" fill="#407bff"/>
      <path id="Path_760" data-name="Path 760" d="M127.825,336.471l2.078-3.291a1.471,1.471,0,0,0,.143-1.393,1.354,1.354,0,0,0-1.071-.837h-4.3a1.354,1.354,0,0,0-1.071.837,1.471,1.471,0,0,0,.143,1.393l2.078,3.291c-3.033,1.587-5.352,9.952-5.352,13.633,0,4.1,2.848,7.43,6.354,7.43s6.354-3.33,6.354-7.43C133.177,346.424,130.858,338.059,127.825,336.471Z" transform="translate(-73.046 -37.125)" fill="#fff" opacity="0.7"/>
      <rect id="Rectangle_687" data-name="Rectangle 687" width="5.76" height="2.834" rx="0.86" transform="translate(50.903 298.149)" fill="#407bff"/>
      <path id="Path_761" data-name="Path 761" d="M206.44,336.379l1.762-3.515a1.452,1.452,0,0,0,.015-1.416,1.315,1.315,0,0,0-1.174-.7l-4.2.526a1.4,1.4,0,0,0-1.009.943,1.5,1.5,0,0,0,.249,1.394l2.356,3.019c-2.866,1.948-4.424,10.556-4.09,14.237.362,4.08,3.488,7.041,6.975,6.612s6.02-4.08,5.658-8.17C212.646,345.6,209.594,337.6,206.44,336.379Z" transform="translate(-78.831 -37.119)" fill="#407bff"/>
      <path id="Path_762" data-name="Path 762" d="M206.44,336.379l1.762-3.515a1.452,1.452,0,0,0,.015-1.416,1.315,1.315,0,0,0-1.174-.7l-4.2.526a1.4,1.4,0,0,0-1.009.943,1.5,1.5,0,0,0,.249,1.394l2.356,3.019c-2.866,1.948-4.424,10.556-4.09,14.237.362,4.08,3.488,7.041,6.975,6.612s6.02-4.08,5.658-8.17C212.646,345.6,209.594,337.6,206.44,336.379Z" transform="translate(-78.831 -37.119)" fill="#fff" opacity="0.4"/>
      <path id="Path_763" data-name="Path 763" d="M207.827,337.994l-4.137.506a.8.8,0,0,1-.637-.2.884.884,0,0,1-.29-.628l-.083-.974a.9.9,0,0,1,.714-1.022l4.137-.506a.793.793,0,0,1,.6.219.876.876,0,0,1,.268.608l.083.974a.9.9,0,0,1-.659,1.022Z" transform="translate(-79.003 -37.235)" fill="#407bff"/>
      <path id="Path_764" data-name="Path 764" d="M196.311,336.471l2.068-3.291a1.471,1.471,0,0,0,.143-1.393,1.354,1.354,0,0,0-1.071-.837h-4.22a1.354,1.354,0,0,0-1.071.837,1.471,1.471,0,0,0,.143,1.393l2.068,3.292c-3.033,1.587-5.343,9.952-5.343,13.633,0,4.1,2.838,7.43,6.344,7.43s6.354-3.33,6.354-7.43C201.654,346.424,199.335,338.059,196.311,336.471Z" transform="translate(-78.014 -37.125)" fill="#407bff"/>
      <path id="Path_765" data-name="Path 765" d="M196.311,336.471l2.068-3.291a1.471,1.471,0,0,0,.143-1.393,1.354,1.354,0,0,0-1.071-.837h-4.22a1.354,1.354,0,0,0-1.071.837,1.471,1.471,0,0,0,.143,1.393l2.068,3.292c-3.033,1.587-5.343,9.952-5.343,13.633,0,4.1,2.838,7.43,6.344,7.43s6.354-3.33,6.354-7.43C201.654,346.424,199.335,338.059,196.311,336.471Z" transform="translate(-78.014 -37.125)" fill="#fff" opacity="0.7"/>
      <rect id="Rectangle_688" data-name="Rectangle 688" width="5.76" height="2.834" rx="0.86" transform="translate(114.41 298.149)" fill="#407bff"/>
    </g>
  </g>
</svg>
