<svg id="Logistics-rafiki" xmlns="http://www.w3.org/2000/svg" xmlns:xlink="http://www.w3.org/1999/xlink" width="373.182" height="256.043" viewBox="0 0 373.182 256.043">
  <defs>
    <clipPath id="clip-path">
      <path id="Path_359" data-name="Path 359" d="M275.354,348.9h11.32c5.926,0,10.654,8.194,10.654,18.373s-4.794,18.309-10.654,18.309h-11.32c-5.926,0-10.654-8.194-10.654-18.309S269.494,348.9,275.354,348.9Z" transform="translate(-264.7 -348.9)"/>
    </clipPath>
  </defs>
  <g id="freepik--background-complete--inject-58" transform="translate(0 0)">
    <rect id="Rectangle_235" data-name="Rectangle 235" width="332.937" height="0.128" transform="translate(0 209.593)" fill="#ebebeb"/>
    <rect id="Rectangle_236" data-name="Rectangle 236" width="15.448" height="0.128" transform="translate(217.607 213.69)" fill="#ebebeb"/>
    <rect id="Rectangle_237" data-name="Rectangle 237" width="37.755" height="0.128" transform="translate(27.434 217.083)" fill="#ebebeb"/>
    <rect id="Rectangle_238" data-name="Rectangle 238" width="37.755" height="0.128" transform="translate(266.749 217.083)" fill="#ebebeb"/>
    <path id="Path_351" data-name="Path 351" d="M42,236.042h128.58a3.765,3.765,0,0,0,3.8-3.649V58.649a3.765,3.765,0,0,0-3.8-3.649H42a3.722,3.722,0,0,0-3.8,3.649h0V232.393A3.722,3.722,0,0,0,42,236.042ZM170.576,55.128a3.584,3.584,0,0,1,3.662,3.521V232.393a3.583,3.583,0,0,1-3.662,3.521H42a3.626,3.626,0,0,1-3.662-3.521V58.649A3.624,3.624,0,0,1,42,55.128Z" transform="translate(133.129 -55)" fill="#ebebeb"/>
    <path id="Path_352" data-name="Path 352" d="M258.3,236.042h128.58a3.765,3.765,0,0,0,3.8-3.649V58.649a3.765,3.765,0,0,0-3.8-3.649H258.3a3.723,3.723,0,0,0-3.8,3.649V232.393a3.722,3.722,0,0,0,3.8,3.649ZM386.876,55.128a3.626,3.626,0,0,1,3.662,3.521V232.393a3.624,3.624,0,0,1-3.662,3.521H258.3a3.626,3.626,0,0,1-3.662-3.521V58.649a3.624,3.624,0,0,1,3.662-3.521Z" transform="translate(-227.199 -55)" fill="#ebebeb"/>
    <path id="Path_353" data-name="Path 353" d="M152.129,130.4H96.662a4.169,4.169,0,0,0-4.262,4.1h0V291.6h63.924V134.5A4.152,4.152,0,0,0,152.129,130.4Z" transform="translate(115.086 -82.131)" fill="#f5f5f5"/>
    <rect id="Rectangle_239" data-name="Rectangle 239" width="8.257" height="17.669" transform="translate(257.893 57.808)" fill="#ebebeb"/>
    <rect id="Rectangle_240" data-name="Rectangle 240" width="8.257" height="17.669" transform="translate(212.813 57.808)" fill="#ebebeb"/>
    <rect id="Rectangle_241" data-name="Rectangle 241" width="8.257" height="17.669" transform="translate(242.844 57.808)" fill="#ebebeb"/>
    <rect id="Rectangle_242" data-name="Rectangle 242" width="8.257" height="17.669" transform="translate(227.862 57.808)" fill="#ebebeb"/>
    <rect id="Rectangle_243" data-name="Rectangle 243" width="8.257" height="17.669" transform="translate(257.893 85.655)" fill="#ebebeb"/>
    <rect id="Rectangle_244" data-name="Rectangle 244" width="8.257" height="17.669" transform="translate(212.813 85.655)" fill="#ebebeb"/>
    <rect id="Rectangle_245" data-name="Rectangle 245" width="8.257" height="17.669" transform="translate(242.844 85.655)" fill="#ebebeb"/>
    <rect id="Rectangle_246" data-name="Rectangle 246" width="8.257" height="17.669" transform="translate(227.862 85.655)" fill="#ebebeb"/>
    <rect id="Rectangle_247" data-name="Rectangle 247" width="8.257" height="17.669" transform="translate(257.893 113.503)" fill="#ebebeb"/>
    <rect id="Rectangle_248" data-name="Rectangle 248" width="8.257" height="17.669" transform="translate(212.813 113.503)" fill="#ebebeb"/>
    <rect id="Rectangle_249" data-name="Rectangle 249" width="8.257" height="17.669" transform="translate(242.844 113.503)" fill="#ebebeb"/>
    <rect id="Rectangle_250" data-name="Rectangle 250" width="8.257" height="17.669" transform="translate(227.862 113.503)" fill="#ebebeb"/>
    <rect id="Rectangle_251" data-name="Rectangle 251" width="8.257" height="17.669" transform="translate(257.893 141.351)" fill="#ebebeb"/>
    <rect id="Rectangle_252" data-name="Rectangle 252" width="8.257" height="17.669" transform="translate(212.813 141.351)" fill="#ebebeb"/>
    <rect id="Rectangle_253" data-name="Rectangle 253" width="8.257" height="17.669" transform="translate(242.844 141.351)" fill="#ebebeb"/>
    <rect id="Rectangle_254" data-name="Rectangle 254" width="8.257" height="17.669" transform="translate(227.862 141.351)" fill="#ebebeb"/>
    <rect id="Rectangle_255" data-name="Rectangle 255" width="8.257" height="17.669" transform="translate(257.893 169.198)" fill="#ebebeb"/>
    <rect id="Rectangle_256" data-name="Rectangle 256" width="8.257" height="17.669" transform="translate(212.813 169.198)" fill="#ebebeb"/>
    <rect id="Rectangle_257" data-name="Rectangle 257" width="8.257" height="17.669" transform="translate(242.844 169.198)" fill="#ebebeb"/>
    <rect id="Rectangle_258" data-name="Rectangle 258" width="8.257" height="17.669" transform="translate(227.862 169.198)" fill="#ebebeb"/>
    <path id="Path_354" data-name="Path 354" d="M431.849,153.3H392.163a3.374,3.374,0,0,0-3.463,3.329V299.836h46.611V156.629A3.46,3.46,0,0,0,431.849,153.3Z" transform="translate(-361.199 -90.371)" fill="#f5f5f5"/>
    <rect id="Rectangle_259" data-name="Rectangle 259" width="7.458" height="16.068" transform="translate(60.661 71.572)" fill="#ebebeb"/>
    <rect id="Rectangle_260" data-name="Rectangle 260" width="7.458" height="16.068" transform="translate(47.011 71.572)" fill="#ebebeb"/>
    <rect id="Rectangle_261" data-name="Rectangle 261" width="7.458" height="16.068" transform="translate(33.36 71.572)" fill="#ebebeb"/>
    <rect id="Rectangle_262" data-name="Rectangle 262" width="7.458" height="16.068" transform="translate(60.661 96.923)" fill="#ebebeb"/>
    <rect id="Rectangle_263" data-name="Rectangle 263" width="7.458" height="16.068" transform="translate(47.011 96.923)" fill="#ebebeb"/>
    <rect id="Rectangle_264" data-name="Rectangle 264" width="7.458" height="16.068" transform="translate(33.36 96.923)" fill="#ebebeb"/>
    <rect id="Rectangle_265" data-name="Rectangle 265" width="7.458" height="16.068" transform="translate(60.661 122.209)" fill="#ebebeb"/>
    <rect id="Rectangle_266" data-name="Rectangle 266" width="7.458" height="16.068" transform="translate(47.011 122.209)" fill="#ebebeb"/>
    <rect id="Rectangle_267" data-name="Rectangle 267" width="7.458" height="16.068" transform="translate(33.36 122.209)" fill="#ebebeb"/>
    <rect id="Rectangle_268" data-name="Rectangle 268" width="7.458" height="16.004" transform="translate(60.661 147.56)" fill="#ebebeb"/>
    <rect id="Rectangle_269" data-name="Rectangle 269" width="7.458" height="16.004" transform="translate(47.011 147.56)" fill="#ebebeb"/>
    <rect id="Rectangle_270" data-name="Rectangle 270" width="7.458" height="16.004" transform="translate(33.36 147.56)" fill="#ebebeb"/>
    <rect id="Rectangle_271" data-name="Rectangle 271" width="7.458" height="16.004" transform="translate(60.661 172.847)" fill="#ebebeb"/>
    <rect id="Rectangle_272" data-name="Rectangle 272" width="7.458" height="16.004" transform="translate(47.011 172.847)" fill="#ebebeb"/>
    <rect id="Rectangle_273" data-name="Rectangle 273" width="7.458" height="16.004" transform="translate(33.36 172.847)" fill="#ebebeb"/>
    <path id="Path_355" data-name="Path 355" d="M319.351,89.3H254.827a4.824,4.824,0,0,0-4.927,4.737h0v182.77h74.378V94.037A4.824,4.824,0,0,0,319.351,89.3Z" transform="translate(-157.743 -67.342)" fill="#f5f5f5"/>
    <rect id="Rectangle_274" data-name="Rectangle 274" width="9.589" height="20.55" transform="translate(150.754 33.033)" fill="#ebebeb"/>
    <rect id="Rectangle_275" data-name="Rectangle 275" width="9.589" height="20.55" transform="translate(98.349 33.033)" fill="#ebebeb"/>
    <rect id="Rectangle_276" data-name="Rectangle 276" width="9.589" height="20.55" transform="translate(133.308 33.033)" fill="#ebebeb"/>
    <rect id="Rectangle_277" data-name="Rectangle 277" width="9.589" height="20.55" transform="translate(115.795 33.033)" fill="#ebebeb"/>
    <rect id="Rectangle_278" data-name="Rectangle 278" width="9.589" height="20.55" transform="translate(150.754 65.426)" fill="#ebebeb"/>
    <rect id="Rectangle_279" data-name="Rectangle 279" width="9.589" height="20.55" transform="translate(98.349 65.426)" fill="#ebebeb"/>
    <rect id="Rectangle_280" data-name="Rectangle 280" width="9.589" height="20.55" transform="translate(133.308 65.426)" fill="#ebebeb"/>
    <rect id="Rectangle_281" data-name="Rectangle 281" width="9.589" height="20.55" transform="translate(115.795 65.426)" fill="#ebebeb"/>
    <rect id="Rectangle_282" data-name="Rectangle 282" width="9.589" height="20.55" transform="translate(150.754 97.819)" fill="#ebebeb"/>
    <rect id="Rectangle_283" data-name="Rectangle 283" width="9.589" height="20.55" transform="translate(98.349 97.819)" fill="#ebebeb"/>
    <rect id="Rectangle_284" data-name="Rectangle 284" width="9.589" height="20.55" transform="translate(133.308 97.819)" fill="#ebebeb"/>
    <rect id="Rectangle_285" data-name="Rectangle 285" width="9.589" height="20.55" transform="translate(115.795 97.819)" fill="#ebebeb"/>
    <rect id="Rectangle_286" data-name="Rectangle 286" width="9.589" height="20.55" transform="translate(150.754 130.212)" fill="#ebebeb"/>
    <rect id="Rectangle_287" data-name="Rectangle 287" width="9.589" height="20.55" transform="translate(98.349 130.212)" fill="#ebebeb"/>
    <rect id="Rectangle_288" data-name="Rectangle 288" width="9.589" height="20.55" transform="translate(133.308 130.212)" fill="#ebebeb"/>
    <rect id="Rectangle_289" data-name="Rectangle 289" width="9.589" height="20.55" transform="translate(115.795 130.212)" fill="#ebebeb"/>
    <rect id="Rectangle_290" data-name="Rectangle 290" width="9.589" height="20.55" transform="translate(150.754 162.604)" fill="#ebebeb"/>
    <rect id="Rectangle_291" data-name="Rectangle 291" width="9.589" height="20.55" transform="translate(98.349 162.604)" fill="#ebebeb"/>
    <rect id="Rectangle_292" data-name="Rectangle 292" width="9.589" height="20.55" transform="translate(133.308 162.604)" fill="#ebebeb"/>
    <rect id="Rectangle_293" data-name="Rectangle 293" width="9.589" height="20.55" transform="translate(115.795 162.604)" fill="#ebebeb"/>
    <rect id="Rectangle_294" data-name="Rectangle 294" width="40.951" height="120.353" transform="translate(166.535 89.112)" fill="#e6e6e6"/>
    <rect id="Rectangle_295" data-name="Rectangle 295" width="18.112" height="107.485" transform="translate(74.045 101.98)" fill="#e6e6e6"/>
    <path id="Path_356" data-name="Path 356" d="M38.5,347.4H74.324V297.151L38.5,285.5Z" transform="translate(232.976 -137.94)" fill="#e6e6e6"/>
  </g>
  <g id="freepik--Shadow--inject-58" transform="translate(37.355 218.172)">
    <g id="freepik--Shadow--inject-62--inject-58">
      <ellipse id="freepik--path--inject-62--inject-58" cx="129.113" cy="10.179" rx="129.113" ry="10.179" fill="#f5f5f5"/>
    </g>
  </g>
  <g id="freepik--Truck--inject-58" transform="translate(39.486 70.227)">
    <path id="Path_357" data-name="Path 357" d="M275.354,348.9h11.32c5.926,0,10.654,8.194,10.654,18.373s-4.794,18.309-10.654,18.309h-11.32c-5.926,0-10.654-8.194-10.654-18.309S269.494,348.9,275.354,348.9Z" transform="translate(-180.134 -230.98)" fill="#263238"/>
    <g id="Group_35" data-name="Group 35" transform="translate(84.566 117.92)">
      <g id="Group_34" data-name="Group 34" clip-path="url(#clip-path)">
        <path id="Path_358" data-name="Path 358" d="M295.354,348.9h11.32c5.926,0,10.654,8.194,10.654,18.373s-4.794,18.309-10.654,18.309h-11.32c-5.926,0-10.654-8.194-10.654-18.309S289.494,348.9,295.354,348.9Z" transform="translate(-298.017 -348.9)" fill="#fff" opacity="0.05"/>
      </g>
    </g>
    <path id="Path_360" data-name="Path 360" d="M137.7,286.589l198.23-.128V164.7H137.7Z" transform="translate(-134.171 -164.7)" fill="#407bff"/>
    <rect id="Rectangle_296" data-name="Rectangle 296" width="134.373" height="121.825" transform="translate(3.529)" fill="#263238" opacity="0.3"/>
    <rect id="Rectangle_297" data-name="Rectangle 297" width="63.857" height="124.258" transform="translate(137.902)" fill="#fff" opacity="0.2"/>
    <line id="Line_24" data-name="Line 24" x1="197.764" transform="translate(3.529 5.634)" fill="none" stroke="#fff" stroke-linecap="round" stroke-linejoin="round" stroke-width="2" opacity="0.1"/>
    <line id="Line_25" data-name="Line 25" x1="197.764" transform="translate(3.529 10.947)" fill="none" stroke="#fff" stroke-linecap="round" stroke-linejoin="round" stroke-width="2" opacity="0.1"/>
    <line id="Line_26" data-name="Line 26" x1="197.764" transform="translate(3.529 16.196)" fill="none" stroke="#fff" stroke-linecap="round" stroke-linejoin="round" stroke-width="2" opacity="0.1"/>
    <line id="Line_27" data-name="Line 27" x1="197.764" transform="translate(3.529 21.446)" fill="none" stroke="#fff" stroke-linecap="round" stroke-linejoin="round" stroke-width="2" opacity="0.1"/>
    <line id="Line_28" data-name="Line 28" x1="197.764" transform="translate(3.529 26.695)" fill="none" stroke="#fff" stroke-linecap="round" stroke-linejoin="round" stroke-width="2" opacity="0.1"/>
    <line id="Line_29" data-name="Line 29" x1="197.764" transform="translate(3.529 32.009)" fill="none" stroke="#fff" stroke-linecap="round" stroke-linejoin="round" stroke-width="2" opacity="0.1"/>
    <line id="Line_30" data-name="Line 30" x1="197.764" transform="translate(3.529 37.258)" fill="none" stroke="#fff" stroke-linecap="round" stroke-linejoin="round" stroke-width="2" opacity="0.1"/>
    <line id="Line_31" data-name="Line 31" x1="197.764" transform="translate(3.529 42.508)" fill="none" stroke="#fff" stroke-linecap="round" stroke-linejoin="round" stroke-width="2" opacity="0.1"/>
    <line id="Line_32" data-name="Line 32" x1="197.764" transform="translate(3.529 47.757)" fill="none" stroke="#fff" stroke-linecap="round" stroke-linejoin="round" stroke-width="2" opacity="0.1"/>
    <line id="Line_33" data-name="Line 33" x1="197.764" transform="translate(3.529 53.071)" fill="none" stroke="#fff" stroke-linecap="round" stroke-linejoin="round" stroke-width="2" opacity="0.1"/>
    <line id="Line_34" data-name="Line 34" x1="197.764" transform="translate(3.529 58.32)" fill="none" stroke="#fff" stroke-linecap="round" stroke-linejoin="round" stroke-width="2" opacity="0.1"/>
    <line id="Line_35" data-name="Line 35" x1="197.764" transform="translate(3.529 63.569)" fill="none" stroke="#fff" stroke-linecap="round" stroke-linejoin="round" stroke-width="2" opacity="0.1"/>
    <line id="Line_36" data-name="Line 36" x1="197.764" transform="translate(3.529 68.819)" fill="none" stroke="#fff" stroke-linecap="round" stroke-linejoin="round" stroke-width="2" opacity="0.1"/>
    <line id="Line_37" data-name="Line 37" x1="197.764" transform="translate(3.529 74.068)" fill="none" stroke="#fff" stroke-linecap="round" stroke-linejoin="round" stroke-width="2" opacity="0.1"/>
    <line id="Line_38" data-name="Line 38" x1="197.764" transform="translate(3.529 79.382)" fill="none" stroke="#fff" stroke-linecap="round" stroke-linejoin="round" stroke-width="2" opacity="0.1"/>
    <line id="Line_39" data-name="Line 39" x1="197.764" transform="translate(3.529 84.631)" fill="none" stroke="#fff" stroke-linecap="round" stroke-linejoin="round" stroke-width="2" opacity="0.1"/>
    <line id="Line_40" data-name="Line 40" x1="197.764" transform="translate(3.529 89.881)" fill="none" stroke="#fff" stroke-linecap="round" stroke-linejoin="round" stroke-width="2" opacity="0.1"/>
    <line id="Line_41" data-name="Line 41" x1="197.764" transform="translate(3.529 95.13)" fill="none" stroke="#fff" stroke-linecap="round" stroke-linejoin="round" stroke-width="2" opacity="0.1"/>
    <line id="Line_42" data-name="Line 42" x1="197.764" transform="translate(3.529 100.443)" fill="none" stroke="#fff" stroke-linecap="round" stroke-linejoin="round" stroke-width="2" opacity="0.1"/>
    <line id="Line_43" data-name="Line 43" x1="197.764" transform="translate(3.529 105.693)" fill="none" stroke="#fff" stroke-linecap="round" stroke-linejoin="round" stroke-width="2" opacity="0.1"/>
    <line id="Line_44" data-name="Line 44" x1="197.764" transform="translate(3.529 110.942)" fill="none" stroke="#fff" stroke-linecap="round" stroke-linejoin="round" stroke-width="2" opacity="0.1"/>
    <line id="Line_45" data-name="Line 45" x1="197.764" transform="translate(3.529 116.192)" fill="none" stroke="#fff" stroke-linecap="round" stroke-linejoin="round" stroke-width="2" opacity="0.1"/>
    <path id="Path_361" data-name="Path 361" d="M62.288,352.7H72.809c5.46,0,9.855,7.618,9.855,16.965s-4.395,16.965-9.855,16.965H62.355c-5.46,0-9.855-7.618-9.855-16.965S56.828,352.7,62.288,352.7Z" transform="translate(175.828 -232.347)" fill="#263238"/>
    <path id="Path_362" data-name="Path 362" d="M82.288,352.7H92.809c5.46,0,9.855,7.618,9.855,16.965s-4.395,16.965-9.855,16.965H82.355c-5.46,0-9.855-7.618-9.855-16.965S76.828,352.7,82.288,352.7Z" transform="translate(142.51 -232.347)" fill="#fff" opacity="0.05"/>
    <path id="Path_363" data-name="Path 363" d="M67.862,289.753H72.79a2.025,2.025,0,0,0,1.8-2.241v-.384l-1.332-14.4a2.689,2.689,0,0,0-2.264-2.625H66a2.071,2.071,0,0,0-1.8,2.241v.384l1.332,14.4C65.732,288.6,66.73,289.753,67.862,289.753Z" transform="translate(176.114 -202.626)" fill="#263238"/>
    <path id="Path_364" data-name="Path 364" d="M161.821,221.238l9.589,49.55L67.4,309.966l.732-97.627,22.906-.64h62.592C157.426,211.636,160.755,215.541,161.821,221.238Z" transform="translate(77.161 -181.611)" fill="#407bff"/>
    <path id="Path_365" data-name="Path 365" d="M166.846,239.1c3.862-.192,7.391,2.881,8.523,7.426l7.857,31.689h15.182l.8,41.8H149.4" transform="translate(-5.238 -191.466)" fill="#407bff"/>
    <path id="Path_366" data-name="Path 366" d="M142.425,274.438c1.532,0,2.73-1.856,2.73-4.225a7.551,7.551,0,0,0-.133-1.216L139.3,239.932c-.466-2.433-1.931-4.1-3.6-4.033H80.965c-.6,0-1.065.7-1.065,1.664a1.358,1.358,0,0,0,.067.512c1.2,6.018,5.061,25.863,6.592,33.417.333,1.792,1.4,3.009,2.663,3.009h53.2Z" transform="translate(95.091 -190.319)" fill="#263238"/>
    <path id="Path_367" data-name="Path 367" d="M36.8,311.81a11.963,11.963,0,0,0,.133,1.536L37.2,315.2l.133,1.088,1.2,8.066,2,13.124.533,3.649h77.508v-3.649l-.067-13.124-.067-7.874v-3.2c.666-4.225-1.465-8.322-4.661-9.155a3.827,3.827,0,0,0-1.2-.128H42.726C39.463,304,36.8,307.521,36.8,311.81Z" transform="translate(150.377 -214.824)" fill="#407bff"/>
    <path id="Path_368" data-name="Path 368" d="M183.5,239.7v31.177c0,1.921,1,3.457,2.264,3.457h18.911c1.265,0,2.264-1.536,2.264-3.457a3.788,3.788,0,0,0-.067-.9l-5.86-31.881c-.266-1.536-1.2-2.561-2.264-2.5l-13.118.7C184.432,236.367,183.5,237.839,183.5,239.7Z" transform="translate(-35.676 -190.21)" fill="#263238"/>
    <path id="Path_369" data-name="Path 369" d="M98.2,235.9h10.454l11.986,38.539H110.186Z" transform="translate(107.422 -190.32)" fill="#fff" opacity="0.1"/>
    <path id="Path_370" data-name="Path 370" d="M118.6,235.9h4.994l12.052,38.539h-4.994Z" transform="translate(78.831 -190.32)" fill="#fff" opacity="0.1"/>
    <path id="Path_371" data-name="Path 371" d="M36.8,335.9v13.124H138.679l-.067-13.124Z" transform="translate(130.268 -226.302)"/>
    <path id="Path_372" data-name="Path 372" d="M143.15,335.9h9.389l16.913,9.539v3.585H128.9V335.9Z" transform="translate(38.168 -226.302)" fill="#fff"/>
    <path id="Path_373" data-name="Path 373" d="M36.8,345.439v3.585H54.379L54.312,335.9h-.6Z" transform="translate(214.567 -226.302)" fill="#fff"/>
    <path id="Path_374" data-name="Path 374" d="M156.4,310.219l.8-97.883,13.983-.64c3.463-.192,7.524,3.713,8.523,8.258l10.121,50.83h3.929c4.461,0,7.458,3.137,7.458,6.4l-.067,33.033H156.4" transform="translate(-11.906 -181.608)" fill="#263238" opacity="0.3"/>
    <path id="Path_375" data-name="Path 375" d="M37,321.732a.877.877,0,0,0,.333.64,1.011,1.011,0,0,0,.6.256H118.37V320.9h-80.5a.772.772,0,0,0-.732.384A.593.593,0,0,0,37,321.732Z" transform="translate(150.443 -220.905)" fill="#fff"/>
    <path id="Path_376" data-name="Path 376" d="M37,320.9v1.728H51.183V320.9Z" transform="translate(217.63 -220.905)" fill="#263238"/>
    <path id="Path_377" data-name="Path 377" d="M128.5,321.732a.877.877,0,0,0,.333.64,1.011,1.011,0,0,0,.6.256h19.51V320.9h-19.51a.772.772,0,0,0-.732.384A.468.468,0,0,0,128.5,321.732Z" transform="translate(58.943 -220.905)" fill="#263238"/>
    <path id="Path_378" data-name="Path 378" d="M33.5,358.2v.32a3.235,3.235,0,0,0,3.329,3.2H301.314a3.235,3.235,0,0,0,3.329-3.2v-.32a3.235,3.235,0,0,0-3.329-3.2H36.829A3.235,3.235,0,0,0,33.5,358.2Z" transform="translate(-33.5 -233.175)" fill="#263238"/>
    <rect id="Rectangle_298" data-name="Rectangle 298" width="39.42" height="1.857" transform="translate(209.151 124.45)"/>
    <path id="Path_379" data-name="Path 379" d="M48.4,359.888a1.1,1.1,0,0,0,2.2-.064,1.032,1.032,0,0,0-1.065-1.024,1.194,1.194,0,0,0-1.132,1.088Z" transform="translate(210.625 -234.542)" fill="#fff"/>
    <path id="Path_380" data-name="Path 380" d="M137.5,359.924a1.032,1.032,0,0,0,1.065,1.024,1.092,1.092,0,0,0,1.132-1.024,1.032,1.032,0,0,0-1.065-1.024h0A1.092,1.092,0,0,0,137.5,359.924Z" transform="translate(62.195 -234.578)" fill="#fff"/>
    <path id="Path_381" data-name="Path 381" d="M182.221,366.537c0-10.179-4.794-18.437-10.721-18.437h11.386c5.926,0,10.721,8.258,10.721,18.437s-4.794,18.437-10.721,18.437H171.5C177.426,385.038,182.221,376.78,182.221,366.537Z" transform="translate(-14.354 -230.692)"/>
    <path id="Path_382" data-name="Path 382" d="M182.221,366.537c0-10.179-4.794-18.437-10.721-18.437h11.386c5.926,0,10.721,8.258,10.721,18.437s-4.794,18.437-10.721,18.437H171.5C177.426,385.038,182.221,376.78,182.221,366.537Z" transform="translate(-14.354 -230.692)" fill="#263238" opacity="0.7"/>
    <ellipse id="Ellipse_11" data-name="Ellipse 11" cx="10.721" cy="18.437" rx="10.721" ry="18.437" transform="translate(146.425 117.472)" fill="#263238"/>
    <ellipse id="Ellipse_12" data-name="Ellipse 12" cx="7.591" cy="14.404" rx="7.591" ry="14.404" transform="translate(148.689 121.505)" fill="#fff"/>
    <ellipse id="Ellipse_13" data-name="Ellipse 13" cx="7.258" cy="12.419" rx="7.258" ry="12.419" transform="translate(149.755 123.49)" fill="#263238"/>
    <ellipse id="Ellipse_14" data-name="Ellipse 14" cx="5.327" cy="9.09" rx="5.327" ry="9.09" transform="translate(153.217 126.819)"/>
    <path id="Path_383" data-name="Path 383" d="M233.6,358.2v.32a3.235,3.235,0,0,0,3.329,3.2H371.5V355H236.929A3.235,3.235,0,0,0,233.6,358.2Z" transform="translate(-233.6 -233.175)" opacity="0.5"/>
    <path id="Path_384" data-name="Path 384" d="M371.521,366.537c0-10.179-4.794-18.437-10.721-18.437h11.386c5.926,0,10.721,8.258,10.721,18.437s-4.794,18.437-10.721,18.437H360.8C366.726,385.038,371.521,376.78,371.521,366.537Z" transform="translate(-329.704 -230.692)"/>
    <path id="Path_385" data-name="Path 385" d="M371.521,366.537c0-10.179-4.794-18.437-10.721-18.437h11.386c5.926,0,10.721,8.258,10.721,18.437s-4.794,18.437-10.721,18.437H360.8C366.726,385.038,371.521,376.78,371.521,366.537Z" transform="translate(-329.704 -230.692)" fill="#263238" opacity="0.7"/>
    <ellipse id="Ellipse_15" data-name="Ellipse 15" cx="10.721" cy="18.437" rx="10.721" ry="18.437" transform="translate(20.376 117.472)" fill="#263238"/>
    <ellipse id="Ellipse_16" data-name="Ellipse 16" cx="7.591" cy="14.404" rx="7.591" ry="14.404" transform="translate(22.64 121.505)" fill="#fff"/>
    <ellipse id="Ellipse_17" data-name="Ellipse 17" cx="7.258" cy="12.419" rx="7.258" ry="12.419" transform="translate(23.639 123.49)" fill="#263238"/>
    <ellipse id="Ellipse_18" data-name="Ellipse 18" cx="5.327" cy="9.09" rx="5.327" ry="9.09" transform="translate(27.168 126.819)"/>
  </g>
  <g id="freepik--Character--inject-58" transform="translate(308.183 133.181)">
    <path id="Path_386" data-name="Path 386" d="M402,301.406a53.283,53.283,0,0,1-.589,5.872,28.117,28.117,0,0,1-1.391,5.924,15.609,15.609,0,0,1-.749,1.648,6.873,6.873,0,0,1-.749.979l-.161.155-.107.052-.053.052-.161.1-.375.258a20.857,20.857,0,0,1-2.836,1.442A33.272,33.272,0,0,1,389,319.744l-.7-1.854c1.712-.927,3.425-1.854,5.03-2.782.8-.464,1.5-.979,2.247-1.494l.214-.206.107-.1h0a.558.558,0,0,0,.107-.206,5.914,5.914,0,0,0,.375-1.03,20.108,20.108,0,0,0,.589-2.576c.161-.876.321-1.8.428-2.73.214-1.854.428-3.709.535-5.563Z" transform="translate(-381.023 -274.723)" fill="#ce7a63"/>
    <path id="Path_387" data-name="Path 387" d="M387.864,332.679,384.6,331.7l.589,3.812a6.153,6.153,0,0,0,3.211-1.391Z" transform="translate(-379.303 -289.513)" fill="#ce7a63"/>
    <path id="Path_388" data-name="Path 388" d="M377.025,334.221l.161.515a1.448,1.448,0,0,0,1.445.927l1.659-.052-.642-3.812-1.819.721A1.284,1.284,0,0,0,377.025,334.221Z" transform="translate(-375.74 -289.561)" fill="#ce7a63"/>
    <path id="Path_389" data-name="Path 389" d="M413.554,291.54a24.016,24.016,0,0,1-1.124,5.306c-.375,1.288-.7,2.266-.7,2.266l-.749-.206-6.207-1.494c-.107-3.091,0-6.439,3.211-8.5C409.969,287.677,413.554,289.428,413.554,291.54Z" transform="translate(-388.673 -268.566)" fill="#263238"/>
    <path id="Path_390" data-name="Path 390" d="M415.11,294.5c-.428-.412-1.338-.464-3.318.1-2.889.876-3.692,3.915-3.692,5.975l4.495,1.082.375.1.375.1s.161-.464.375-1.236h0c.107-.309.214-.67.321-1.03A32.035,32.035,0,0,0,415.11,294.5Z" transform="translate(-390.228 -271.323)" opacity="0.3"/>
    <path id="Path_391" data-name="Path 391" d="M394.1,472.469l-3.8-1.288,2.354-7.881,3.8,1.236Z" transform="translate(-381.953 -353.324)" fill="#ce7a63"/>
    <path id="Path_392" data-name="Path 392" d="M483.918,457.081l-3.1,2.215-6.314-6.181,3.1-2.215Z" transform="translate(-421.098 -347.311)" fill="#ce7a63"/>
    <path id="Path_393" data-name="Path 393" d="M481.39,462.854l3.318-2.627a.333.333,0,0,1,.428,0l2.568,2.215a.523.523,0,0,1,0,.824h0l-.054.052c-1.177.927-1.819,1.288-3.264,2.473-.91.721-2.782,2.421-4.013,3.4s-2.354-.154-1.873-.67a10.1,10.1,0,0,0,2.568-5.1A.705.705,0,0,1,481.39,462.854Z" transform="translate(-422.905 -351.797)" fill="#263238"/>
    <path id="Path_394" data-name="Path 394" d="M383.115,476.32l4.227,1.7a.292.292,0,0,1,.214.361l-.482,3.606a.55.55,0,0,1-.642.464.2.2,0,0,1-.161-.052c-1.5-.567-2.194-.876-4.067-1.6l-5.672-2.318c-1.552-.618-1.231-2.266-.535-2.112,3.1.567,5.137.361,6.368-.1A1.219,1.219,0,0,1,383.115,476.32Z" transform="translate(-375.035 -359.596)" fill="#263238"/>
    <path id="Path_395" data-name="Path 395" d="M393.631,463.3l-1.231,4.069,3.692,1.6,1.338-4.43Z" transform="translate(-382.929 -353.324)" opacity="0.2"/>
    <path id="Path_396" data-name="Path 396" d="M477.6,450.9l-3.1,2.215,3.264,3.194,3.1-2.215Z" transform="translate(-421.098 -347.311)" opacity="0.2"/>
    <path id="Path_397" data-name="Path 397" d="M427.1,309.971l-15.625.206c-2.14-11.642-2.675-17.2-2.675-19.883a2.9,2.9,0,0,1,2.408-2.833c.963-.206,2.14-.412,3.318-.567.428-.052.8-.1,1.231-.155a54.569,54.569,0,0,1,7.117-.1c.375,0,.7.052,1.07.052,1.605.1,3.05.309,4.12.464a1.339,1.339,0,0,1,1.177,1.6v.052c-.482,2.06-.856,3.863-1.124,5.512-.482,2.576-.8,4.687-.963,6.49A58.32,58.32,0,0,0,427.1,309.971Z" transform="translate(-390.553 -267.629)" fill="#263238"/>
    <path id="Path_398" data-name="Path 398" d="M442.6,306.3c-.8-2.266-.749-7.005.107-8.5l.856,2.009C443.086,302.384,442.765,304.5,442.6,306.3Z" transform="translate(-406.005 -273.075)" opacity="0.1"/>
    <path id="Path_399" data-name="Path 399" d="M403.525,332.255s-2.675,21.892-5.083,35.543c-1.926,10.663-6.742,32.915-6.742,32.915l6.261,2.112s7.17-23.18,8.454-33.07c5.083-14.269,8.668-37.655,8.668-37.655Z" transform="translate(-382.603 -289.706)" fill="#407bff"/>
    <path id="Path_400" data-name="Path 400" d="M389.8,465.679l7.277,2.473.963-2.266L390.175,463Z" transform="translate(-381.72 -353.179)" fill="#263238"/>
    <path id="Path_401" data-name="Path 401" d="M426.1,344.709l-2.354,4.327c-.856,3.245-.642,11.178.428,16.174,1.926-7.521,3.478-15.5,4.495-20.81Z" transform="translate(-397.254 -295.671)" opacity="0.1"/>
    <path id="Path_402" data-name="Path 402" d="M420.1,332.158s2.783,24.519,8.026,38.118c2.622,6.8,22.046,27.043,22.046,27.043l4.388-3.4s-12.307-20.4-17.711-25.755c-2.194-11.848.589-29.619-4.548-36.264Z" transform="translate(-395.807 -289.609)" fill="#407bff"/>
    <path id="Path_403" data-name="Path 403" d="M475.473,455.833l5.137-4.069-1.391-2.163-5.618,4.688Z" transform="translate(-420.68 -346.681)" fill="#263238"/>
    <path id="Path_404" data-name="Path 404" d="M429.32,330.1l.749,1.339c.053.1-.054.206-.268.206l-16.374.206c-.161,0-.268-.052-.268-.155L413,330.361c0-.1.107-.155.268-.155L429.053,330C429.16,330,429.213,330.052,429.32,330.1Z" transform="translate(-392.506 -288.688)" fill="#263238"/>
    <path id="Path_405" data-name="Path 405" d="M439.175,331.757h.428c.053,0,.16-.052.16-.1l-.214-1.751c0-.052-.054-.1-.161-.1h-.428c-.107,0-.161.052-.161.1l.214,1.751C439.014,331.706,439.068,331.757,439.175,331.757Z" transform="translate(-404.501 -288.591)" fill="#407bff"/>
    <path id="Path_406" data-name="Path 406" d="M415.575,332.057H416c.107,0,.161-.052.161-.1l-.214-1.751c0-.052-.107-.1-.161-.1h-.428c-.107,0-.161.051-.161.1l.214,1.751C415.414,332.057,415.468,332.057,415.575,332.057Z" transform="translate(-393.529 -288.737)" fill="#407bff"/>
    <path id="Path_407" data-name="Path 407" d="M427.375,331.957h.428c.107,0,.16-.051.16-.1l-.214-1.751c0-.052-.054-.1-.161-.1h-.428c-.107,0-.161.051-.161.1l.214,1.751C427.214,331.906,427.268,331.957,427.375,331.957Z" transform="translate(-399.015 -288.688)" fill="#407bff"/>
    <path id="Path_408" data-name="Path 408" d="M374.7,299.539l23.223-3.039,3.211,21.892-22.795,3.039Z" transform="translate(-374.7 -272.444)" fill="#407bff"/>
    <path id="Path_409" data-name="Path 409" d="M374.7,299.539l23.223-3.039,3.211,21.892-22.795,3.039Z" transform="translate(-374.7 -272.444)" fill="#fff" opacity="0.8"/>
    <path id="Path_470" data-name="Path 470" d="M0,0,6.251.033l.127,22.834L.127,22.834Z" transform="translate(17.295 23.816) rotate(-8.048)" fill="#407bff" opacity="0.2"/>
    <path id="Path_410" data-name="Path 410" d="M427.611,332.536,424.4,331.3l.321,3.863a5.887,5.887,0,0,0,3.264-1.185Z" transform="translate(-397.806 -289.319)" fill="#ce7a63"/>
    <path id="Path_411" data-name="Path 411" d="M439.344,296.3c.856,2.318,1.605,4.636,2.247,7.005.321,1.185.642,2.37.856,3.606.107.618.214,1.236.268,1.906a13.3,13.3,0,0,1,.107,2.06,5.823,5.823,0,0,1-.214,1.339,4.007,4.007,0,0,1-.856,1.442,7.149,7.149,0,0,1-2.033,1.442,16.877,16.877,0,0,1-3.853,1.288,42.631,42.631,0,0,1-7.6.979L428,315.411c1.177-.258,2.354-.567,3.532-.876s2.354-.67,3.425-1.03a20.077,20.077,0,0,0,3.05-1.339,3.24,3.24,0,0,0,.91-.773l.053-.1v-.464a7.091,7.091,0,0,0-.161-1.494c-.107-.515-.214-1.082-.321-1.648-.268-1.082-.589-2.215-.91-3.348-.642-2.215-1.445-4.533-2.194-6.7Z" transform="translate(-399.48 -272.347)" fill="#ce7a63"/>
    <path id="Path_412" data-name="Path 412" d="M418.75,333.206l.268.876a1.418,1.418,0,0,0,1.338,1.03l1.712.052-.321-3.863-1.766.206A1.4,1.4,0,0,0,418.7,333h0A.378.378,0,0,1,418.75,333.206Z" transform="translate(-395.153 -289.319)" fill="#ce7a63"/>
    <path id="Path_413" data-name="Path 413" d="M441.8,287.734c1.819.721,3.264,6.387,3.264,6.387l-4.976,3.709s-3.532-5.306-2.782-7.624C437.9,288.3,439.5,286.807,441.8,287.734Z" transform="translate(-403.759 -268.057)" fill="#263238"/>
    <path id="Path_414" data-name="Path 414" d="M481.247,467.533h-.053a.549.549,0,0,1-.428-.258.317.317,0,0,1,0-.309c.214-.412,1.605-.567,1.766-.567.053,0,.053,0,.107.052v.1C482.263,466.864,481.728,467.482,481.247,467.533Zm1.017-.979c-.535.052-1.284.258-1.391.464v.1a.531.531,0,0,0,.268.206,1.6,1.6,0,0,0,1.124-.773Z" transform="translate(-423.992 -354.827)" fill="#263238"/>
    <path id="Path_415" data-name="Path 415" d="M482.475,465.63c-.482,0-1.391-.155-1.605-.515a.308.308,0,0,1,.054-.361.5.5,0,0,1,.375-.154c.535,0,1.284.824,1.284.876v.1a.052.052,0,0,1-.054.052Zm-1.231-.824a.412.412,0,0,0-.214.1.388.388,0,0,0-.053.154,2.133,2.133,0,0,0,1.338.412,1.73,1.73,0,0,0-1.07-.67Z" transform="translate(-424.043 -353.954)" fill="#263238"/>
    <path id="Path_416" data-name="Path 416" d="M385.072,475.079a1.5,1.5,0,0,1-.749-.515.485.485,0,0,1-.054-.464.41.41,0,0,1,.214-.206c.482-.1,1.659,1.133,1.873,1.339v.1c0,.052-.054.052-.107.052A4.382,4.382,0,0,1,385.072,475.079Zm-.375-.927c-.053,0-.107-.052-.161-.052a.052.052,0,0,0-.053.052.236.236,0,0,0,.053.309,2.957,2.957,0,0,0,1.552.721,8.053,8.053,0,0,0-1.391-1.03Z" transform="translate(-379.133 -358.458)" fill="#263238"/>
    <path id="Path_417" data-name="Path 417" d="M387.219,475.044h0c-.428-.361-1.07-1.494-.856-1.854a.363.363,0,0,1,.375-.1c.856.258.589,1.854.589,1.906a.052.052,0,0,1-.054.051Zm-.428-1.8h-.214c-.107.206.268,1.082.642,1.494,0-.412.053-1.288-.428-1.494Z" transform="translate(-380.103 -358.063)" fill="#263238"/>
    <path id="Path_418" data-name="Path 418" d="M417.216,256.9s-2.14,3.451-.535,4.945,2.087-3.863,2.087-3.863Z" transform="translate(-393.94 -253.243)" fill="#263238"/>
    <path id="Path_419" data-name="Path 419" d="M426.937,261.544s2.675-4.018,1.552-8.036-6.314-1.391-8.508-2.524a11.381,11.381,0,0,0-2.568-1.133.885.885,0,0,0-.856.155c-.535.464.375,1.288.7,1.6a2.769,2.769,0,0,0-.589-.515c-.268-.206-.642-.206-.535.258a2.15,2.15,0,0,0,1.124,1.133c-.214-.1-1.445-.721-1.552-.361a.374.374,0,0,0,.054.258c.8,1.442,2.408,3.245,4.281,3.3C422.335,255.724,424.475,261.8,426.937,261.544Z" transform="translate(-393.761 -249.8)" fill="#263238"/>
    <path id="Path_420" data-name="Path 420" d="M428.2,266.16c-.161,1.339-2.247,1.391-2.247,1.391a4.145,4.145,0,0,1-1.659,1.906,9.587,9.587,0,0,0,.107,2.472c.375,1.288.8,1.751,1.338,2.009h0l-.428.412a6.63,6.63,0,0,1-2.836.773l-.589-.309-.749.1c-2.14-.67-1.605-2.06-1.605-2.06a3.978,3.978,0,0,0,.053-2.936c-2.033-.618-2.889-2.318-3.211-5.254A10.718,10.718,0,0,1,417.766,259c2.3,2.163,6.9.773,6.9.773-.214,4.069,1.766,5.563,1.766,5.563C427.183,264.769,428.361,264.821,428.2,266.16Z" transform="translate(-394.061 -254.261)" fill="#ce7a63"/>
    <path id="Path_421" data-name="Path 421" d="M423.7,272.5a2.42,2.42,0,0,0,1.338-.927.125.125,0,0,0-.054-.206.135.135,0,0,0-.214.052h0a1.787,1.787,0,0,1-1.873.824c-.107-.051-.161,0-.214.1a.13.13,0,0,0,.107.206A1.853,1.853,0,0,0,423.7,272.5Z" transform="translate(-396.998 -260.242)" fill="#263238"/>
    <path id="Path_422" data-name="Path 422" d="M425.133,266.264c0,.258-.107.515-.268.515-.161.052-.321-.206-.375-.464s.107-.515.268-.515A.462.462,0,0,1,425.133,266.264Z" transform="translate(-397.844 -257.558)" fill="#263238"/>
    <path id="Path_423" data-name="Path 423" d="M419.033,266.064a.51.51,0,0,1-.268.515c-.161,0-.321-.206-.375-.464s.107-.515.268-.515S418.979,265.806,419.033,266.064Z" transform="translate(-395.008 -257.461)" fill="#263238"/>
    <path id="Path_424" data-name="Path 424" d="M420.317,269.606l-.054-1.906-.963,1.6A1.213,1.213,0,0,0,420.317,269.606Z" transform="translate(-395.435 -258.48)" fill="#ba4d3c"/>
    <path id="Path_425" data-name="Path 425" d="M426.873,262.432a.052.052,0,0,0,.053-.052.19.19,0,0,0,.054-.309h0a1.932,1.932,0,0,0-1.766-.876.239.239,0,0,0-.214.258h0a.242.242,0,0,0,.268.206h0a1.313,1.313,0,0,1,1.284.67C426.659,262.432,426.766,262.483,426.873,262.432Z" transform="translate(-398.085 -255.323)" fill="#263238"/>
    <path id="Path_426" data-name="Path 426" d="M417.395,262.354c.054,0,.107-.052.161-.1a.883.883,0,0,1,.91-.361.3.3,0,0,0,.268-.155h0c0-.1-.053-.258-.16-.258a1.453,1.453,0,0,0-1.391.567.307.307,0,0,0,.054.309Z" transform="translate(-394.439 -255.452)" fill="#263238"/>
    <path id="Path_427" data-name="Path 427" d="M431.509,286.07l-1.124,1.082-2.087,1.957-.749-1.185-.749-1.185,2.675-3.039,1.926,2.266Z" transform="translate(-398.922 -266.238)" fill="#fff"/>
    <path id="Path_428" data-name="Path 428" d="M423.778,287.176l-.642.979-.856,1.391-1.98-3.5,1.284-1.442Z" transform="translate(-395.9 -266.674)" fill="#fff"/>
  </g>
  <g id="freepik--Character--inject-58_00000002378709682169330560000003886800301126603933_" transform="translate(169.798 129.279)">
    <path id="Path_429" data-name="Path 429" d="M230.614,316.6c.1,1.8.3,3.6.5,5.4.1.9.251,1.8.4,2.651a20.109,20.109,0,0,0,.552,2.5,5.87,5.87,0,0,0,.351,1l.1.2h0l.1.1.2.2a15.682,15.682,0,0,0,2.108,1.451c1.505.95,3.111,1.851,4.717,2.7l-.652,1.8a34.991,34.991,0,0,1-5.47-1.8,16.807,16.807,0,0,1-2.66-1.4l-.351-.25-.151-.1-.05-.05-.1-.05-.151-.15a4.236,4.236,0,0,1-.7-.95,9.116,9.116,0,0,1-.7-1.6,32.861,32.861,0,0,1-1.3-5.752,53.514,53.514,0,0,1-.552-5.7Z" transform="translate(-185.652 -290.922)" fill="#ce7a63"/>
    <path id="Path_430" data-name="Path 430" d="M249,349.451a5.663,5.663,0,0,0,3.011,1.351l.552-3.7-3.061.95Z" transform="translate(-196.712 -306.166)" fill="#ce7a63"/>
    <path id="Path_431" data-name="Path 431" d="M256.808,347.8l-1.706-.7-.6,3.7,1.556.05a1.357,1.357,0,0,0,1.355-.9l.151-.5A1.3,1.3,0,0,0,256.808,347.8Z" transform="translate(-199.453 -306.166)" fill="#ce7a63"/>
    <path id="Path_432" data-name="Path 432" d="M224.719,304.375c3.011,1.951,3.111,5.252,3.011,8.253l-5.821,1.451-.7.2s-.3-.95-.652-2.2a24.041,24.041,0,0,1-1.054-5.152C219.5,304.825,222.862,303.124,224.719,304.375Z" transform="translate(-182.016 -284.598)" fill="#263238"/>
    <path id="Path_433" data-name="Path 433" d="M220.6,314.827c.1.35.2.7.3,1h0c.2.7.351,1.2.351,1.2l.351-.1.351-.1,4.215-1.05c-.05-2-.8-4.952-3.462-5.8-1.907-.6-2.76-.5-3.111-.1A23.435,23.435,0,0,0,220.6,314.827Z" transform="translate(-182.065 -287.398)" opacity="0.3"/>
    <path id="Path_434" data-name="Path 434" d="M238.9,479.85l3.563-1.25,2.258,7.7-3.563,1.25Z" transform="translate(-191.681 -371.891)" fill="#ce7a63"/>
    <path id="Path_435" data-name="Path 435" d="M154.521,466.3l2.91,2.151-5.921,6L148.6,472.3Z" transform="translate(-146.693 -365.744)" fill="#ce7a63"/>
    <path id="Path_436" data-name="Path 436" d="M151.173,478.726a9.953,9.953,0,0,0,2.409,4.952c.4.5-.6,1.6-1.756.65s-2.961-2.6-3.763-3.3c-1.355-1.15-1.957-1.5-3.061-2.4l-.05-.05h0a.606.606,0,0,1,0-.8l2.409-2.151a.3.3,0,0,1,.4,0l3.111,2.551A1.94,1.94,0,0,1,151.173,478.726Z" transform="translate(-144.8 -370.367)" fill="#263238"/>
    <path id="Path_437" data-name="Path 437" d="M247.467,491.667c1.154.45,3.061.6,5.971.1.652-.1.953,1.451-.5,2.051l-5.319,2.251c-1.756.75-2.409,1-3.814,1.551-.05,0-.1.05-.151.05a.518.518,0,0,1-.6-.45l-.452-3.5a.335.335,0,0,1,.2-.35l3.964-1.651A1.132,1.132,0,0,1,247.467,491.667Z" transform="translate(-193.524 -378.406)" fill="#263238"/>
    <path id="Path_438" data-name="Path 438" d="M238.9,479.9l1.255,4.3,3.462-1.551-1.154-3.951Z" transform="translate(-191.681 -371.941)" opacity="0.2"/>
    <path id="Path_439" data-name="Path 439" d="M154.4,469.4l2.86,2.151,3.061-3.1-2.91-2.151Z" transform="translate(-149.583 -365.744)" opacity="0.2"/>
    <path id="Path_440" data-name="Path 440" d="M195.644,315.868c-.151-1.8-.452-3.8-.9-6.3-.3-1.6-.652-3.351-1.054-5.352v-.05a1.393,1.393,0,0,1,1.1-1.551c1-.15,2.358-.35,3.864-.45.351,0,.652-.05,1-.05a42.485,42.485,0,0,1,6.674.1c.4.05.753.1,1.154.15,1.1.15,2.258.35,3.111.55a2.794,2.794,0,0,1,2.258,2.751c0,2.6-.5,8-2.509,19.307l-14.653-.2A52.723,52.723,0,0,0,195.644,315.868Z" transform="translate(-169.149 -283.637)" fill="#263238"/>
    <path id="Path_441" data-name="Path 441" d="M195.8,315.151l.8-1.951c.8,1.5.853,6.052.1,8.253C196.553,319.7,196.252,317.652,195.8,315.151Z" transform="translate(-170.208 -289.222)" opacity="0.1"/>
    <path id="Path_442" data-name="Path 442" d="M205.3,347.6s3.412,22.658,8.129,36.564c1.2,9.6,7.928,32.112,7.928,32.112l5.871-2.051s-4.516-21.608-6.323-31.962c-2.258-13.255-4.767-34.513-4.767-34.513Z" transform="translate(-174.941 -306.416)" fill="#407bff"/>
    <path id="Path_443" data-name="Path 443" d="M242.976,478.4l-7.376,2.8.9,2.151L243.278,481Z" transform="translate(-190.037 -371.791)" fill="#263238"/>
    <path id="Path_444" data-name="Path 444" d="M207.3,359.8c.9,5.2,2.358,12.9,4.215,20.208,1-4.852,1.2-12.555.4-15.706l-2.208-4.2Z" transform="translate(-175.938 -312.514)" opacity="0.1"/>
    <path id="Path_445" data-name="Path 445" d="M176.975,347.4c-4.767,6.452-2.208,23.709-4.265,35.213-5.068,5.2-16.61,25.009-16.61,25.009l4.115,3.3s18.266-19.657,20.674-26.26c4.918-13.2,7.527-37.014,7.527-37.014Z" transform="translate(-150.43 -306.316)" fill="#407bff"/>
    <path id="Path_446" data-name="Path 446" d="M160.574,469.552,155.3,465l-1.3,2.1,4.817,3.951Z" transform="translate(-149.383 -365.094)" fill="#263238"/>
    <path id="Path_447" data-name="Path 447" d="M196.793,345.4l14.853.2c.151,0,.251.1.251.15l-.151,1.3c0,.1-.1.15-.251.15l-15.355-.2c-.151,0-.3-.1-.251-.2l.7-1.3A.381.381,0,0,1,196.793,345.4Z" transform="translate(-170.248 -305.316)" fill="#263238"/>
    <path id="Path_448" data-name="Path 448" d="M200.8,347l.2-1.7c0-.05-.05-.1-.151-.1h-.4c-.1,0-.151.05-.151.1l-.2,1.7c0,.05.05.1.151.1h.4C200.752,347.1,200.8,347.051,200.8,347Z" transform="translate(-172.35 -305.216)" fill="#407bff"/>
    <path id="Path_449" data-name="Path 449" d="M224.4,347.4l.2-1.7c0-.05-.05-.1-.151-.1h-.4c-.1,0-.151.05-.151.1l-.2,1.7c0,.05.05.1.151.1h.4C224.352,347.451,224.4,347.451,224.4,347.4Z" transform="translate(-184.108 -305.416)" fill="#407bff"/>
    <path id="Path_450" data-name="Path 450" d="M212.6,347.2l.2-1.7c0-.05-.05-.1-.151-.1h-.4c-.1,0-.151.05-.151.1l-.2,1.7c0,.05.05.1.151.1h.4C212.552,347.251,212.6,347.251,212.6,347.2Z" transform="translate(-178.229 -305.316)" fill="#407bff"/>
    <path id="Path_451" data-name="Path 451" d="M209.6,349.3a5.4,5.4,0,0,0,3.061,1.15l.3-3.751-3.011,1.2Z" transform="translate(-177.083 -305.966)" fill="#ce7a63"/>
    <path id="Path_452" data-name="Path 452" d="M191.875,312.9c-.7,2.1-1.405,4.352-2.057,6.5-.3,1.1-.6,2.2-.853,3.251-.1.55-.251,1.1-.3,1.6a7.119,7.119,0,0,0-.151,1.451v.45l.05.1a3.992,3.992,0,0,0,.853.75,14.755,14.755,0,0,0,2.86,1.3c1.054.4,2.108.7,3.212,1s2.208.6,3.312.85l-.251,1.9a37.577,37.577,0,0,1-7.126-.95,18.154,18.154,0,0,1-3.613-1.25,6.473,6.473,0,0,1-1.907-1.4,3.538,3.538,0,0,1-.8-1.4,5.422,5.422,0,0,1-.2-1.3,13.365,13.365,0,0,1,.1-2c.05-.65.151-1.25.251-1.851.2-1.2.5-2.351.8-3.5.6-2.3,1.3-4.552,2.108-6.8Z" transform="translate(-164.778 -288.423)" fill="#ce7a63"/>
    <path id="Path_453" data-name="Path 453" d="M218.861,348.451h0a1.312,1.312,0,0,0-1.2-1.451L216,346.8l-.3,3.751,1.606-.05a1.339,1.339,0,0,0,1.255-1l.251-.85C218.811,348.551,218.811,348.5,218.861,348.451Z" transform="translate(-180.122 -306.016)" fill="#ce7a63"/>
    <path id="Path_454" data-name="Path 454" d="M196.076,305.527c.652,2.251-2.609,7.4-2.609,7.4l-4.667-3.6s1.405-5.5,3.061-6.2C194.019,302.226,195.524,303.676,196.076,305.527Z" transform="translate(-166.721 -284.05)" fill="#263238"/>
    <path id="Path_455" data-name="Path 455" d="M156.6,481.85v-.1c0-.05.05-.05.1-.05.151,0,1.455.2,1.656.55a.318.318,0,0,1,0,.3.512.512,0,0,1-.4.25H157.8C157.4,482.8,156.851,482.2,156.6,481.85Zm.251.05a1.709,1.709,0,0,0,1.054.75.333.333,0,0,0,.251-.2v-.1c-.1-.2-.8-.4-1.3-.45Z" transform="translate(-150.679 -373.441)" fill="#263238"/>
    <path id="Path_456" data-name="Path 456" d="M156.65,481c-.05,0-.05,0-.05-.05v-.1c0-.05.7-.85,1.2-.85a.456.456,0,0,1,.351.15c.1.1.151.25.05.35-.2.35-1.054.5-1.505.5Zm1.154-.85a2.184,2.184,0,0,0-1,.65,2.069,2.069,0,0,0,1.255-.4c0-.05.05-.1-.05-.15-.05-.05-.1-.05-.2-.1Z" transform="translate(-150.679 -372.591)" fill="#263238"/>
    <path id="Path_457" data-name="Path 457" d="M252.6,490.844c-.05,0-.05,0-.1-.05v-.1c.2-.25,1.3-1.4,1.756-1.3.1,0,.151.1.2.2a.485.485,0,0,1-.05.45,1.222,1.222,0,0,1-.7.5C253.353,490.644,253,490.744,252.6,490.844Zm1.455-1.3a6.348,6.348,0,0,0-1.254,1.05,2.167,2.167,0,0,0,1.455-.7.633.633,0,0,0,.05-.3.049.049,0,0,0-.05-.05Z" transform="translate(-198.456 -377.283)" fill="#263238"/>
    <path id="Path_458" data-name="Path 458" d="M252.513,490.381a.049.049,0,0,1-.05-.05c0-.05-.251-1.6.552-1.851.2-.05.3,0,.351.1.2.35-.4,1.451-.753,1.8h-.1Zm.452-1.751c-.452.2-.4,1.1-.4,1.451.351-.45.753-1.25.6-1.451h-.2Z" transform="translate(-198.419 -376.82)" fill="#263238"/>
    <path id="Path_459" data-name="Path 459" d="M219.7,273.35s.452,5.2,1.957,3.751-.5-4.8-.5-4.8Z" transform="translate(-182.115 -268.78)" fill="#263238"/>
    <path id="Path_460" data-name="Path 460" d="M208.672,270.933c1.756-.05,3.262-1.8,4.014-3.2a.219.219,0,0,0,.05-.25c-.1-.35-1.255.2-1.455.35a2.251,2.251,0,0,0,1.054-1.1c.1-.45-.251-.45-.5-.25a2.628,2.628,0,0,0-.552.5c.251-.3,1.154-1.15.652-1.551a1.119,1.119,0,0,0-.8-.15,13.153,13.153,0,0,0-2.409,1.1c-2.057,1.05-6.925-1.451-7.979,2.451s1.455,7.8,1.455,7.8C204.557,276.886,206.564,270.983,208.672,270.933Z" transform="translate(-172.542 -265.263)" fill="#263238"/>
    <path id="Path_461" data-name="Path 461" d="M203.8,280.552s1.857-1.451,1.656-5.4c0,0,4.315,1.35,6.473-.75a10.165,10.165,0,0,1,1.3,5.5c-.251,2.8-1.054,4.5-3.011,5.1a3.985,3.985,0,0,0,.05,2.851s.5,1.35-1.505,2l-.652-.15-.552.3a4.971,4.971,0,0,1-2.66-.75l-.4-.4h0a2.635,2.635,0,0,0,1.254-1.951,12.825,12.825,0,0,0,.1-2.4,4.3,4.3,0,0,1-1.556-1.851s-1.957,0-2.108-1.351C202.093,280.052,203.2,280,203.8,280.552Z" transform="translate(-173.39 -269.83)" fill="#ce7a63"/>
    <path id="Path_462" data-name="Path 462" d="M215.787,287.83c.1-.05.151-.1.1-.2s-.1-.15-.2-.1a1.654,1.654,0,0,1-1.756-.8h0c-.05-.05-.151-.1-.2-.05s-.1.15-.05.2a2.054,2.054,0,0,0,1.254.9A1.01,1.01,0,0,0,215.787,287.83Z" transform="translate(-179.105 -275.957)" fill="#263238"/>
    <path id="Path_463" data-name="Path 463" d="M215.351,281.3c.151,0,.3.25.251.5s-.2.45-.351.45-.251-.25-.251-.5C215.05,281.45,215.2,281.3,215.351,281.3Z" transform="translate(-179.774 -273.278)" fill="#263238"/>
    <path id="Path_464" data-name="Path 464" d="M221.451,280.994c.151,0,.3.25.251.5s-.151.45-.351.45a.5.5,0,0,1-.251-.5C221.15,281.194,221.3,280.944,221.451,280.994Z" transform="translate(-182.813 -273.122)" fill="#263238"/>
    <path id="Path_465" data-name="Path 465" d="M220.453,284.651l-.9-1.551-.05,1.851A1.112,1.112,0,0,0,220.453,284.651Z" transform="translate(-182.016 -274.178)" fill="#ba4d3c"/>
    <path id="Path_466" data-name="Path 466" d="M212.269,277.7a1.413,1.413,0,0,1,1.2-.65h0a.256.256,0,0,0,.251-.2h0a.255.255,0,0,0-.2-.25,1.747,1.747,0,0,0-1.656.85h0c-.05.1-.05.25.05.3a.049.049,0,0,1,.05.05A.224.224,0,0,0,212.269,277.7Z" transform="translate(-178.197 -270.924)" fill="#263238"/>
    <path id="Path_467" data-name="Path 467" d="M221.992,277.725a.188.188,0,0,0,.05-.3,1.219,1.219,0,0,0-1.3-.55.191.191,0,0,0-.151.25h0a.192.192,0,0,0,.251.15.909.909,0,0,1,.853.35c.05.05.1.1.151.1Z" transform="translate(-182.55 -271.054)" fill="#263238"/>
    <path id="Path_468" data-name="Path 468" d="M205.2,301.3l1.857-2.2,2.509,2.951-.753,1.15-.7,1.15-1.907-1.9-1.1-1.05Z" transform="translate(-174.841 -282.175)" fill="#fff"/>
    <path id="Path_469" data-name="Path 469" d="M216.057,300l1.154,1.4-1.857,3.4-.8-1.351L214,302.5Z" transform="translate(-179.275 -282.625)" fill="#fff"/>
  </g>
</svg>
