<svg xmlns="http://www.w3.org/2000/svg" width="185.339" height="201.386" viewBox="0 0 185.339 201.386">
  <g id="Night_Calls-cuate" data-name="Night Calls-cuate" transform="translate(-30.84 -43.53)">
    <g id="freepik--background-complete--inject-66" transform="translate(30.84 44.335)">
      <path id="Path_1" data-name="Path 1" d="M57.024,289.963l-5.551.137-2.818.054c-.943,0-1.891,0-2.835.025h-.186v-.221l-.025-5.492v-.245h.212l5.6.029c1.87,0,3.736.054,5.6.079h.118v.133c0,.933-.038,1.855-.055,2.773Zm0,0-.059-2.778c0-.913-.047-1.816-.055-2.714l.114.133c-1.866.025-3.731.079-5.6.079l-5.6.034.212-.245v5.492l-.19-.221c.922,0,1.845,0,2.771.029l2.784.054Z" transform="translate(-39.361 -166.888)" fill="#ebebeb"/>
      <path id="Path_2" data-name="Path 2" d="M42.254,304.043l-5.551.137-2.818.054c-.943,0-1.891,0-2.835.025h-.186v-.216l-.025-5.492v-.25h.212l5.6.029c1.866,0,3.736.054,5.6.079h.118v.133c0,.933-.034,1.855-.055,2.773Zm0,0-.059-2.778c0-.913-.047-1.816-.055-2.714l.114.133c-1.866.025-3.736.079-5.6.079l-5.6.034.212-.245-.021,5.492-.19-.221c.922,0,1.845,0,2.771.029l2.784.054Z" transform="translate(-30.84 -174.057)" fill="#ebebeb"/>
      <path id="Path_3" data-name="Path 3" d="M277.6,193.618l-5.551.137-2.818.054c-.943,0-1.891,0-2.835.029h-.186v-.221l-.025-5.492v-.245h.212l5.6.029c1.87,0,3.736.059,5.6.083h.118v.133c0,.933-.038,1.86-.059,2.778Zm0,0-.059-2.773c0-.918-.047-1.821-.055-2.719l.114.133c-1.866.029-3.731.079-5.6.083l-5.6.029.212-.245-.021,5.492-.19-.216c.922,0,1.845,0,2.771.025l2.784.054Z" transform="translate(-166.623 -117.834)" fill="#ebebeb"/>
      <path id="Path_4" data-name="Path 4" d="M262.834,207.733l-5.551.137-2.818.054c-.943.025-1.891,0-2.835.029h-.186v-.221l-.025-5.492V202h.212l5.6.029c1.866,0,3.736.059,5.6.083h.118v.133c0,.933-.034,1.86-.055,2.773Zm0,0-.059-2.773c-.021-.918-.047-1.821-.055-2.719l.114.133c-1.866.029-3.736.079-5.6.083l-5.6.029.212-.245v5.492l-.19-.216h2.771l2.784.054Z" transform="translate(-158.101 -125.024)" fill="#ebebeb"/>
      <path id="Path_5" data-name="Path 5" d="M248.153,193.618l-5.555.137-2.818.054c-.939,0-1.887,0-2.83.029h-.19V187.88h.212l5.6.029c1.866,0,3.731.059,5.6.083h.11v.133c0,.933-.038,1.86-.055,2.778Zm0,0-.059-2.773c-.021-.918-.051-1.821-.059-2.719l.118.133c-1.87.029-3.736.079-5.6.083l-5.6.029.212-.245-.025,5.492-.186-.216c.922,0,1.84,0,2.767.025l2.784.054Z" transform="translate(-149.643 -117.834)" fill="#ebebeb"/>
      <path id="Path_6" data-name="Path 6" d="M453.094,304.043l-5.555.137-2.818.054c-.939,0-1.887,0-2.83.025h-.19v-.216l-.021-5.492v-.25h.212l5.6.029c1.866,0,3.736.054,5.6.079h.114v.133c0,.933-.034,1.855-.055,2.773Zm0,0-.059-2.778c0-.913-.051-1.816-.055-2.714l.114.133c-1.866.025-3.736.079-5.6.079l-5.6.034.211-.245-.025,5.492-.186-.221c.922,0,1.845,0,2.767.029l2.784.054Z" transform="translate(-267.87 -174.057)" fill="#ebebeb"/>
      <path id="Path_7" data-name="Path 7" d="M438.376,50.937l-5.555.133L430,51.129h-3V45.17h.216l5.6.029c1.866,0,3.731.054,5.6.079h.114v.133c0,.928-.038,1.855-.055,2.773Zm0,0-.059-2.778c-.021-.913-.051-1.816-.059-2.714l.118.133c-1.87,0-3.736.079-5.6.079l-5.6.034.212-.245-.025,5.492-.186-.221c.922,0,1.84,0,2.767.025l2.784.059Z" transform="translate(-259.4 -45.17)" fill="#ebebeb"/>
      <path id="Path_8" data-name="Path 8" d="M453.094,65.043l-5.555.133-2.818.059H441.7v-.191l-.021-5.492V59.3h.212l5.6.029c1.866,0,3.736.054,5.6.079h.114v.133c0,.928-.034,1.855-.055,2.773Zm0,0-.059-2.778c0-.913-.051-1.816-.055-2.714l.114.133c-1.866,0-3.736.079-5.6.079l-5.6.029.211-.241-.025,5.492-.186-.221h2.767l2.784.059Z" transform="translate(-267.87 -52.365)" fill="#ebebeb"/>
      <path id="Path_9" data-name="Path 9" d="M57.024,50.937l-5.551.133-2.818.059H45.635v-.216L45.61,45.42v-.25h.212l5.6.029c1.87,0,3.736.054,5.6.079h.118v.133c0,.928-.038,1.855-.055,2.773Zm0,0-.059-2.778c0-.913-.047-1.816-.055-2.714l.114.133c-1.866,0-3.731.079-5.6.079l-5.6.034.212-.245v5.492l-.19-.221c.922,0,1.845,0,2.771.025L51.4,50.8Z" transform="translate(-39.361 -45.17)" fill="#ebebeb"/>
      <rect id="Rectangle_144" data-name="Rectangle 144" width="25.303" height="35.609" transform="translate(60.409 19.829)" fill="#dbdbdb"/>
      <rect id="Rectangle_145" data-name="Rectangle 145" width="19.52" height="29.111" transform="translate(63.303 23.079)" fill="#fff"/>
      <rect id="Rectangle_146" data-name="Rectangle 146" width="0.762" height="29.111" transform="translate(63.303 23.079)" fill="#c7c7c7"/>
      <rect id="Rectangle_147" data-name="Rectangle 147" width="0.762" height="35.609" transform="translate(85.712 19.829)" fill="#c7c7c7"/>
      <rect id="Rectangle_148" data-name="Rectangle 148" width="4.603" height="15.908" transform="translate(69.843 29.813)" fill="#dbdbdb"/>
      <path id="Path_10" data-name="Path 10" d="M203.392,108.155H190.7V99.87h12.692Zm-12.269-.491h11.846v-7.3H191.123Z" transform="translate(-123.07 -73.022)" fill="#ebebeb"/>
      <rect id="Rectangle_149" data-name="Rectangle 149" width="25.303" height="35.609" transform="translate(23.006 10.072)" fill="#dbdbdb"/>
      <rect id="Rectangle_150" data-name="Rectangle 150" width="19.52" height="29.111" transform="translate(25.9 13.321)" fill="#fff"/>
      <rect id="Rectangle_151" data-name="Rectangle 151" width="0.762" height="29.111" transform="translate(25.9 13.321)" fill="#c7c7c7"/>
      <rect id="Rectangle_152" data-name="Rectangle 152" width="0.762" height="35.609" transform="translate(48.309 10.072)" fill="#c7c7c7"/>
      <rect id="Rectangle_153" data-name="Rectangle 153" width="3.943" height="11.569" transform="translate(33.769 20.845)" fill="#ebebeb"/>
      <path id="Path_11" data-name="Path 11" d="M115.29,109.927h-11V101.46h11Zm-10.577-.491h10.153v-7.485H104.713Z" transform="translate(-73.216 -73.831)" fill="#dbdbdb"/>
      <rect id="Rectangle_154" data-name="Rectangle 154" width="73.934" height="114.392" transform="translate(107.644 1.36)" fill="#dbdbdb"/>
      <rect id="Rectangle_155" data-name="Rectangle 155" width="31.966" height="50.879" transform="translate(111.146 5.939)" fill="#a6a6a6"/>
      <rect id="Rectangle_156" data-name="Rectangle 156" width="31.966" height="50.879" transform="translate(146.104 5.939)" fill="#a6a6a6"/>
      <rect id="Rectangle_157" data-name="Rectangle 157" width="31.966" height="50.879" transform="translate(111.146 60.288)" fill="#a6a6a6"/>
      <rect id="Rectangle_158" data-name="Rectangle 158" width="31.966" height="50.879" transform="translate(146.104 60.288)" fill="#a6a6a6"/>
      <path id="Path_12" data-name="Path 12" d="M411.651,96.38l.525,1.232,1.176.2-.85.957.2,1.36-1.049-.643-1.049.643.2-1.36-.85-.957,1.176-.2Z" transform="translate(-249.564 -71.245)" fill="#fff"/>
      <path id="Path_13" data-name="Path 13" d="M352.7,134.38l.525,1.237,1.176.2-.85.962.2,1.355-1.049-.638-1.053.638.2-1.355-.85-.962,1.176-.2Z" transform="translate(-215.553 -90.593)" fill="#fff"/>
      <path id="Path_14" data-name="Path 14" d="M329.031,204.56l.525,1.237,1.176.2-.85.957.2,1.36-1.049-.643-1.053.643.2-1.36-.85-.957,1.172-.2Z" transform="translate(-201.897 -126.327)" fill="#fff"/>
      <path id="Path_15" data-name="Path 15" d="M399.339,142.78l.326.766.723.123-.525.594.127.839-.652-.4-.651.4.127-.839-.525-.594.723-.123Z" transform="translate(-242.836 -94.871)" fill="#fff"/>
      <path id="Path_16" data-name="Path 16" d="M327.569,141.9l.326.766.728.123-.525.594.123.839-.652-.4-.647.4.123-.839-.525-.594.728-.123Z" transform="translate(-201.429 -94.422)" fill="#fff"/>
      <path id="Path_17" data-name="Path 17" d="M386.829,258.68l.326.766.728.123-.525.594.123.834-.652-.393-.647.393.123-.834-.525-.594.728-.123Z" transform="translate(-235.619 -153.884)" fill="#fff"/>
      <path id="Path_18" data-name="Path 18" d="M410.809,193.96l.326.761.728.123-.529.594.127.839-.651-.4-.647.4.123-.839-.525-.594.723-.123Z" transform="translate(-249.454 -120.93)" fill="#fff"/>
      <path id="Path_19" data-name="Path 19" d="M360.089,79.53l.326.766.723.123-.525.594.127.839-.652-.4-.647.4.123-.839-.525-.594.723-.123Z" transform="translate(-220.192 -62.665)" fill="#fff"/>
      <path id="Path_20" data-name="Path 20" d="M339.789,91.465c-1.78,3.6-5.439,5.341-8.885,4.224s-5.8-4.8-5.713-8.954,2.589-7.7,6.078-8.625a8.72,8.72,0,0,0-4.247,8.09,8.448,8.448,0,0,0,4.857,7.614A6.665,6.665,0,0,0,339.789,91.465Z" transform="translate(-200.661 -61.942)" fill="#fff"/>
      <rect id="Rectangle_159" data-name="Rectangle 159" width="15.23" height="144.254" transform="translate(107.644 1.36)" fill="#ebebeb"/>
      <path id="Path_21" data-name="Path 21" d="M314.121,63.79l.118,17.694.042,17.694.08,35.389-.08,35.389-.038,6.057-.123,9.934-.114-9.934-.047-6.057-.08-35.389.085-35.389.042-17.694Z" transform="translate(-194.137 -54.651)" fill="#fff"/>
      <path id="Path_22" data-name="Path 22" d="M297.6,72.15l.114,15.8.068,15.8.059,31.6-.059,31.6-.068,8.04L297.6,186.9l-.123-11.917-.063-8.04-.059-31.6.059-31.6.068-15.8Z" transform="translate(-184.6 -58.908)" fill="#fff"/>
      <path id="Path_23" data-name="Path 23" d="M305.861,79.75l.118,18.5.042,18.5.08,37-.08,29.238-.042,6.862-.118,18.5-.118-18.5-.042-6.862-.08-29.238.08-37,.042-18.5Z" transform="translate(-189.371 -62.777)" fill="#fff"/>
      <path id="Path_24" data-name="Path 24" d="M291.451,65.69l.118,19.363.042,19.363.08,38.726-.08,30.966-.042,15.481-.118,11.6-.118-11.6-.042-15.481-.08-30.966.08-38.726.042-19.363Z" transform="translate(-181.058 -55.618)" fill="#fff"/>
      <rect id="Rectangle_160" data-name="Rectangle 160" width="15.23" height="144.254" transform="translate(181.573 145.608) rotate(180)" fill="#ebebeb"/>
      <path id="Path_25" data-name="Path 25" d="M430.531,63.79l.118,17.694.042,17.694.08,35.389-.08,35.389-.042,6.057-.118,9.934-.118-9.934-.042-6.057-.08-35.389.08-35.389.042-17.694Z" transform="translate(-261.298 -54.651)" fill="#fff"/>
      <path id="Path_26" data-name="Path 26" d="M447.061,72.15l.118,15.8.068,15.8.055,31.6-.055,31.6-.068,8.04-.118,11.917-.118-11.917-.068-8.04-.055-31.6.055-31.6.072-15.8Z" transform="translate(-270.835 -58.908)" fill="#fff"/>
      <path id="Path_27" data-name="Path 27" d="M438.8,79.75l.114,18.5.047,18.5.08,37-.08,29.238-.042,6.862-.118,18.5-.118-18.5-.042-6.862-.08-29.238.08-37,.042-18.5Z" transform="translate(-266.07 -62.777)" fill="#fff"/>
      <path id="Path_28" data-name="Path 28" d="M453.211,65.69l.118,19.363.042,19.363.08,38.726-.08,30.966-.042,15.481-.118,11.6-.118-11.6-.042-15.481-.08-30.966.08-38.726.042-19.363Z" transform="translate(-274.383 -55.618)" fill="#fff"/>
    </g>
    <g id="freepik--Lamp--inject-66" transform="translate(31.547 43.53)">
      <rect id="Rectangle_161" data-name="Rectangle 161" width="24.618" height="3.244" transform="translate(10.703 197.822)" fill="#c7c7c7"/>
      <rect id="Rectangle_162" data-name="Rectangle 162" width="2.919" height="156.76" transform="translate(21.555 41.062)" fill="#c7c7c7"/>
      <rect id="Rectangle_163" data-name="Rectangle 163" width="2.919" height="17.145" transform="translate(21.555 41.062)" fill="#a6a6a6"/>
      <path id="Path_29" data-name="Path 29" d="M81.283,112.4H50.4l2.246-8.555.08-.3,6.528-24.9H72.429l6.536,24.9v0l.072.285Z" transform="translate(-42.831 -61.407)" fill="#407bff"/>
      <path id="Path_30" data-name="Path 30" d="M62.981,86.911a.21.21,0,1,1-.207-.241A.226.226,0,0,1,62.981,86.911Zm3.6-.241a.243.243,0,1,0,.207.241.226.226,0,0,0-.207-.241Zm3.808,0a.243.243,0,1,0,.207.241.261.261,0,0,0-.062-.172.193.193,0,0,0-.149-.069Zm3.808,0a.243.243,0,1,0,.212.241.26.26,0,0,0-.067-.177.191.191,0,0,0-.158-.063Zm-9.506-3.092a.243.243,0,1,0,.207.241.26.26,0,0,0-.065-.175.191.191,0,0,0-.155-.065Zm3.808,0a.243.243,0,1,0,.207.241.26.26,0,0,0-.067-.177.191.191,0,0,0-.158-.063Zm3.808,0a.243.243,0,1,0,.207.241.259.259,0,0,0-.068-.179.19.19,0,0,0-.16-.061ZM58.971,93.111a.243.243,0,1,0,.207.24A.226.226,0,0,0,58.971,93.111Zm3.808,0a.243.243,0,1,0,.207.24.261.261,0,0,0-.062-.172.193.193,0,0,0-.149-.069Zm3.808,0a.243.243,0,1,0,.207.24.261.261,0,0,0-.064-.174.192.192,0,0,0-.152-.067Zm3.808,0a.243.243,0,1,0,.207.24.26.26,0,0,0-.065-.175.191.191,0,0,0-.155-.065Zm3.808,0a.243.243,0,1,0,.212.24.259.259,0,0,0-.069-.181.189.189,0,0,0-.163-.059Zm3.808,0a.243.243,0,1,0,.207.24.259.259,0,0,0-.069-.181.189.189,0,0,0-.163-.059ZM60.9,90.018a.243.243,0,1,0,.207.241.264.264,0,0,0-.061-.2.19.19,0,0,0-.172-.067Zm3.808,0a.243.243,0,1,0,.207.241.264.264,0,0,0-.062-.2.19.19,0,0,0-.175-.065Zm3.808,0a.243.243,0,1,0,.207.241.264.264,0,0,0-.063-.2.189.189,0,0,0-.178-.062Zm3.808,0a.243.243,0,1,0,.207.241.263.263,0,0,0-.065-.2.188.188,0,0,0-.181-.06Zm3.808,0a.243.243,0,1,0,.207.241.263.263,0,0,0-.066-.207.188.188,0,0,0-.184-.058ZM58.971,99.491a.243.243,0,1,0,.207.241A.226.226,0,0,0,58.971,99.491Zm3.808,0a.243.243,0,1,0,.207.241.261.261,0,0,0-.062-.172.193.193,0,0,0-.149-.069Zm3.808,0a.243.243,0,1,0,.207.241.261.261,0,0,0-.064-.174.192.192,0,0,0-.152-.067Zm3.808,0a.243.243,0,1,0,.207.241.26.26,0,0,0-.065-.175.191.191,0,0,0-.155-.065Zm3.808,0a.243.243,0,1,0,.212.241.259.259,0,0,0-.069-.181.189.189,0,0,0-.163-.059Zm3.808,0a.243.243,0,1,0,.207.241.259.259,0,0,0-.069-.181.189.189,0,0,0-.163-.059ZM60.9,96.4a.226.226,0,0,0-.207.24.214.214,0,1,0,.423,0,.256.256,0,0,0-.075-.179.187.187,0,0,0-.166-.052Zm3.808,0a.226.226,0,0,0-.207.24.214.214,0,1,0,.423,0,.256.256,0,0,0-.077-.181.187.187,0,0,0-.169-.05Zm3.808,0a.226.226,0,0,0-.207.24.214.214,0,1,0,.423,0,.256.256,0,0,0-.078-.183.186.186,0,0,0-.172-.047Zm3.808,0a.226.226,0,0,0-.207.24.214.214,0,1,0,.423,0,.256.256,0,0,0-.079-.186.186.186,0,0,0-.174-.045Zm3.808,0a.226.226,0,0,0-.207.24.214.214,0,1,0,.423,0,.255.255,0,0,0-.081-.188.185.185,0,0,0-.177-.043ZM55.4,106.044l-.08.3a.241.241,0,0,0,.1-.206.253.253,0,0,0-.055-.088Zm3.613-.137a.243.243,0,1,0,.207.241.256.256,0,0,0-.077-.181.187.187,0,0,0-.169-.05Zm3.808,0a.243.243,0,1,0,.207.241.256.256,0,0,0-.078-.183.186.186,0,0,0-.172-.047Zm3.808,0a.243.243,0,1,0,.207.241.256.256,0,0,0-.079-.186.186.186,0,0,0-.174-.045Zm3.808,0a.243.243,0,1,0,.207.241.255.255,0,0,0-.081-.188.185.185,0,0,0-.177-.043Zm3.808,0a.243.243,0,1,0,.212.241.255.255,0,0,0-.085-.2.184.184,0,0,0-.186-.035Zm3.808,0a.243.243,0,1,0,.207.241.255.255,0,0,0-.085-.2.184.184,0,0,0-.186-.035Zm3.613.147a.324.324,0,0,0,0,.088.234.234,0,0,0,.085.2Zm-24.538-3.239a.248.248,0,1,0,.212.245.256.256,0,0,0-.082-.2.185.185,0,0,0-.185-.039Zm3.808,0a.212.212,0,0,0-.2.148.275.275,0,0,0,.043.269.191.191,0,0,0,.231.055.248.248,0,0,0,.132-.227.256.256,0,0,0-.082-.2.185.185,0,0,0-.185-.039Zm3.808,0a.212.212,0,0,0-.2.148.275.275,0,0,0,.043.269.191.191,0,0,0,.231.055.248.248,0,0,0,.132-.227.256.256,0,0,0-.083-.2.184.184,0,0,0-.188-.037Zm3.808,0a.212.212,0,0,0-.2.148.275.275,0,0,0,.043.269.191.191,0,0,0,.231.055.248.248,0,0,0,.132-.227.256.256,0,0,0-.084-.2.184.184,0,0,0-.191-.034Zm3.808,0a.212.212,0,0,0-.2.148.275.275,0,0,0,.043.269.191.191,0,0,0,.231.055.248.248,0,0,0,.132-.227.256.256,0,0,0-.085-.2.184.184,0,0,0-.194-.031Zm3.808,0a.212.212,0,0,0-.2.148.275.275,0,0,0,.043.269.191.191,0,0,0,.231.055.248.248,0,0,0,.132-.227.256.256,0,0,0-.086-.208.184.184,0,0,0-.2-.028Zm3.808,0a.212.212,0,0,0-.2.148.275.275,0,0,0,.043.269.191.191,0,0,0,.231.055.248.248,0,0,0,.132-.227.256.256,0,0,0-.087-.211.184.184,0,0,0-.2-.025Zm-24.8,9.517a.243.243,0,1,0,.207.241.226.226,0,0,0-.207-.241Zm3.808,0a.243.243,0,1,0,.207.241.261.261,0,0,0-.062-.172.193.193,0,0,0-.149-.069Zm3.808,0a.243.243,0,1,0,.207.241.261.261,0,0,0-.064-.174.192.192,0,0,0-.152-.067Zm3.808,0a.243.243,0,1,0,.207.241.26.26,0,0,0-.065-.175.191.191,0,0,0-.155-.065Zm3.808,0a.243.243,0,1,0,.207.241.26.26,0,0,0-.067-.177.191.191,0,0,0-.158-.063Zm3.808,0a.243.243,0,1,0,.212.241.259.259,0,0,0-.071-.183.188.188,0,0,0-.166-.057Zm3.808,0a.243.243,0,1,0,.207.241.259.259,0,0,0-.071-.183.188.188,0,0,0-.166-.057Zm3.808,0a.243.243,0,1,0,.207.241.259.259,0,0,0-.072-.186.188.188,0,0,0-.169-.055ZM57.1,109.244a.189.189,0,0,0-.148.069.257.257,0,0,0-.059.172.25.25,0,0,0,.129.231.191.191,0,0,0,.232-.052.275.275,0,0,0,.045-.27A.213.213,0,0,0,57.1,109.244Zm3.808,0a.189.189,0,0,0-.148.069.257.257,0,0,0-.059.172.214.214,0,1,0,.423,0,.253.253,0,0,0-.074-.195.182.182,0,0,0-.18-.046Zm3.808,0a.189.189,0,0,0-.148.069.257.257,0,0,0-.059.172.214.214,0,1,0,.423,0,.253.253,0,0,0-.076-.2.182.182,0,0,0-.183-.043Zm3.808,0a.189.189,0,0,0-.148.069.257.257,0,0,0-.059.172.214.214,0,1,0,.423,0,.253.253,0,0,0-.077-.2.181.181,0,0,0-.186-.04Zm3.808,0a.189.189,0,0,0-.148.069.257.257,0,0,0-.059.172.214.214,0,1,0,.423,0,.253.253,0,0,0-.078-.2.181.181,0,0,0-.189-.038Zm3.808,0a.189.189,0,0,0-.148.069.257.257,0,0,0-.059.172.214.214,0,1,0,.423,0,.253.253,0,0,0-.079-.206.181.181,0,0,0-.192-.035Zm3.808,0a.189.189,0,0,0-.148.069.257.257,0,0,0-.059.172.214.214,0,1,0,.423,0,.253.253,0,0,0-.08-.209.18.18,0,0,0-.195-.032Z" transform="translate(-45.462 -63.921)" fill="#fff"/>
      <path id="Path_31" data-name="Path 31" d="M81.292,50.274,72.408,60.768H59.255L50.4,50.274s2.983-6.744,15.446-6.744S81.292,50.274,81.292,50.274Z" transform="translate(-42.831 -43.53)" fill="#407bff" opacity="0.1"/>
      <path id="Path_32" data-name="Path 32" d="M32.51,155.314l7.569-8.084H70.962l7.577,8.084s-4.442,7.662-23.014,7.662S32.51,155.314,32.51,155.314Z" transform="translate(-32.51 -96.331)" fill="#407bff" opacity="0.1"/>
    </g>
    <g id="freepik--Floor--inject-66" transform="translate(34.377 244.425)">
      <path id="Path_33" data-name="Path 33" d="M39.2,453.075l22.3-.123,22.3-.039,44.591-.083,44.591.083,22.3.039,22.3.123-22.3.118-22.3.044-44.591.083-44.591-.083-22.3-.044Z" transform="translate(-39.2 -452.83)" fill="#263238"/>
    </g>
    <g id="freepik--Character--inject-66" transform="translate(43.367 94.444)">
      <path id="Path_34" data-name="Path 34" d="M108.492,279.358H90.647L80.43,220.277l16.343-8.707Z" transform="translate(-71.977 -180.005)" fill="#37474f"/>
      <path id="Path_35" data-name="Path 35" d="M178.948,279.358h-48.17L119.06,211.57h48.17Z" transform="translate(-94.264 -180.005)" fill="#455a64"/>
      <rect id="Rectangle_164" data-name="Rectangle 164" width="27.351" height="65.108" transform="translate(0 67.655)" fill="#37474f"/>
      <path id="Path_36" data-name="Path 36" d="M266.276,350.208H258.8L247.67,285.1h18.606Z" transform="translate(-168.465 -217.445)" fill="#37474f"/>
      <rect id="Rectangle_165" data-name="Rectangle 165" width="15.027" height="65.108" transform="translate(27.351 67.655)" fill="#455a64"/>
      <rect id="Rectangle_166" data-name="Rectangle 166" width="15.027" height="65.108" transform="translate(97.812 67.655)" fill="#455a64"/>
      <rect id="Rectangle_167" data-name="Rectangle 167" width="55.434" height="33.41" transform="translate(42.378 99.353)" fill="#455a64"/>
      <rect id="Rectangle_168" data-name="Rectangle 168" width="55.434" height="14.578" transform="translate(42.378 84.908)" fill="#455a64"/>
      <path id="Path_37" data-name="Path 37" d="M133.81,284.891l5.669-.118,5.673-.083h.161v.2l.063,7.618.025,7.622c0,5.08.03,10.16,0,15.216s-.021,10.16-.076,15.24-.1,10.16-.19,15.24q-.14-7.623-.19-15.24c-.051-5.08-.059-10.16-.072-15.24s0-10.155,0-15.216l.025-7.622.063-7.618.169.2-5.673-.083Z" transform="translate(-102.774 -217.236)" fill="#263238"/>
      <path id="Path_38" data-name="Path 38" d="M291.275,285.1c.118,5.1.173,10.194.22,15.294l.063,15.294-.063,15.3-.072,7.647-.14,7.647-.14-7.647-.076-7.647-.068-15.3.068-15.294C291.106,295.294,291.161,290.2,291.275,285.1Z" transform="translate(-193.463 -217.445)" fill="#263238"/>
      <path id="Path_39" data-name="Path 39" d="M216.054,349.334c-4.861.133-9.73.2-14.583.25l-14.587.079-11.676-.079-7.294-.093-7.294-.162,7.294-.162,7.294-.093L186.884,349l14.587.079C206.332,349.133,211.193,349.2,216.054,349.334Z" transform="translate(-118.242 -249.981)" fill="#263238"/>
      <path id="Path_40" data-name="Path 40" d="M216.054,319.909c-4.861.137-9.73.2-14.583.25l-14.587.079-11.676-.074-7.294-.093-7.294-.162,7.294-.162,7.294-.088,11.676-.079,14.587.079Q208.762,319.732,216.054,319.909Z" transform="translate(-118.242 -235.001)" fill="#263238"/>
      <path id="Path_41" data-name="Path 41" d="M76.256,417.75l-.372,5.276-.863,12.187h-3.96L70.2,423.026l-.368-5.276Z" transform="translate(-65.862 -284.987)" fill="#c7c7c7"/>
      <path id="Path_42" data-name="Path 42" d="M69.83,417.75h6.426l-.372,5.276H70.2Z" transform="translate(-65.862 -284.987)" fill="#a6a6a6"/>
      <path id="Path_43" data-name="Path 43" d="M141.7,417.75l-.368,5.276-.867,12.187H136.5l-.863-12.187-.368-5.276Z" transform="translate(-103.617 -284.987)" fill="#c7c7c7"/>
      <path id="Path_44" data-name="Path 44" d="M135.27,417.75H141.7l-.368,5.276h-5.69Z" transform="translate(-103.617 -284.987)" fill="#a6a6a6"/>
      <path id="Path_45" data-name="Path 45" d="M243.361,417.75l-.372,5.276-.863,12.187h-3.96l-.863-12.187-.372-5.276Z" transform="translate(-162.268 -284.987)" fill="#c7c7c7"/>
      <path id="Path_46" data-name="Path 46" d="M236.93,417.75h6.431l-.372,5.276H237.3Z" transform="translate(-162.268 -284.987)" fill="#a6a6a6"/>
      <path id="Path_47" data-name="Path 47" d="M308.816,417.75l-.368,5.276-.867,12.187h-3.96l-.863-12.187-.368-5.276Z" transform="translate(-200.035 -284.987)" fill="#c7c7c7"/>
      <path id="Path_48" data-name="Path 48" d="M308.816,417.75l-.368,5.276h-5.69l-.368-5.276Z" transform="translate(-200.035 -284.987)" fill="#a6a6a6"/>
      <path id="Path_49" data-name="Path 49" d="M365.734,242.387c-.656,1.1-25.676,22.784-27.076,22.907-.533.059-3.469-3.986-6.892-8.992L309.53,248.11l17.193-14.99,21.153,9.149s12.776-3.333,14.333-3.279S366.389,241.292,365.734,242.387Z" transform="translate(-204.154 -190.978)" fill="#d3766a"/>
      <path id="Path_50" data-name="Path 50" d="M391.382,248.474c-.423.712-10.843,10.381-18.763,16.889-1.832,1.5-3.52,2.861-4.895,3.927a20.506,20.506,0,0,1-3.494,2.454c-.512.039-3.566-3.976-6.642-8.781a27.24,27.24,0,0,0-3.968-1.841l15.7-14.769,4.053,1.841s12.895-3.239,14.46-3.176S392.042,247.375,391.382,248.474Z" transform="translate(-229.591 -197.036)" fill="#407bff"/>
      <g id="Group_26" data-name="Group 26" transform="translate(124.029 47.982)" opacity="0.2">
        <path id="Path_51" data-name="Path 51" d="M391.382,248.474c-.423.712-10.843,10.381-18.763,16.889-1.832,1.5-3.52,2.861-4.895,3.927a20.506,20.506,0,0,1-3.494,2.454c-.512.039-3.566-3.976-6.642-8.781a27.24,27.24,0,0,0-3.968-1.841l15.7-14.769,4.053,1.841s12.895-3.239,14.46-3.176S392.042,247.375,391.382,248.474Z" transform="translate(-353.62 -245.018)"/>
      </g>
      <g id="Group_27" data-name="Group 27" transform="translate(126.479 48.898)" opacity="0.1">
        <path id="Path_52" data-name="Path 52" d="M377.9,286.008a5.043,5.043,0,0,0-2.961-2.145,4.1,4.1,0,0,0-2.352.157,5.518,5.518,0,0,0-2.014,1.414c-.034.034,0,.093.047.059a4.361,4.361,0,0,1,4.3-1.124,4.57,4.57,0,0,1,1.908,1.134,5.712,5.712,0,0,1,.728.884,5.171,5.171,0,0,1,.3.491c.093.177.14.334.322.4a.172.172,0,0,0,.207-.137C378.491,286.822,378.072,286.273,377.9,286.008Z" transform="translate(-365.843 -265.66)"/>
        <path id="Path_53" data-name="Path 53" d="M424.039,246.9a3.876,3.876,0,0,0-1.616,1.7,11.884,11.884,0,0,0-1,2.454,12.273,12.273,0,0,0-.461,2.6,12.126,12.126,0,0,0-.021,1.3,4.973,4.973,0,0,0,.148,1.306.065.065,0,0,0,.127,0q.025-.581,0-1.163.017-.651.1-1.3a15.094,15.094,0,0,1,.487-2.454,8.373,8.373,0,0,1,2.361-4.1.2.2,0,0,0,.093-.245.157.157,0,0,0-.211-.108Z" transform="translate(-394.904 -246.884)"/>
        <path id="Path_54" data-name="Path 54" d="M375.515,252.964c-3.482,3.382-6.947,6.793-10.458,10.131-1,.947-1.984,1.909-3,2.837-.034.029,0,.083.047.054a131.9,131.9,0,0,0,10.716-9.782c.96-.982,1.9-2.037,2.818-3.082C375.73,253.014,375.608,252.861,375.515,252.964Z" transform="translate(-360.933 -249.962)"/>
        <path id="Path_55" data-name="Path 55" d="M360.846,277.079a.258.258,0,0,0-.059-.079l-.089-.059-.165-.113c-.118-.074-.237-.147-.36-.216-.237-.133-.478-.25-.723-.363a.034.034,0,0,0-.034.024.044.044,0,0,0,.009.045c.228.137.457.29.681.442l.33.221.173.123a.358.358,0,0,0,.178.083.061.061,0,0,0,.057-.034.084.084,0,0,0,0-.074Z" transform="translate(-359.412 -261.836)"/>
        <path id="Path_56" data-name="Path 56" d="M364.674,273.8a.205.205,0,0,0-.059-.079l-.085-.059-.165-.113c-.118-.074-.237-.147-.36-.216-.237-.133-.478-.25-.723-.363-.034,0-.059.049-.03.069q.351.211.685.442c.106.079.22.152.33.226l.173.118a.425.425,0,0,0,.173.088.061.061,0,0,0,.06-.035A.084.084,0,0,0,364.674,273.8Z" transform="translate(-361.62 -260.166)"/>
        <path id="Path_57" data-name="Path 57" d="M368.511,270.524a.28.28,0,0,0-.059-.083l-.085-.059-.169-.108q-.173-.118-.355-.221c-.237-.128-.482-.25-.723-.363-.034,0-.063.049-.03.069.233.142.457.29.681.447l.33.221.173.118a.443.443,0,0,0,.178.088A.073.073,0,0,0,368.511,270.524Z" transform="translate(-363.833 -258.496)"/>
        <path id="Path_58" data-name="Path 58" d="M372.35,267.249a.258.258,0,0,0-.059-.079l-.089-.064-.165-.108c-.118-.079-.237-.152-.36-.221-.237-.128-.478-.245-.723-.358-.034,0-.059.044-.025.064.233.142.457.294.681.447l.33.221.173.118a.368.368,0,0,0,.178.088.061.061,0,0,0,.057-.034A.084.084,0,0,0,372.35,267.249Z" transform="translate(-366.047 -256.831)"/>
        <path id="Path_59" data-name="Path 59" d="M376.2,263.969a.256.256,0,0,0-.059-.079l-.089-.059-.165-.113a3.972,3.972,0,0,0-.36-.216c-.237-.133-.478-.25-.723-.363a.034.034,0,0,0-.034.024.044.044,0,0,0,.009.045c.228.137.457.29.681.442l.33.221.173.123a.358.358,0,0,0,.178.083.061.061,0,0,0,.057-.034.084.084,0,0,0,0-.074Z" transform="translate(-368.268 -255.161)"/>
        <path id="Path_60" data-name="Path 60" d="M380.041,260.689a.2.2,0,0,0-.059-.078l-.085-.059-.165-.113c-.118-.074-.237-.147-.36-.216-.237-.133-.478-.25-.723-.363-.034,0-.063.049-.03.069.233.137.461.29.685.442.106.079.22.147.33.226l.173.118a.362.362,0,0,0,.173.083.062.062,0,0,0,.057-.034A.084.084,0,0,0,380.041,260.689Z" transform="translate(-370.485 -253.491)"/>
        <path id="Path_61" data-name="Path 61" d="M383.861,257.414a.28.28,0,0,0-.059-.083l-.085-.059-.169-.108a4.089,4.089,0,0,0-.355-.221c-.237-.133-.482-.25-.723-.363-.034,0-.063.049-.03.069.233.142.457.29.681.447l.33.221.173.118a.442.442,0,0,0,.178.088.061.061,0,0,0,.057-.034A.084.084,0,0,0,383.861,257.414Z" transform="translate(-372.689 -251.821)"/>
        <path id="Path_62" data-name="Path 62" d="M387.7,254.14a.361.361,0,0,0-.059-.083l-.089-.059-.165-.108c-.118-.079-.237-.152-.36-.221-.237-.128-.478-.245-.723-.358-.034,0-.059.044-.025.064.228.142.457.29.681.447l.33.221.173.118a.368.368,0,0,0,.178.088.067.067,0,0,0,.054-.036.089.089,0,0,0,.006-.072Z" transform="translate(-374.903 -250.156)"/>
        <path id="Path_63" data-name="Path 63" d="M391.546,250.859a.347.347,0,0,0-.059-.079.928.928,0,0,0-.089-.059l-.165-.113a3.964,3.964,0,0,0-.36-.216c-.237-.133-.478-.25-.723-.363a.034.034,0,0,0-.034.024.044.044,0,0,0,.009.045c.228.137.457.29.681.442l.33.221.173.118a.372.372,0,0,0,.173.088.06.06,0,0,0,.06-.032A.084.084,0,0,0,391.546,250.859Z" transform="translate(-377.125 -248.486)"/>
      </g>
      <path id="Path_64" data-name="Path 64" d="M261.326,224.971l-1.751,3.74-8.736,18.651A19.662,19.662,0,0,1,243.4,245.3c-5.991-3.038-13.618-8.639-17.045-10.626-.182-.1-15.9,20.124-29,26.681-10.043,5.016-18.069,2.292-24.381-7.976l15.6-13.419c12.912-12.1,26.721-29.607,36.874-30.8,7.255-.854,20.895,5.3,29.1,10.268A29.559,29.559,0,0,1,261.326,224.971Z" transform="translate(-125.367 -178.736)" fill="#263238"/>
      <path id="Path_65" data-name="Path 65" d="M360.255,241.078c-1.823,3.662-1.341,2.582-3.135,6.273-.876,1.8-5.3,10.862-5.881,12.7a.047.047,0,0,0,.02.046.034.034,0,0,0,.044-.007c1.037-1.551,5.293-10.715,6.139-12.536,1.735-3.725,1.206-2.68,2.9-6.425a.067.067,0,0,0,0-.064.049.049,0,0,0-.049-.03.053.053,0,0,0-.043.04Z" transform="translate(-228.218 -195.01)" fill="#37474f"/>
      <path id="Path_66" data-name="Path 66" d="M354.869,314.942c-1.041.574-32.051,4.859-33.32,4.147-.487-.26-1.269-5.463-2.115-11.78L303.7,287.329l21.348-3.019,14.384,20.173s12.506,4.516,13.83,5.468S355.91,314.373,354.869,314.942Z" transform="translate(-200.791 -217.043)" fill="#d3766a"/>
      <path id="Path_67" data-name="Path 67" d="M373.037,331.837c-.681.363-13.864,2.709-23.526,3.755-2.234.245-4.281.442-5.923.579a17.177,17.177,0,0,1-4.083.088c-.457-.265-1.375-5.512-1.967-11.456a33.389,33.389,0,0,0-2.648-3.892l19.93-3.691,2.716,3.927s12.569,4.668,13.9,5.63S374.082,331.277,373.037,331.837Z" transform="translate(-218.785 -233.8)" fill="#407bff"/>
      <g id="Group_28" data-name="Group 28" transform="translate(116.105 83.42)" opacity="0.2">
        <path id="Path_68" data-name="Path 68" d="M373.037,331.837c-.681.363-13.864,2.709-23.526,3.755-2.234.245-4.281.442-5.923.579a17.177,17.177,0,0,1-4.083.088c-.457-.265-1.375-5.512-1.967-11.456a33.389,33.389,0,0,0-2.648-3.892l19.93-3.691,2.716,3.927s12.569,4.668,13.9,5.63S374.082,331.277,373.037,331.837Z" transform="translate(-334.89 -317.22)"/>
      </g>
      <g id="Group_29" data-name="Group 29" transform="translate(118.541 84.253)" opacity="0.1">
        <path id="Path_69" data-name="Path 69" d="M350.967,345.905a6.34,6.34,0,0,0-.3-1.325,5.958,5.958,0,0,0-1.328-2.238,4.514,4.514,0,0,0-2.115-1.232,4.892,4.892,0,0,0-2.352.059c-.042,0-.025.088,0,.079a4.44,4.44,0,0,1,4.184,1.526,5.718,5.718,0,0,1,1.168,2.086,7.1,7.1,0,0,1,.25,1.188,5.873,5.873,0,0,1,.042.614.735.735,0,0,0,.106.53.153.153,0,0,0,.237,0C351.136,346.941,351,346.229,350.967,345.905Z" transform="translate(-343.072 -330.158)"/>
        <path id="Path_70" data-name="Path 70" d="M406.062,335.252a3.174,3.174,0,0,0-2.115.54,9.4,9.4,0,0,0-1.916,1.531,10.3,10.3,0,0,0-1.523,1.988,11.954,11.954,0,0,0-.575,1.109,4.738,4.738,0,0,0-.423,1.217.082.082,0,0,0,.038.084.062.062,0,0,0,.08-.021q.28-.475.516-.982c.2-.368.423-.722.643-1.065a13.363,13.363,0,0,1,1.481-1.85,6.728,6.728,0,0,1,3.808-2.179.178.178,0,0,0,.154-.194A.173.173,0,0,0,406.062,335.252Z" transform="translate(-374.607 -327.225)"/>
        <path id="Path_71" data-name="Path 71" d="M358.626,323.33c-4.476.913-8.943,1.86-13.424,2.714-1.269.245-2.538.491-3.808.721-.042,0-.025.079,0,.079a109.9,109.9,0,0,0,13.5-2.268c1.269-.309,2.517-.668,3.769-1.036a.11.11,0,0,0,.065-.123A.1.1,0,0,0,358.626,323.33Z" transform="translate(-341.064 -321.163)"/>
        <path id="Path_72" data-name="Path 72" d="M341.542,327.837a.444.444,0,0,0,0-.108l-.051-.1-.1-.191q-.1-.206-.216-.4c-.148-.25-.309-.491-.47-.736-.025-.034-.076,0-.055.044.14.255.271.491.4.78.059.128.127.255.19.383l.1.206a.526.526,0,0,0,.114.177.06.06,0,0,0,.053-.008.079.079,0,0,0,.031-.051Z" transform="translate(-340.648 -322.671)"/>
        <path id="Path_73" data-name="Path 73" d="M346.5,326.912a.441.441,0,0,0,0-.1l-.051-.1c-.03-.064-.063-.128-.1-.191s-.14-.265-.216-.393c-.148-.255-.309-.491-.47-.736,0-.034-.072,0-.055.044.14.255.275.515.4.78l.19.383c.034.069.068.133.1.2a.409.409,0,0,0,.118.177.056.056,0,0,0,.052-.008.075.075,0,0,0,.029-.05Z" transform="translate(-343.513 -322.203)"/>
        <path id="Path_74" data-name="Path 74" d="M351.464,325.992a.445.445,0,0,0,0-.1l-.051-.1-.093-.191c-.072-.133-.144-.265-.22-.4-.148-.25-.3-.491-.47-.731-.021-.034-.072,0-.055.044.144.255.275.515.4.775l.19.388c.034.064.068.133.1.2a.439.439,0,0,0,.118.177.056.056,0,0,0,.052-.008A.075.075,0,0,0,351.464,325.992Z" transform="translate(-346.374 -321.734)"/>
        <path id="Path_75" data-name="Path 75" d="M356.427,325.072a.277.277,0,0,0,0-.1q-.023-.053-.051-.1l-.093-.191c-.072-.137-.14-.27-.216-.4-.152-.25-.309-.491-.474-.731-.021-.034-.072,0-.051.039.14.255.271.52.4.78l.19.383.1.206a.491.491,0,0,0,.114.177.056.056,0,0,0,.052-.008A.075.075,0,0,0,356.427,325.072Z" transform="translate(-349.239 -321.266)"/>
        <path id="Path_76" data-name="Path 76" d="M361.389,324.149a.232.232,0,0,0,0-.108c0-.034-.034-.064-.047-.1l-.1-.191q-.1-.206-.216-.4c-.152-.25-.309-.491-.474-.736,0-.029-.072,0-.051.044.14.255.271.491.4.78l.19.383.1.206a.526.526,0,0,0,.114.177.056.056,0,0,0,.052-.008.075.075,0,0,0,.029-.05Z" transform="translate(-352.102 -320.795)"/>
        <path id="Path_77" data-name="Path 77" d="M366.347,323.222a.221.221,0,0,0,0-.1,1.1,1.1,0,0,0-.047-.1l-.1-.191c-.068-.133-.14-.265-.216-.393-.148-.255-.309-.491-.47-.736-.025-.034-.076,0-.055.044.14.255.271.515.4.78l.19.383.1.2a.443.443,0,0,0,.114.177.052.052,0,0,0,.053-.006A.071.071,0,0,0,366.347,323.222Z" transform="translate(-354.962 -320.324)"/>
        <path id="Path_78" data-name="Path 78" d="M371.312,322.3a.443.443,0,0,0,0-.1l-.051-.1-.1-.191q-.1-.2-.216-.4c-.148-.25-.309-.491-.47-.731-.025-.034-.076,0-.055.044.14.255.271.515.4.78.059.128.127.255.19.383s.063.133.1.2a.492.492,0,0,0,.114.177.056.056,0,0,0,.054-.006A.075.075,0,0,0,371.312,322.3Z" transform="translate(-357.824 -319.856)"/>
        <path id="Path_79" data-name="Path 79" d="M376.273,321.4a.4.4,0,0,0,0-.1l-.051-.1c-.03-.064-.063-.128-.1-.191q-.1-.206-.216-.4c-.148-.25-.309-.491-.47-.731-.025-.034-.072,0-.055.039.14.255.271.52.4.78l.19.383c.034.069.068.137.1.206a.527.527,0,0,0,.114.177.06.06,0,0,0,.053-.008A.079.079,0,0,0,376.273,321.4Z" transform="translate(-360.687 -319.397)"/>
        <path id="Path_80" data-name="Path 80" d="M381.234,320.459a.369.369,0,0,0,0-.1l-.051-.1-.093-.191c-.072-.137-.144-.27-.22-.4q-.224-.373-.47-.736c-.021-.029-.072,0-.055.044.144.255.275.515.4.78l.19.383c.034.069.068.137.1.206a.488.488,0,0,0,.118.177.056.056,0,0,0,.052-.008.075.075,0,0,0,.029-.05Z" transform="translate(-363.549 -318.916)"/>
      </g>
      <path id="Path_81" data-name="Path 81" d="M162.942,248.907s-3.934,14.165,1.9,21.366c4.2,5.188,10.335,6.572,15.789,6.508,15.069-.182,29.957-18.99,35-19.348,1.777-.123,8.85,12.919,14.122,20.531a17.043,17.043,0,0,0,5.728,5.09L252.051,268.2a19.314,19.314,0,0,0-2.627-6.2c-7.361-10.347-22.68-29.813-32.106-31.256-8.076-1.232-30.769,15.108-31.239,14.8-.762-.491-4.121-3.038-4.121-3.038Z" transform="translate(-118.833 -189.733)" fill="#263238"/>
      <path id="Path_82" data-name="Path 82" d="M348.947,302.2c-2.145,1.59-4.184,3.367-6.232,5.095s-4.074,3.436-6.088,5.222c-1.138.982-2.276,2.012-3.384,3.058-.03.025,0,.074.034.049,2.115-1.625,4.18-3.357,6.236-5.09s4.074-3.436,6.092-5.217c1.138-.982,2.293-1.993,3.384-3.053a.045.045,0,0,0,.006-.056.032.032,0,0,0-.049-.007Z" transform="translate(-217.828 -226.148)" fill="#37474f"/>
      <path id="Path_83" data-name="Path 83" d="M185.258,267.032c0-.083-.127-.044-.123.034a10.776,10.776,0,0,1-1.388,6.381c-1.248,2.066-3.245,3.372-5.043,4.707-.169.128,0,.442.178.353a16.153,16.153,0,0,0,3.2-2.061,8.981,8.981,0,0,0,2.3-2.724,9.539,9.539,0,0,0,.876-6.69Z" transform="translate(-128.635 -208.221)" fill="#37474f"/>
      <path id="Path_84" data-name="Path 84" d="M210.894,259.365c-.423-.461-.846-.893-1.269-1.335-1-1.05-2.01-2.106-3.046-3.107-.1-.093-.25.088-.157.191.719.825,1.468,1.615,2.2,2.41l1.142,1.222a8.1,8.1,0,0,1,1.07,1.193.774.774,0,0,1,.066.69.6.6,0,0,1-.489.4,1.415,1.415,0,0,1-1.155-.294,15.145,15.145,0,0,1-2.115-2.012c-.423-.412-.846-.829-1.269-1.237s-.922-.834-1.371-1.271c-.03-.025-.072.025-.047.059.423.491.787.982,1.193,1.472s.817.982,1.231,1.472.8.888,1.21,1.315a4.319,4.319,0,0,0,1.18.923,1.406,1.406,0,0,0,2.081-.78A1.5,1.5,0,0,0,210.894,259.365Z" transform="translate(-143.53 -202.067)" fill="#37474f"/>
      <path id="Path_85" data-name="Path 85" d="M239.566,296.55c-4.154-5.973-15.505-21.3-18.166-23.977a2.343,2.343,0,0,0-1.967-.687,5.278,5.278,0,0,0-2.115,1.1l-2.335,1.62-4.8,3.333c-3,2.081-5.986,4.2-9.007,6.238a59.148,59.148,0,0,1-8.351,4.884c-5.542,2.543-12.307,3.671-17.671-.074a13.545,13.545,0,0,1-5.077-7.6,34.276,34.276,0,0,1-.977-9.846c0-.8.038-1.6.076-2.4a.028.028,0,0,0-.055,0c-.423,6.175-.423,13.419,3.617,18.161,4.269,5.016,11.05,5.291,16.588,3.588,6.211-1.9,11.71-6.057,17.164-9.851l9.527-6.636c.77-.535,1.527-1.1,2.314-1.6s1.692-.834,2.441-.157c2.538,2.258,18.1,23.309,18.657,24.05C239.511,296.766,239.617,296.653,239.566,296.55Z" transform="translate(-123.043 -209.311)" fill="#37474f"/>
      <path id="Path_86" data-name="Path 86" d="M230.82,242.31c4.349-2.69,11.922-7.819,21.043-11.255a18.053,18.053,0,0,1,3.655-.859,6.632,6.632,0,0,1,1.9.034,9.609,9.609,0,0,1,1.832.52,26.129,26.129,0,0,1,6.524,4.143,73.638,73.638,0,0,1,5.986,5.335c1.836,1.919,3.571,3.676,5.284,5.738,3.435,4.113,7.192,8.437,10.251,12.933-1.608-2.169-8.774-10.612-10.517-12.629A94.147,94.147,0,0,0,265.49,235.35a25.7,25.7,0,0,0-6.388-4.113,6.933,6.933,0,0,0-3.545-.555,19.225,19.225,0,0,0-3.6.79A52.812,52.812,0,0,0,245,234.29C242.742,235.369,233.037,241.053,230.82,242.31Z" transform="translate(-158.743 -189.463)" fill="#37474f"/>
      <path id="Path_87" data-name="Path 87" d="M177.732,195.075c6.05.295,25.4,3.75,26.894,9.488,1.434,5.507-3.228,9.09-9.642,7.23-4.59-1.33-12.087-6.346-17.045-10.219C173.916,198.428,172.139,194.805,177.732,195.075Z" transform="translate(-126.072 -171.599)" fill="#d3766a"/>
      <path id="Path_88" data-name="Path 88" d="M177.732,195.075c6.05.295,25.4,3.75,26.894,9.488,1.434,5.507-3.228,9.09-9.642,7.23-4.59-1.33-12.087-6.346-17.045-10.219C173.916,198.428,172.139,194.805,177.732,195.075Z" transform="translate(-126.072 -171.599)" fill="#407bff"/>
      <path id="Path_89" data-name="Path 89" d="M195.589,212.092c-.2-.044-.423-.1-.6-.157-4.59-1.335-12.087-6.351-17.045-10.224-3.414-2.665-5.212-5.679-2.259-6.381C181.188,199.939,190.419,207.65,195.589,212.092Z" transform="translate(-126.071 -171.736)" opacity="0.1"/>
      <path id="Path_90" data-name="Path 90" d="M211.007,200.676c3.947,1.8,6.439-3.755,5.36-6.685-2.538-6.872-8.63-14.185-13.183-18.406-1.464-1.36-9.5,8.344-8.152,10.047C196.653,187.694,203.265,197.142,211.007,200.676Z" transform="translate(-138.008 -161.616)" fill="#d3766a"/>
      <path id="Path_91" data-name="Path 91" d="M191.521,162.446a72.276,72.276,0,0,0-4.882-9.37c-1.206-1.551-4.954-5.713-6.071-4.761s-.1,2.273-.1,2.273-1.823-1.472-2.873-.393.588,3.073.588,3.073-1.967-1.35-2.961-.191.956,2.847.956,2.847-1.751-1.33-2.208,0c-.554,1.625,2.906,3.657,4.129,5.483.279.412,5.106,8.864,5.106,8.864Z" transform="translate(-125.909 -147.726)" fill="#d3766a"/>
      <path id="Path_92" data-name="Path 92" d="M178.815,163.5c2.538,1.5,3.435,2.67,4.874,5.468a.042.042,0,0,0,.054.012.056.056,0,0,0,.026-.057c-1.193-2.886-2.115-4.54-4.895-5.571C178.739,163.3,178.7,163.427,178.815,163.5Z" transform="translate(-128.7 -155.447)" fill="#263238"/>
      <path id="Path_93" data-name="Path 93" d="M183.455,158.156a16.24,16.24,0,0,1,5.191,5.89c0,.044.085,0,.063-.044-1.464-2.911-2.428-4.53-5.157-5.973C183.43,157.959,183.337,158.072,183.455,158.156Z" transform="translate(-131.385 -152.732)" fill="#263238"/>
      <path id="Path_94" data-name="Path 94" d="M189.482,153.243a15.1,15.1,0,0,1,4.8,6.263.05.05,0,0,0,.065.019.066.066,0,0,0,.032-.068,10.7,10.7,0,0,0-4.836-6.287C189.385,153.056,189.338,153.12,189.482,153.243Z" transform="translate(-134.844 -150.239)" fill="#263238"/>
      <path id="Path_95" data-name="Path 95" d="M184.132,148.934l5.233,14.6a1.076,1.076,0,0,1-.3,1.144l-5.5,4.074a.486.486,0,0,1-.477.072.6.6,0,0,1-.343-.391l-5.229-14.607a1.077,1.077,0,0,1,.3-1.144l5.5-4.069a.48.48,0,0,1,.479-.078A.592.592,0,0,1,184.132,148.934Z" transform="translate(-127.958 -147.894)" fill="#37474f"/>
      <path id="Path_96" data-name="Path 96" d="M182.536,149.121l-5.5,4.074a1.078,1.078,0,0,0-.292,1.144l5.229,14.6a.6.6,0,0,0,.341.391.482.482,0,0,0,.475-.072l5.5-4.069a1.077,1.077,0,0,0,.3-1.144l-5.229-14.607a.6.6,0,0,0-.343-.391.486.486,0,0,0-.477.072Zm5.542,14.725a.989.989,0,0,1-.25,1.065l-4.92,3.642a.44.44,0,0,1-.442.052.553.553,0,0,1-.3-.376l-4.874-13.6c-.279-.785-.068-.982.207-1.193l.986-.726c.055-.044.131,0,.169.108v.044c.089.245.19.172.317.074l2.28-1.684c.127-.1.228-.172.14-.417v-.044a.253.253,0,0,1,.038-.265l.986-.731c.275-.2.537-.265.791.452Z" transform="translate(-127.512 -148.154)" fill="#263238"/>
      <path id="Path_97" data-name="Path 97" d="M184.362,154.117l-.622.456a.031.031,0,0,1-.055,0h0a.075.075,0,0,1,.021-.079l.622-.461a.033.033,0,0,1,.033,0,.042.042,0,0,1,.022.027h0A.08.08,0,0,1,184.362,154.117Z" transform="translate(-131.547 -150.706)" fill="#fff"/>
      <line id="Line_1" data-name="Line 1" x1="0.021" y2="0.015" transform="translate(54.321 19.216)" fill="none"/>
      <path id="Path_98" data-name="Path 98" d="M183.845,150.922l4.874,13.6a.989.989,0,0,1-.25,1.065l-4.92,3.642a.44.44,0,0,1-.442.052.553.553,0,0,1-.3-.376l-4.874-13.6c-.279-.785-.068-.982.207-1.193l.986-.726c.055-.044.131,0,.169.108v.044c.089.245.19.172.317.074l2.28-1.684c.127-.1.228-.172.14-.417v-.044a.253.253,0,0,1,.038-.265l.986-.731C183.329,150.269,183.591,150.205,183.845,150.922Z" transform="translate(-128.153 -148.826)" fill="#fff"/>
      <g id="freepik--u5Zjqx--inject-66" transform="translate(50.703 4.991)">
        <path id="Path_99" data-name="Path 99" d="M180.5,157.43v.029a.1.1,0,0,0-.106,0,.211.211,0,0,0-.076.118H180.3a.205.205,0,0,1,0-.044l.034-.044h.106Z" transform="translate(-180.297 -157.43)" fill="#a6a6a6"/>
        <path id="Path_100" data-name="Path 100" d="M180.4,157.676h-.021a.171.171,0,0,1,.047-.083.092.092,0,0,1,.106-.029v.029a.074.074,0,0,0-.076,0A.166.166,0,0,0,180.4,157.676Z" transform="translate(-180.345 -157.495)" fill="#a6a6a6"/>
        <path id="Path_101" data-name="Path 101" d="M180.623,157.67v.029a.055.055,0,0,0-.038,0,.059.059,0,0,0-.025.039h0A.082.082,0,0,1,180.623,157.67Z" transform="translate(-180.449 -157.552)" fill="#a6a6a6"/>
        <path id="Path_102" data-name="Path 102" d="M180.655,157.769h0a.034.034,0,0,1,0-.029Z" transform="translate(-180.502 -157.588)" fill="#a6a6a6"/>
      </g>
      <path id="Path_103" data-name="Path 103" d="M178.605,158.8a.078.078,0,0,1,0-.079.038.038,0,0,1,.059,0,.087.087,0,0,1-.021.083.037.037,0,0,1-.038,0Z" transform="translate(-128.612 -153.091)" fill="#a6a6a6"/>
      <path id="Path_104" data-name="Path 104" d="M178.906,158.619a.087.087,0,0,1,.021-.083.038.038,0,0,1,.059,0,.078.078,0,0,1,0,.079.044.044,0,0,1-.039.036A.043.043,0,0,1,178.906,158.619Z" transform="translate(-128.79 -152.994)" fill="#a6a6a6"/>
      <path id="Path_105" data-name="Path 105" d="M179.2,158.432a.075.075,0,0,1,.021-.079.035.035,0,0,1,.059,0,.078.078,0,0,1,0,.079.041.041,0,1,1-.08,0Z" transform="translate(-128.957 -152.9)" fill="#a6a6a6"/>
      <path id="Path_106" data-name="Path 106" d="M179.492,158.244a.064.064,0,0,1,.021-.079.035.035,0,0,1,.055,0,.075.075,0,0,1-.021.083.035.035,0,0,1-.028.011A.037.037,0,0,1,179.492,158.244Z" transform="translate(-129.127 -152.806)" fill="#a6a6a6"/>
      <path id="Path_107" data-name="Path 107" d="M179.784,158.059a.075.075,0,0,1,.021-.083.035.035,0,0,1,.055,0,.07.07,0,0,1-.021.079.037.037,0,0,1-.027.016A.035.035,0,0,1,179.784,158.059Z" transform="translate(-129.296 -152.71)" fill="#a6a6a6"/>
      <path id="Path_108" data-name="Path 108" d="M190.145,151.1l-.3.221.063.172.3-.226Z" transform="translate(-135.1 -149.216)" fill="#a6a6a6"/>
      <path id="Path_109" data-name="Path 109" d="M189.674,151.486l-.144-.4.487-.358.144.4Z" transform="translate(-134.921 -149.027)" fill="#fff"/>
      <path id="Path_110" data-name="Path 110" d="M190.113,151.26l-.2.152.042.128.207-.152Z" transform="translate(-135.141 -149.297)" fill="#a6a6a6"/>
      <path id="Path_111" data-name="Path 111" d="M190.673,151.213l-.025.02-.038-.1.03-.02Z" transform="translate(-135.544 -149.221)" fill="#a6a6a6"/>
      <path id="Path_112" data-name="Path 112" d="M196.348,182.387l-2.475,1.831a.108.108,0,0,0-.03.113.064.064,0,0,0,.036.04.052.052,0,0,0,.049-.005l2.475-1.836a.108.108,0,0,0,.03-.113.059.059,0,0,0-.036-.039A.049.049,0,0,0,196.348,182.387Z" transform="translate(-137.407 -165.14)" fill="#a6a6a6"/>
      <path id="Path_113" data-name="Path 113" d="M189.817,166.739a1.042,1.042,0,0,1-.3,1.129.479.479,0,0,1-.47.078.587.587,0,0,1-.342-.382,1.042,1.042,0,0,1,.3-1.129.476.476,0,0,1,.471-.081.584.584,0,0,1,.341.385Z" transform="translate(-134.413 -156.967)" fill="#455a64"/>
      <path id="Path_114" data-name="Path 114" d="M189.383,167.5a.1.1,0,0,0-.03.108.055.055,0,0,0,.032.036.045.045,0,0,0,.044-.007.1.1,0,0,0,.03-.108.052.052,0,0,0-.031-.04A.042.042,0,0,0,189.383,167.5Z" transform="translate(-134.817 -157.557)" fill="#fff"/>
      <path id="Path_115" data-name="Path 115" d="M189.743,167.267a.1.1,0,0,0-.03.108.059.059,0,0,0,.034.036.049.049,0,0,0,.046-.007.1.1,0,0,0,.03-.108.056.056,0,0,0-.033-.04.045.045,0,0,0-.047.01Z" transform="translate(-135.024 -157.441)" fill="#fff"/>
      <path id="Path_116" data-name="Path 116" d="M190.16,167.167a.1.1,0,0,0,.03-.108.055.055,0,0,0-.032-.036.045.045,0,0,0-.044.007.1.1,0,0,0-.03.108.052.052,0,0,0,.031.04A.042.042,0,0,0,190.16,167.167Z" transform="translate(-135.238 -157.321)" fill="#fff"/>
      <path id="Path_117" data-name="Path 117" d="M189.543,167.89a.1.1,0,0,0-.03.108.056.056,0,0,0,.033.04.045.045,0,0,0,.047-.01.091.091,0,0,0,.025-.108.055.055,0,0,0-.032-.036A.045.045,0,0,0,189.543,167.89Z" transform="translate(-134.909 -157.759)" fill="#fff"/>
      <path id="Path_118" data-name="Path 118" d="M189.955,167.66a.091.091,0,0,0-.025.108.052.052,0,0,0,.031.04.042.042,0,0,0,.045-.011.1.1,0,0,0,.03-.108.059.059,0,0,0-.034-.036A.049.049,0,0,0,189.955,167.66Z" transform="translate(-135.147 -157.642)" fill="#fff"/>
      <path id="Path_119" data-name="Path 119" d="M190.273,167.426a.1.1,0,0,0-.03.108.059.059,0,0,0,.034.036.049.049,0,0,0,.046-.007.1.1,0,0,0,.025-.108.052.052,0,0,0-.031-.04A.042.042,0,0,0,190.273,167.426Z" transform="translate(-135.33 -157.522)" fill="#fff"/>
      <path id="Path_120" data-name="Path 120" d="M189.7,168.287a.091.091,0,0,0-.025.108.055.055,0,0,0,.032.036.045.045,0,0,0,.044-.007.1.1,0,0,0,.03-.108.056.056,0,0,0-.033-.04A.045.045,0,0,0,189.7,168.287Z" transform="translate(-135.003 -157.96)" fill="#fff"/>
      <path id="Path_121" data-name="Path 121" d="M190.073,168.05a.1.1,0,0,0-.03.108.052.052,0,0,0,.031.04.042.042,0,0,0,.045-.011.091.091,0,0,0,.03-.108.055.055,0,0,0-.032-.036.045.045,0,0,0-.044.007Z" transform="translate(-135.215 -157.841)" fill="#fff"/>
      <path id="Path_122" data-name="Path 122" d="M190.433,167.82a.1.1,0,0,0-.03.108.056.056,0,0,0,.033.04.045.045,0,0,0,.047-.01.1.1,0,0,0,.03-.108.059.059,0,0,0-.034-.036.049.049,0,0,0-.046.007Z" transform="translate(-135.423 -157.724)" fill="#fff"/>
      <path id="Path_123" data-name="Path 123" d="M190.233,168.447a.1.1,0,0,0-.03.108.059.059,0,0,0,.034.036.049.049,0,0,0,.046-.007.1.1,0,0,0,.03-.108.056.056,0,0,0-.033-.04A.045.045,0,0,0,190.233,168.447Z" transform="translate(-135.307 -158.041)" fill="#fff"/>
      <path id="Path_124" data-name="Path 124" d="M195.306,168.616a1.076,1.076,0,0,1-.3,1.129.476.476,0,0,1-.471.081.584.584,0,0,1-.341-.385,1.043,1.043,0,0,1,.3-1.129.477.477,0,0,1,.474-.084A.584.584,0,0,1,195.306,168.616Z" transform="translate(-137.579 -157.922)" fill="#455a64"/>
      <path id="Path_125" data-name="Path 125" d="M195.349,169.2a.226.226,0,0,1-.063.241.1.1,0,0,1-.1.018.124.124,0,0,1-.073-.082.214.214,0,0,1,.063-.241.1.1,0,0,1,.1-.018A.124.124,0,0,1,195.349,169.2Z" transform="translate(-138.134 -158.386)" fill="#fff"/>
      <path id="Path_126" data-name="Path 126" d="M195.667,169.843l.021.064a.637.637,0,0,1-.093.147.4.4,0,0,1-.322.162l-.021-.064a.4.4,0,0,1,.11-.422.183.183,0,0,1,.175-.027A.223.223,0,0,1,195.667,169.843Z" transform="translate(-138.212 -158.682)" fill="#fff"/>
      <path id="Path_127" data-name="Path 127" d="M186.1,169.112a1.042,1.042,0,0,1-.3,1.129.476.476,0,0,1-.471.081.584.584,0,0,1-.341-.385,1.042,1.042,0,0,1,.3-1.129.479.479,0,0,1,.47-.078A.587.587,0,0,1,186.1,169.112Z" transform="translate(-132.267 -158.177)" fill="#455a64"/>
      <path id="Path_128" data-name="Path 128" d="M186.6,171h-.021l-.068-.191h0l.068.191S186.6,171,186.6,171Z" transform="translate(-133.179 -159.251)" fill="#fff"/>
      <path id="Path_129" data-name="Path 129" d="M186.685,171.049l-.165.118v-.029l.161-.118h0A.033.033,0,0,1,186.685,171.049Z" transform="translate(-133.185 -159.358)" fill="#fff"/>
      <path id="Path_130" data-name="Path 130" d="M186.1,169.616l.1.28a.193.193,0,0,1-.055.211.09.09,0,0,1-.118,0,.114.114,0,0,1-.034-.054l-.1-.275a.193.193,0,0,1,.059-.211.078.078,0,0,1,.085,0,.1.1,0,0,1,.063.069Z" transform="translate(-132.813 -158.612)" fill="#fff"/>
      <path id="Path_131" data-name="Path 131" d="M186.192,170.382a.128.128,0,0,1-.123.025.174.174,0,0,1-.1-.108l-.042-.118v-.025l.042.118a.142.142,0,0,0,.08.088.106.106,0,0,0,.11-.025.238.238,0,0,0,.059-.255l-.038-.113h.025l.038.113a.292.292,0,0,1-.072.309Z" transform="translate(-132.844 -158.824)" fill="#fff"/>
      <path id="Path_132" data-name="Path 132" d="M191.586,170.992a1.042,1.042,0,0,1-.3,1.129.473.473,0,0,1-.472.084.58.58,0,0,1-.34-.388,1.036,1.036,0,0,1,.3-1.129.479.479,0,0,1,.47-.078A.587.587,0,0,1,191.586,170.992Z" transform="translate(-135.433 -159.134)" fill="#455a64"/>
      <path id="Path_133" data-name="Path 133" d="M192.348,171.539l.068.182a.073.073,0,0,1,0,.05.059.059,0,0,1-.032.033l-.068.029h-.038l-.076-.216.072-.088h0a.04.04,0,0,1,.042-.039.043.043,0,0,1,.034.049Z" transform="translate(-136.462 -159.597)" fill="#fff"/>
      <path id="Path_134" data-name="Path 134" d="M191.56,171.715l.093.265a.123.123,0,0,1-.038.142l-.245.182a.057.057,0,0,1-.06.013.07.07,0,0,1-.041-.052l-.1-.26a.133.133,0,0,1,.042-.147l.241-.182a.064.064,0,0,1,.061-.009.077.077,0,0,1,.045.049Z" transform="translate(-135.864 -159.686)" fill="#fff"/>
      <path id="Path_135" data-name="Path 135" d="M187.866,173.369a1.042,1.042,0,0,1-.3,1.129.479.479,0,0,1-.47.078.587.587,0,0,1-.342-.382,1.036,1.036,0,0,1,.3-1.129.476.476,0,0,1,.471-.081.584.584,0,0,1,.341.385Z" transform="translate(-133.287 -160.343)" fill="#455a64"/>
      <path id="Path_136" data-name="Path 136" d="M188.034,174.1l-.178.133-.08-.245a.027.027,0,0,0-.047,0,.061.061,0,0,0,0,.069l.085.231-.178.133a.058.058,0,0,0-.021.069.034.034,0,0,0,.051,0l.178-.133.085.231a.027.027,0,0,0,.047,0,.058.058,0,0,0,.021-.069l-.085-.226.178-.133a.055.055,0,0,0,0-.069.029.029,0,0,0-.03-.017.032.032,0,0,0-.025.027Z" transform="translate(-133.814 -160.862)" fill="#fff"/>
      <path id="Path_137" data-name="Path 137" d="M193.536,164.362a1.042,1.042,0,0,1-.3,1.129.476.476,0,0,1-.471.081.584.584,0,0,1-.341-.385,1.036,1.036,0,0,1,.3-1.129.479.479,0,0,1,.47-.078.587.587,0,0,1,.342.382Z" transform="translate(-136.558 -155.758)" fill="#455a64"/>
      <path id="Path_138" data-name="Path 138" d="M194.192,164.972l-.025-.044a.348.348,0,0,0-.059-.079.276.276,0,0,0-.063-.049h-.034v.064a.288.288,0,0,1,.169.186.531.531,0,0,1,0,.3h.03v-.2a.812.812,0,0,0,0-.108.08.08,0,0,1,0-.034A.153.153,0,0,1,194.192,164.972Z" transform="translate(-137.506 -156.191)" fill="#fff"/>
      <path id="Path_139" data-name="Path 139" d="M194.043,165.148a.218.218,0,0,0-.123-.118v.064a.2.2,0,0,1,.114.123.345.345,0,0,1,0,.206h.047A.408.408,0,0,0,194.043,165.148Z" transform="translate(-137.454 -156.308)" fill="#fff"/>
      <path id="Path_140" data-name="Path 140" d="M193.84,165.29v.064a.1.1,0,0,1,.059.064.169.169,0,0,1,0,.1h.042A.194.194,0,0,0,193.84,165.29Z" transform="translate(-137.408 -156.441)" fill="#fff"/>
      <path id="Path_141" data-name="Path 141" d="M193.238,165.9l-.093.069-.085-.231.093-.069Z" transform="translate(-136.958 -156.634)" fill="#fff"/>
      <path id="Path_142" data-name="Path 142" d="M193.28,165.446l.135-.216.152.412-.2.034Z" transform="translate(-137.085 -156.41)" fill="#fff"/>
      <path id="Path_143" data-name="Path 143" d="M194.463,177.812a1.225,1.225,0,0,1-.351,1.335.562.562,0,0,1-.558.095.69.69,0,0,1-.4-.458,1.229,1.229,0,0,1,.355-1.33.559.559,0,0,1,.555-.1.685.685,0,0,1,.4.455Z" transform="translate(-136.973 -162.567)" fill="#407bff"/>
      <path id="Path_144" data-name="Path 144" d="M194.7,178.729l-.025-.029h-.106a.338.338,0,0,0-.152.029,1.031,1.031,0,0,0-.326.241.673.673,0,0,0-.106.162.24.24,0,0,0,0,.049v.079a.124.124,0,0,0,0,.069h0l.207-.152h0a.136.136,0,0,1,.042-.1c.059-.049.123-.093.186-.137a.064.064,0,0,1,.076,0h0l.2-.152Z" transform="translate(-137.488 -163.268)" fill="#fff"/>
      <path id="Path_145" data-name="Path 145" d="M194,179.842h0a.244.244,0,0,0,.034.093c.013.029,0,.029.038,0l.157-.113a.044.044,0,0,0,0-.054l-.025-.079h0Z" transform="translate(-137.5 -163.773)" fill="#fff"/>
      <path id="Path_146" data-name="Path 146" d="M195.437,178.87l-.207.152.034.1a.023.023,0,0,0,.038,0l.157-.118a.05.05,0,0,0,0-.054l-.038-.093Z" transform="translate(-138.21 -163.35)" fill="#fff"/>
      <path id="Path_147" data-name="Path 147" d="M186.661,164.717a.29.29,0,0,1,.085-.309.136.136,0,0,1,.11-.029.025.025,0,0,1,.019.014.034.034,0,0,1,0,.026.037.037,0,0,1-.03.034.082.082,0,0,0-.08,0,.175.175,0,0,0-.063.093.221.221,0,0,0,0,.118.116.116,0,0,0,.063.074.093.093,0,0,0,.093,0,.164.164,0,0,0,.055-.079.034.034,0,0,1,.038,0,.044.044,0,0,1,0,.049.255.255,0,0,1-.08.113.126.126,0,0,1-.128.01A.162.162,0,0,1,186.661,164.717Z" transform="translate(-133.258 -155.975)" fill="#263238"/>
      <path id="Path_148" data-name="Path 148" d="M187.51,164.5a.056.056,0,0,1,0,.049.023.023,0,0,1-.03,0h0l-.118-.324a.045.045,0,0,1,0-.044.023.023,0,0,1,.038,0l.034.1a.1.1,0,0,1,.038-.049.079.079,0,0,1,.078-.015.1.1,0,0,1,.057.064l.042.123a.044.044,0,0,1,0,.049h-.034l-.042-.123a.039.039,0,0,0-.068,0,.091.091,0,0,0-.025.093Z" transform="translate(-133.667 -155.87)" fill="#263238"/>
      <path id="Path_149" data-name="Path 149" d="M188.323,163.885l.038.108a.039.039,0,0,1,0,.044.019.019,0,0,1-.03,0,.146.146,0,0,1-.047.069.078.078,0,0,1-.085,0,.1.1,0,0,1-.063-.074.186.186,0,0,1,0-.118.167.167,0,0,1,.059-.093.1.1,0,0,1,.063,0,.062.062,0,0,1,0-.039.023.023,0,0,1,.034,0Zm-.042.034a.06.06,0,0,0-.038-.044.041.041,0,0,0-.047,0,.077.077,0,0,0-.034.049.125.125,0,0,0,0,.069.06.06,0,0,0,.038.044.041.041,0,0,0,.047,0,.106.106,0,0,0,.03-.054.084.084,0,0,0,0-.059Z" transform="translate(-134.112 -155.669)" fill="#263238"/>
      <path id="Path_150" data-name="Path 150" d="M188.858,163.461a.039.039,0,0,1,0,.044l-.025.029a.107.107,0,0,0,0,.039.268.268,0,0,0,0,.059l.038.1a.056.056,0,0,1,0,.049.023.023,0,0,1-.034,0l-.076-.216a.039.039,0,0,1,0-.044h.03a.134.134,0,0,1,.047-.064S188.858,163.441,188.858,163.461Z" transform="translate(-134.473 -155.505)" fill="#263238"/>
      <path id="Path_151" data-name="Path 151" d="M189.071,163.05a.019.019,0,0,1,.034,0l.114.319a.044.044,0,0,1,0,.049h-.034l-.114-.319A.05.05,0,0,1,189.071,163.05Z" transform="translate(-134.653 -155.295)" fill="#263238"/>
      <path id="Path_152" data-name="Path 152" d="M189.356,162.99a.045.045,0,0,1,0,.044.02.02,0,0,1-.034,0h0a.045.045,0,0,1,0-.044.019.019,0,0,1,.034,0Zm.034.1.076.211a.038.038,0,0,1,0,.049.019.019,0,0,1-.03,0l-.076-.211a.044.044,0,0,1,0-.049s.025-.039.03-.02Z" transform="translate(-134.798 -155.265)" fill="#263238"/>
      <path id="Path_153" data-name="Path 153" d="M189.7,163.044a.2.2,0,0,1,.055-.216.086.086,0,0,1,.086-.016.105.105,0,0,1,.062.07h0a.039.039,0,0,1,0,.039l-.135.1a.024.024,0,0,0,.025.025.048.048,0,0,0,.051,0,.074.074,0,0,0,.038-.044.026.026,0,0,1,.034,0,.033.033,0,0,1,0,.034.194.194,0,0,1-.063.093.089.089,0,0,1-.1.005A.118.118,0,0,1,189.7,163.044Zm.038-.064.118-.088a.061.061,0,0,0-.085,0,.111.111,0,0,0-.034.088Z" transform="translate(-135.016 -155.177)" fill="#263238"/>
      <path id="Path_154" data-name="Path 154" d="M184.757,158.793a.177.177,0,0,1,.051-.191.081.081,0,0,1,.072,0h0a.019.019,0,0,1-.021,0,.052.052,0,0,0-.051,0,.113.113,0,0,0-.038.059.147.147,0,0,0,0,.074.068.068,0,0,0,.093.044.116.116,0,0,0,.038-.054v.029a.158.158,0,0,1-.051.069A.081.081,0,0,1,184.757,158.793Z" transform="translate(-132.162 -153.031)" fill="#c7c7c7"/>
      <path id="Path_155" data-name="Path 155" d="M185.409,158.539l.025.064v.029h0a.128.128,0,0,1-.03.039.053.053,0,0,1-.054.011.065.065,0,0,1-.039-.046.113.113,0,0,1,0-.074.1.1,0,0,1,.034-.059.044.044,0,0,1,.042,0h0Zm-.025,0-.025-.029a.033.033,0,0,0-.03,0,.056.056,0,0,0,0,.034.062.062,0,0,0,0,.039.042.042,0,0,0,.025.029.026.026,0,0,0,.025,0l.021-.029a.068.068,0,0,0-.017-.025Z" transform="translate(-132.484 -152.983)" fill="#c7c7c7"/>
      <path id="Path_156" data-name="Path 156" d="M185.59,158.16h0l.072.2v.029h0l-.072-.2Z" transform="translate(-132.648 -152.81)" fill="#c7c7c7"/>
      <path id="Path_157" data-name="Path 157" d="M185.75,158.06h.021l.072.2v.029h0l-.072-.2Z" transform="translate(-132.741 -152.759)" fill="#c7c7c7"/>
      <path id="Path_158" data-name="Path 158" d="M185.971,158v.029h-.021V158Zm.021.064.047.133v.029l-.047-.133v-.029l-.021,0Z" transform="translate(-132.856 -152.729)" fill="#c7c7c7"/>
      <path id="Path_159" data-name="Path 159" d="M186.3,157.986l.03.083v.025h-.021l-.025-.083a.027.027,0,0,0-.042,0,.05.05,0,0,0,0,.054l.03.083h0v.025h-.021l-.03-.079v-.083h0l.021-.029a.045.045,0,0,1,.059,0Z" transform="translate(-133.012 -152.715)" fill="#c7c7c7"/>
      <path id="Path_160" data-name="Path 160" d="M186.587,157.739l.025.064a.129.129,0,0,1-.034.128h-.034a.061.061,0,0,0,0-.059.129.129,0,0,1-.03.039.056.056,0,0,1-.055,0,.074.074,0,0,1-.038-.044.113.113,0,0,1,0-.074.085.085,0,0,1,.034-.059.07.07,0,0,1,.042,0h.03v.069Zm-.025,0a.056.056,0,0,0-.025-.029h-.03a.045.045,0,0,0,0,.034.062.062,0,0,0,0,.039.056.056,0,0,0,.025.029h.03c.03,0,0,0,0-.034a.063.063,0,0,0,0-.02Z" transform="translate(-133.124 -152.581)" fill="#c7c7c7"/>
      <path id="Path_161" data-name="Path 161" d="M186.994,157.73h.03a.039.039,0,0,1,0,.039h-.03A.045.045,0,0,1,186.994,157.73Z" transform="translate(-133.455 -152.591)" fill="#c7c7c7"/>
      <path id="Path_162" data-name="Path 162" d="M187.161,157.64h.03a.033.033,0,0,1,0,.039h-.03A.033.033,0,0,1,187.161,157.64Z" transform="translate(-133.551 -152.546)" fill="#c7c7c7"/>
      <path id="Path_163" data-name="Path 163" d="M187.3,157.55h.03a.039.039,0,0,1,0,.039h-.025a.025.025,0,0,1-.011-.018A.027.027,0,0,1,187.3,157.55Z" transform="translate(-133.632 -152.5)" fill="#c7c7c7"/>
      <path id="Path_164" data-name="Path 164" d="M186.731,160.335a1.48,1.48,0,0,1-.182.285.771.771,0,0,1-.626.309.7.7,0,0,1-.558-.349,1.468,1.468,0,0,1,.135-1.615.713.713,0,0,1,.6-.312.729.729,0,0,1,.583.356,1.446,1.446,0,0,1,.047,1.325Z" transform="translate(-132.414 -153.061)" fill="#c7c7c7"/>
      <path id="Path_165" data-name="Path 165" d="M186.958,160.21a.44.44,0,0,1-.127.491.2.2,0,0,1-.2.033.244.244,0,0,1-.142-.161.447.447,0,0,1,.123-.491.2.2,0,0,1,.2-.033A.247.247,0,0,1,186.958,160.21Z" transform="translate(-133.153 -153.766)" fill="#fff"/>
      <path id="Path_166" data-name="Path 166" d="M187.578,161.515l.047.123a1.48,1.48,0,0,1-.182.285.771.771,0,0,1-.626.309l-.042-.123a.746.746,0,0,1,.216-.815.342.342,0,0,1,.342-.061A.42.42,0,0,1,187.578,161.515Z" transform="translate(-133.307 -154.364)" fill="#fff"/>
      <path id="Path_167" data-name="Path 167" d="M185.471,185.4a33.626,33.626,0,0,1-4.573-2.768c-1.3-1.1-4.836-7.274-3.727-8.236,1.426-1.242,4.074,1.855,5.2,3.568a6.377,6.377,0,0,1,5.834.982C190.514,180.7,185.471,185.4,185.471,185.4Z" transform="translate(-127.669 -160.93)" fill="#d3766a"/>
      <path id="Path_168" data-name="Path 168" d="M194,187.1l11.363-13.566s10.069,14.538,10.856,20.9c.745,6.008-4.129,6.41-7.095,5.355C205.038,198.327,194,187.1,194,187.1Z" transform="translate(-137.5 -160.636)" fill="#407bff"/>
      <path id="Path_169" data-name="Path 169" d="M207.912,212.965c-.262-.2-.529-.393-.8-.584-.55-.388-1.087-.8-1.629-1.207-1.087-.829-2.166-1.669-3.219-2.552-2.115-1.767-7.535-7.112-8.1-7.637-.034-.029-.178.059-.059.221s3.473,3.7,4.468,4.648a60.478,60.478,0,0,0,6.346,5.33l.11.074c.059.083.118.172.178.25a5.259,5.259,0,0,0,.487.564,6.773,6.773,0,0,0,1.113.923.023.023,0,0,0,.028.006.03.03,0,0,0,.015-.029.029.029,0,0,0-.018-.026,9.327,9.327,0,0,1-1.053-1.036l-.351-.378c.457.319.918.628,1.379.933.317.216.639.417.965.609s.626.4.956.55a.024.024,0,0,0,.034-.015.032.032,0,0,0-.013-.039C208.483,213.348,208.187,213.171,207.912,212.965Z" transform="translate(-137.536 -174.612)" fill="#263238"/>
      <path id="Path_170" data-name="Path 170" d="M206.332,187.9c1.218-1.472,2.441-2.945,3.609-4.491.664-.874,1.333-1.742,1.988-2.626.025-.034,0-.093-.047-.064-1.269,1.428-2.538,2.857-3.753,4.359s-2.428,2.945-3.617,4.481q-1.015,1.291-1.963,2.655s0,.049.025.034C203.887,190.877,205.11,189.395,206.332,187.9Z" transform="translate(-142.433 -164.294)" fill="#263238"/>
      <path id="Path_171" data-name="Path 171" d="M154.037,245.351c.093.064,30.194-18.74,30.19-19.24,0-2.989-.3-3.657-1.57-6.214-1.489-2.994-4.924-3.549-5.661-4.481,0,0-8.11-16.644-11.346-19.977-3.033-3.131-8.436-2.42-11,4-4.51,11.289-5.077,34.849-4.747,38.225C150.183,240.575,153.877,245.228,154.037,245.351Z" transform="translate(-112.015 -170.874)" fill="#407bff"/>
      <path id="Path_172" data-name="Path 172" d="M188.276,252.111c3.042-1.963,6.067-3.878,9.1-5.772l-.055.329-3.448-4.864.178.083A3.757,3.757,0,0,1,192,241.46a6.682,6.682,0,0,1-1.718-1.31,12.469,12.469,0,0,1-1.4-1.708,17.093,17.093,0,0,1-1.168-1.934l.262.088-7.222,4.467.08-.241.385,1.438c.118.491.195.982.292,1.472s.114.982.169,1.472v1.139l-.038.378a6.549,6.549,0,0,1-.821,2.866,4.126,4.126,0,0,1-2.065,1.821l.059-.1.258,6.656Zm-9.616-.766v-.079l.068-.029a4.052,4.052,0,0,0,1.921-1.777,6.328,6.328,0,0,0,.745-2.754l.03-.363v-1.1c-.059-.491-.1-.982-.186-1.472s-.182-.982-.3-1.433l-.436-1.379-.042-.162.123-.079,7.192-4.516.165-.1.1.191a16.434,16.434,0,0,0,1.142,1.86,11.928,11.928,0,0,0,1.362,1.644,6.439,6.439,0,0,0,1.616,1.232,3.415,3.415,0,0,0,1.883.422h.11l.068.093,3.423,4.884.144.2-.2.128q-4.632,2.879-9.307,5.684l-9.193,5.551Z" transform="translate(-128.65 -192.495)" opacity="0.1"/>
      <path id="Path_173" data-name="Path 173" d="M196.1,242.152c-4.379,1.212-8.753,6.42-8.131,6.646s3.668-3.146,4.417-3.534S198.156,241.582,196.1,242.152Z" transform="translate(-133.987 -195.543)" opacity="0.1"/>
      <path id="Path_174" data-name="Path 174" d="M190.868,246.418c-.216-.083.74-1.257,1.692-1.963a2.842,2.842,0,0,1,1.333-.525c.228,0-.96.825-1.692,1.433C191.4,246.041,191.033,246.482,190.868,246.418Z" transform="translate(-135.676 -196.482)" opacity="0.1"/>
      <path id="Path_175" data-name="Path 175" d="M127.76,204.736c-8.5,10.307-19.038,31.378-16.969,35.673,2.327,4.781,16.034-9.615,15.653-10.307-.326-.6,4.015-11.853,6.608-23.687C135.206,196.574,129.863,202.184,127.76,204.736Z" transform="translate(-89.342 -174.531)" fill="#d3766a"/>
      <path id="Path_176" data-name="Path 176" d="M127.76,204.736c-8.5,10.307-19.038,31.378-16.969,35.673,2.327,4.781,16.034-9.615,15.653-10.307-.326-.6,4.015-11.853,6.608-23.687C135.206,196.574,129.863,202.184,127.76,204.736Z" transform="translate(-89.342 -174.531)" fill="#407bff"/>
      <path id="Path_177" data-name="Path 177" d="M149.17,239.51c.338-1.389.719-2.758,1.1-4.128s.787-2.729,1.193-4.089.846-2.714,1.269-4.064l1.269-4.049c-.254,1.414-.618,2.8-.982,4.172s-.762,2.739-1.168,4.1-.846,2.709-1.269,4.049S149.673,238.189,149.17,239.51Z" transform="translate(-111.636 -185.917)" fill="#263238"/>
      <path id="Path_178" data-name="Path 178" d="M158.42,228.129a9.191,9.191,0,0,1,.592-1.394l.338-.648c.114-.221.237-.427.338-.668a2.078,2.078,0,0,1-.114.79,4.851,4.851,0,0,1-.288.712A4.464,4.464,0,0,1,158.42,228.129Z" transform="translate(-116.973 -187.057)" fill="#263238"/>
      <path id="Path_179" data-name="Path 179" d="M111.524,269.508c2.306,2.891,7.615,2.67,21.06,3.568,1.861.123,6.147-14.867,4.167-15.117-2.5-.314-12.231-.918-12.946-.854C117.76,257.611,109.963,267.545,111.524,269.508Z" transform="translate(-89.8 -203.188)" fill="#d3766a"/>
      <path id="Path_180" data-name="Path 180" d="M154.656,258.29s5.656.093,8.618,1.207a20.173,20.173,0,0,1,8,6.1c2.386,2.945,6.384,12.04,4.332,13.831-1.857,1.625-5.542-7.892-5.542-7.892s5.14,8.982,2.593,10.459-6.282-9.851-6.282-9.851,5.077,9.365,2.268,10.405c-2.141.785-6.024-9.252-6.024-9.252s4.336,8.084,2.162,9.007c-2.4,1.016-6.481-7.991-6.481-7.991-5.859,1.257-9.1-.923-11.236-2.793C146.542,271.061,154.656,258.29,154.656,258.29Z" transform="translate(-110.404 -203.794)" fill="#d3766a"/>
      <path id="Path_181" data-name="Path 181" d="M197.614,278.659c.635,1.031,1.269,2.066,1.84,3.161s1.079,2.2,1.544,3.352a23.6,23.6,0,0,1,1.443,4.663,50.305,50.305,0,0,0-3.249-7.853c-.554-1.095-1.062-2.209-1.616-3.3C197.564,278.654,197.6,278.634,197.614,278.659Z" transform="translate(-139.562 -214.159)" fill="#263238"/>
      <path id="Path_182" data-name="Path 182" d="M189.51,283.26c.766,1.355,1.565,2.67,2.276,4.064s1.269,2.778,1.9,4.221c.051.113,0,.1-.068,0-.677-1.414-1.392-2.655-2.081-4.059s-1.328-2.832-2.056-4.2Z" transform="translate(-134.893 -216.508)" fill="#263238"/>
      <path id="Path_183" data-name="Path 183" d="M181.783,285.973a38.027,38.027,0,0,1,3.071,6.523c.047.113-.042.093-.093,0-.986-2.189-1.743-3.927-3.038-6.454C181.7,285.973,181.757,285.909,181.783,285.973Z" transform="translate(-130.415 -217.876)" fill="#263238"/>
      <path id="Path_184" data-name="Path 184" d="M135,256.88,128.269,274.4s-15.437-1.88-16.652-5.291,6.1-11.063,11.693-12.408C127.356,255.731,135,256.88,135,256.88Z" transform="translate(-89.894 -202.786)" fill="#407bff"/>
      <path id="Path_185" data-name="Path 185" d="M127.146,258.908c1.506-1.031,5.779-3.46,9.98-2.788.047,0,.047.083,0,.083-3.461,0-8.41,1.9-9.946,2.773C127.138,259,127.108,258.947,127.146,258.908Z" transform="translate(-98.919 -202.63)" fill="#263238"/>
      <path id="Path_186" data-name="Path 186" d="M144.1,273.059a20.051,20.051,0,0,1,.694-1.9c.212-.564.423-1.134.63-1.7.47-1.227.935-2.454,1.413-3.681s.943-2.454,1.43-3.657.931-2.454,1.472-3.622c0-.044.08,0,.068.039-.33,1.276-.778,2.513-1.2,3.755s-.876,2.425-1.337,3.627-.973,2.43-1.485,3.627c-.245.579-.512,1.148-.77,1.718a16.526,16.526,0,0,1-.846,1.821.035.035,0,0,1-.047.025A.044.044,0,0,1,144.1,273.059Z" transform="translate(-108.708 -203.892)" fill="#263238"/>
      <path id="Path_187" data-name="Path 187" d="M148.018,257l.144-.491.025.054q-1.739-.226-3.486-.324c-1.159-.069-2.323-.093-3.482-.064a29.359,29.359,0,0,0-3.469.285,19.093,19.093,0,0,0-3.41.839,13.158,13.158,0,0,1,1.646-.726c.563-.191,1.138-.344,1.718-.491a19.2,19.2,0,0,1,3.507-.412,25.478,25.478,0,0,1,3.516.152,24.71,24.71,0,0,1,3.473.653h.042v.044Z" transform="translate(-103.08 -202.456)" fill="#263238"/>
      <path id="Path_188" data-name="Path 188" d="M162.589,196.538s-5.352-4.113-8.275-3.387l-2.822,2.533a.7.7,0,0,1-.952-.187c-.846-1.36-.965-4.378,1.35-7.269,2.115-2.65,7.192-3.249,10.716-2.915,3.359.319,5.466,2.145,4.853,4.781S162.589,196.538,162.589,196.538Z" transform="translate(-112.105 -166.593)" fill="#407bff"/>
      <path id="Path_189" data-name="Path 189" d="M167.783,196.414s3.215-3.809,3.317-5.7-3.283-2.969-5.407-3.235c-3.279-.4-5.369.27-6.824,2.562S167.783,196.414,167.783,196.414Z" transform="translate(-117.151 -167.682)" opacity="0.1"/>
      <path id="Path_190" data-name="Path 190" d="M172.375,193.4c-1.464.447-4.573-1.472-5.673-3.892-.072-.167.165-1.895.368-4.005.118-1.281.224-2.714.241-4.03,0-.27,7.082,2.12,7.082,2.12a24.074,24.074,0,0,0-.749,5.036,3.152,3.152,0,0,0,.042.54v.088C173.826,190.293,173.941,192.929,172.375,193.4Z" transform="translate(-121.743 -164.672)" fill="#d3766a"/>
      <path id="Path_191" data-name="Path 191" d="M174.87,189.206a.569.569,0,0,1,0,.088,3.856,3.856,0,0,1-.728.034c-4.18-.177-5.208-6.268-5.4-7.809,1.269.231,6.828,2.111,6.828,2.111a24.148,24.148,0,0,0-.749,5.041A3.573,3.573,0,0,0,174.87,189.206Z" transform="translate(-122.927 -164.705)" fill="#263238"/>
      <path id="Path_192" data-name="Path 192" d="M163.408,156.611c-.372,3.028,2.06,11.137,4.078,12.678,2.919,2.214,7.15,1.723,8.66-2.2,1.451-3.819-1.878-14.317-4.083-15.652C168.819,149.469,163.958,152.144,163.408,156.611Z" transform="translate(-119.829 -149.052)" fill="#d3766a"/>
      <path id="Path_193" data-name="Path 193" d="M182.213,170.5s-.03.044-.021.064c.178.54.3,1.2-.072,1.546v.029C182.628,171.85,182.454,170.981,182.213,170.5Z" transform="translate(-130.646 -159.094)" fill="#263238"/>
      <path id="Path_194" data-name="Path 194" d="M180.45,169.664c-.778.236-.317,2.022.423,1.806S181.08,169.468,180.45,169.664Z" transform="translate(-129.45 -158.66)" fill="#263238"/>
      <path id="Path_195" data-name="Path 195" d="M188.55,168.83c0-.025.047,0,.051.034.127.56.355,1.173.846,1.207v.034C188.888,170.2,188.6,169.4,188.55,168.83Z" transform="translate(-134.356 -158.238)" fill="#263238"/>
      <path id="Path_196" data-name="Path 196" d="M188.82,167.317c.749-.334,1.269,1.428.575,1.738S188.19,167.6,188.82,167.317Z" transform="translate(-134.347 -157.451)" fill="#263238"/>
      <path id="Path_197" data-name="Path 197" d="M178.25,166.862c.195-.137.355-.3.533-.452a1.231,1.231,0,0,0,.47-.584.418.418,0,0,0-.169-.437.759.759,0,0,0-.846.187,1.447,1.447,0,0,0-.529.834.457.457,0,0,0,.143.431A.323.323,0,0,0,178.25,166.862Z" transform="translate(-128.097 -156.462)" fill="#263238"/>
      <path id="Path_198" data-name="Path 198" d="M188.09,163.924a4.953,4.953,0,0,1-.66.029.93.93,0,0,1-.677-.118.434.434,0,0,1-.1-.491.818.818,0,0,1,.757-.452,1.093,1.093,0,0,1,.846.275.453.453,0,0,1,.142.444A.382.382,0,0,1,188.09,163.924Z" transform="translate(-133.24 -155.217)" fill="#263238"/>
      <path id="Path_199" data-name="Path 199" d="M183.722,181.3c.148.088.309.231.487.187a1.326,1.326,0,0,0,.478-.319h.025a.694.694,0,0,1-.529.491.523.523,0,0,1-.5-.358C183.667,181.312,183.7,181.288,183.722,181.3Z" transform="translate(-131.546 -164.526)" fill="#263238"/>
      <path id="Path_200" data-name="Path 200" d="M183.954,170.747a1.548,1.548,0,0,0,1.3.491,1.968,1.968,0,0,0,.592-.172l.11-.054.1-.059a.15.15,0,0,0,.068-.157h0a.319.319,0,0,0,0-.059h0v-.049c-.1-.432-.3-1.07-.3-1.07.152.034.931.152.846-.064a32.018,32.018,0,0,0-2.115-5.492.042.042,0,0,0-.054-.012.056.056,0,0,0-.026.057c.487,1.767,1.244,3.436,1.756,5.188a2.641,2.641,0,0,0-.846,0c-.051.034.423,1.222.423,1.418a.068.068,0,0,1,0,.025,2.059,2.059,0,0,1-1.84-.025C183.925,170.663,183.895,170.717,183.954,170.747Z" transform="translate(-131.685 -155.806)" fill="#263238"/>
      <path id="Path_201" data-name="Path 201" d="M185.53,177.847a2.374,2.374,0,0,1-.592.982.818.818,0,0,1-.52.221c-.423,0-.525-.388-.542-.756a2.921,2.921,0,0,1,.034-.594A2.265,2.265,0,0,0,185.53,177.847Z" transform="translate(-131.658 -162.76)" fill="#263238"/>
      <path id="Path_202" data-name="Path 202" d="M184.942,179.409a.818.818,0,0,1-.52.221c-.423,0-.525-.388-.542-.756A.9.9,0,0,1,184.942,179.409Z" transform="translate(-131.662 -163.339)" fill="#ff9bbc"/>
      <path id="Path_203" data-name="Path 203" d="M189.71,185a5.79,5.79,0,0,0,1.218-1.659,8.413,8.413,0,0,0,.423-.982c.118-.339.207-.692.3-1.05a4.981,4.981,0,0,1-.042.56,3.389,3.389,0,0,1-.11.55,4.959,4.959,0,0,1-.377,1.045,4.428,4.428,0,0,1-.6.9A2.664,2.664,0,0,1,189.71,185Z" transform="translate(-135.025 -164.598)" fill="#263238"/>
      <path id="Path_204" data-name="Path 204" d="M163.138,163.136c1.235-.555.482-4.319.482-4.319s1.451-1.139,1.248-4.692c0,0,1.785,3.058,6.938.829a5.939,5.939,0,0,0-1.053-3.1,23.055,23.055,0,0,1,2.031,2.945s.2-5.473-3.939-6.229c-1.646-.3-3.9.491-6.947,3.436,0,0-1.163-2.223-1.5-1.8s.9,2.454.9,2.454-1.633-.118-1.811.319,1.4.417,1.4.417a3.934,3.934,0,0,0-1.113,4.516C160.726,160.682,162.524,163.416,163.138,163.136Z" transform="translate(-117.583 -147.896)" fill="#263238"/>
      <path id="Path_205" data-name="Path 205" d="M160.717,158.168a3.237,3.237,0,0,0-2.251,3.48,6.708,6.708,0,0,0,.872,2.572,11.312,11.312,0,0,0,1.646,2.194c.038.039.08-.029.047-.064a8.707,8.707,0,0,1-1.4-2.115,8.886,8.886,0,0,1-.846-2.356,3.2,3.2,0,0,1,1.95-3.622C160.8,158.242,160.76,158.154,160.717,158.168Z" transform="translate(-116.994 -152.814)" fill="#263238"/>
      <path id="Path_206" data-name="Path 206" d="M168.319,147.928a11.279,11.279,0,0,0-2.369,1.836,8.992,8.992,0,0,0-1.79,2.346.045.045,0,0,0,.006.056.032.032,0,0,0,.049-.007,14.9,14.9,0,0,1,4.053-3.716c1.392-.913,3.164-1.409,4.594-.314a.023.023,0,0,0,.029-.01.033.033,0,0,0,0-.035A3.878,3.878,0,0,0,168.319,147.928Z" transform="translate(-120.28 -147.261)" fill="#263238"/>
      <path id="Path_207" data-name="Path 207" d="M165.546,174.315s-2.026-2.361-2.961-1.472.846,4.535,2.175,4.82a1.121,1.121,0,0,0,.992-.174,1.49,1.49,0,0,0,.573-.955Z" transform="translate(-119.225 -160.185)" fill="#d3766a"/>
      <path id="Path_208" data-name="Path 208" d="M164.18,175.134v.044a3.389,3.389,0,0,1,1.988,1.963.642.642,0,0,0-1.07,0c0,.025,0,.059.034.049a.7.7,0,0,1,.9.137,4.66,4.66,0,0,1,.529.717c.051.083.186,0,.14-.093h0C166.515,176.641,165.373,175.021,164.18,175.134Z" transform="translate(-120.296 -161.45)" fill="#263238"/>
      <path id="Path_209" data-name="Path 209" d="M167.316,199.394s-4.738-6.381-9.4-6.17l.99,3.887s2.716-.555,8.258,3.495Z" transform="translate(-116.684 -170.662)" fill="#407bff"/>
      <path id="Path_210" data-name="Path 210" d="M157.39,200.216a5.13,5.13,0,0,1,2.5-.123,9.728,9.728,0,0,1,2.424.746,18.675,18.675,0,0,1,2.285,1.212l1.092.712,1.066.785.118.088.106-.088a23.344,23.344,0,0,0,2.187-2.223,13.255,13.255,0,0,0,.977-1.252,8.733,8.733,0,0,0,.8-1.394,14.361,14.361,0,0,1-1.955,2.43c-.36.373-.728.722-1.1,1.065s-.753.692-1.138.982h.207l-1.07-.82c-.368-.26-.74-.491-1.113-.751a10.614,10.614,0,0,0-1.155-.653,8.632,8.632,0,0,0-1.2-.535,8.892,8.892,0,0,0-2.538-.623c-.212-.025-.423,0-.643-.025a1.9,1.9,0,0,0-.643.049A3.357,3.357,0,0,0,157.39,200.216Z" transform="translate(-116.379 -173.442)" fill="#263238"/>
      <path id="Path_211" data-name="Path 211" d="M153.63,203.829a12.772,12.772,0,0,0,1.46-1.134,12.919,12.919,0,0,0,1.328-1.325,12.814,12.814,0,0,0-1.464,1.134,14.452,14.452,0,0,0-1.324,1.325Z" transform="translate(-114.209 -174.812)" fill="#263238"/>
      <path id="Path_212" data-name="Path 212" d="M174.825,203.1a34.637,34.637,0,0,0-.063,5.1c.068,1.183.774,5.4,1.9,5.124s-.926-2.822-1.417-5.026a20.585,20.585,0,0,1-.123-5.247Z" transform="translate(-126.363 -175.667)" fill="#407bff"/>
      <g id="Group_30" data-name="Group 30" transform="translate(48.333 27.383)" opacity="0.1">
        <path id="Path_213" data-name="Path 213" d="M174.825,203.1a34.637,34.637,0,0,0-.063,5.1c.068,1.183.774,5.4,1.9,5.124s-.926-2.822-1.417-5.026a20.585,20.585,0,0,1-.123-5.247Z" transform="translate(-174.697 -203.05)"/>
      </g>
      <path id="Path_214" data-name="Path 214" d="M184.372,201.75a29.853,29.853,0,0,1,1.176,4.417c.2,1.055.512,4.908-.52,5.021s.186-2.729.127-4.8a18,18,0,0,0-1.045-4.6Z" transform="translate(-131.794 -175.005)" fill="#407bff"/>
      <g id="Group_31" data-name="Group 31" transform="translate(52.316 26.745)" opacity="0.1">
        <path id="Path_215" data-name="Path 215" d="M184.372,201.75a29.853,29.853,0,0,1,1.176,4.417c.2,1.055.512,4.908-.52,5.021s.186-2.729.127-4.8a18,18,0,0,0-1.045-4.6Z" transform="translate(-184.11 -201.75)"/>
      </g>
    </g>
    <g id="freepik--speech-bubble--inject-66" transform="translate(103.107 82.562)">
      <path id="Path_216" data-name="Path 216" d="M203.223,135.6a7.416,7.416,0,0,1-.982-3.681c0-4.668,4.417-8.452,9.862-8.452s9.862,3.784,9.862,8.452-4.417,8.452-9.857,8.452a10.707,10.707,0,0,1-6.8-2.341l-3.384.982Z" transform="translate(-201.81 -123.265)" fill="#fffefd"/>
      <path id="Path_217" data-name="Path 217" d="M203.073,135.391a7.413,7.413,0,0,1-.258-7.078,8.691,8.691,0,0,1,2.175-2.758,10.063,10.063,0,0,1,2.873-1.713,11.258,11.258,0,0,1,6.4-.56,10.258,10.258,0,0,1,3.093,1.114,9.8,9.8,0,0,1,2.678,2.14,8.312,8.312,0,0,1,1.73,3.21,7.508,7.508,0,0,1,.03,3.8,8.165,8.165,0,0,1-1.692,3.239,9.719,9.719,0,0,1-2.653,2.179,11.181,11.181,0,0,1-6.312,1.34,10.69,10.69,0,0,1-6.041-2.39h.08l-3.41.952-.1.029.042-.108Zm0,0-1.269,3.436-.059-.079,3.384-1.055h.042l.038.029a10.518,10.518,0,0,0,5.952,2.228,11.471,11.471,0,0,0,3.143-.255,10.318,10.318,0,0,0,2.987-1.129,9.371,9.371,0,0,0,2.538-2.1,7.709,7.709,0,0,0,1.574-3.058,6.982,6.982,0,0,0-.038-3.519,7.728,7.728,0,0,0-1.616-3.023,9.254,9.254,0,0,0-2.538-2.066,10,10,0,0,0-2.991-1.1,11.427,11.427,0,0,0-6.24.491,9.128,9.128,0,0,0-5,4.236,7.338,7.338,0,0,0-.846,3.485,7.583,7.583,0,0,0,.943,3.48Z" transform="translate(-201.66 -123.053)" fill="#263238"/>
      <path id="Path_218" data-name="Path 218" d="M234.37,139.458a1.035,1.035,0,1,0,1.024-1.188A1.115,1.115,0,0,0,234.37,139.458Z" transform="translate(-220.532 -130.801)" fill="#263238"/>
      <path id="Path_219" data-name="Path 219" d="M223.57,139.458a1.035,1.035,0,1,0,1.024-1.188.953.953,0,0,0-.725.346,1.286,1.286,0,0,0-.3.841Z" transform="translate(-214.301 -130.801)" fill="#263238"/>
      <path id="Path_220" data-name="Path 220" d="M212.77,139.458a1.035,1.035,0,1,0,1.024-1.188.953.953,0,0,0-.725.346A1.286,1.286,0,0,0,212.77,139.458Z" transform="translate(-208.07 -130.801)" fill="#263238"/>
    </g>
    <g id="freepik--Plant--inject-66" transform="translate(184.982 179.96)">
      <path id="Path_221" data-name="Path 221" d="M429.65,373.325s3.228-13.434,5.8-18a58.7,58.7,0,0,1,7.382-9.576S442.723,366.487,429.65,373.325Z" transform="translate(-415.071 -333.843)" fill="#407bff"/>
      <path id="Path_222" data-name="Path 222" d="M430.2,378.74a68.814,68.814,0,0,0,2.94-6.513,51.25,51.25,0,0,1,1.6-7.063c0-.044.068,0,.059,0-.423,2.125-.926,4.231-1.379,6.346,1.3-3.269,2.538-6.582,4.091-9.674a22.71,22.71,0,0,1,1.493-4.3c0-.039.076,0,.059.025a30.506,30.506,0,0,0-1.007,3.225,32.268,32.268,0,0,1,2.45-3.927c.059-.074.173,0,.114.093a50.119,50.119,0,0,0-4.869,10.1,52.878,52.878,0,0,0,4.049-5.89h.03a47.8,47.8,0,0,1-4.336,6.518c-.994,2.592-1.967,5.2-3.152,7.662a43.468,43.468,0,0,0,5.986-8.221.05.05,0,0,1,.073-.009.07.07,0,0,1,.016.082,33.422,33.422,0,0,1-6.261,8.526,34.765,34.765,0,0,1-1.73,3.141.124.124,0,0,1-.147.022A.165.165,0,0,1,430.2,378.74Z" transform="translate(-415.389 -339.484)" fill="#263238"/>
      <path id="Path_223" data-name="Path 223" d="M422.353,362.184s5.8-12.388,4.108-24.4-3.49-16.29-3.49-16.29A54.677,54.677,0,0,0,422.353,362.184Z" transform="translate(-408.773 -321.49)" fill="#407bff"/>
      <path id="Path_224" data-name="Path 224" d="M421.643,348.814a66.685,66.685,0,0,0,2.259,10c0-4.417.089-8.835.19-13.252A38.951,38.951,0,0,1,423,337.358c0-.083.1-.079.106,0a53.933,53.933,0,0,0,1.015,7.068q.131-5.453.309-10.911a.041.041,0,0,1,.08,0c0,5.679,0,11.358-.034,17.041a51.084,51.084,0,0,0,1.671-6.749c0-.025.038,0,.034,0a29.885,29.885,0,0,1-1.692,7.681c-.025,3.632-.059,7.259-.127,10.891a65.048,65.048,0,0,0,2.314-11.677.037.037,0,0,1,.072,0,49.474,49.474,0,0,1-2.356,13.3.255.255,0,0,1-.063.108q-.042,1.988-.1,3.981a.128.128,0,1,1-.254,0c-.047-2.719-.059-5.433-.055-8.148a41.465,41.465,0,0,1-2.289-11.152A.03.03,0,0,1,421.643,348.814Z" transform="translate(-410.444 -327.596)" fill="#263238"/>
      <path id="Path_225" data-name="Path 225" d="M422.445,360.753a26.533,26.533,0,0,1,.423,3.274.028.028,0,0,1-.055,0,26.4,26.4,0,0,1-.478-3.264C422.31,360.69,422.433,360.67,422.445,360.753Z" transform="translate(-410.849 -341.454)" fill="#263238"/>
      <path id="Path_226" data-name="Path 226" d="M430.187,342.335c0-.039.055-.025.055,0a9.633,9.633,0,0,1-.292,2.258c0,.059-.089.029-.08-.029C430,343.832,430.077,343.081,430.187,342.335Z" transform="translate(-415.198 -332.091)" fill="#263238"/>
      <path id="Path_227" data-name="Path 227" d="M406.655,376.177s.237-12.933-2.961-19.363a26.233,26.233,0,0,0-8.5-9.7S397.331,369.909,406.655,376.177Z" transform="translate(-395.19 -334.535)" fill="#407bff"/>
      <path id="Path_228" data-name="Path 228" d="M405.048,369.959a48.086,48.086,0,0,0,4.328,6.381q-.956-3.961-2.213-7.8a20.764,20.764,0,0,1-4.654-6.209c0-.039.034-.074.051-.034a25.15,25.15,0,0,0,4.429,5.679,108.366,108.366,0,0,0-4.451-11.245.09.09,0,0,1,.03-.1.065.065,0,0,1,.092.019q1.532,2.856,2.792,5.89c-.3-1.379-.542-2.793-.846-4.167,0-.039.042-.049.051,0a26.447,26.447,0,0,1,1.316,5.483,73.029,73.029,0,0,1,2.813,8.835c-.08-1.963-.186-3.873-.36-5.806a.028.028,0,1,1,.055,0,36.436,36.436,0,0,1,.487,6.513q.69,2.891,1.159,5.841c0,.054-.059.078-.068.025-.173-.825-.364-1.639-.554-2.454h-.038A26.216,26.216,0,0,1,405.053,370S405.044,369.944,405.048,369.959Z" transform="translate(-399.413 -339.376)" fill="#263238"/>
      <path id="Path_229" data-name="Path 229" d="M399.689,362.354c.355.447.681.913,1.024,1.374a10.459,10.459,0,0,1,.922,1.247l-.025.029a5.923,5.923,0,0,1-1.062-1.217,9.96,9.96,0,0,1-.91-1.389.043.043,0,0,1,.012-.043.03.03,0,0,1,.039,0Z" transform="translate(-397.755 -342.293)" fill="#263238"/>
      <path id="Path_230" data-name="Path 230" d="M425.884,403.11l-.423,6.13-1.214,18.519H413.67l-1.218-18.519-.4-6.13h13.83Z" transform="translate(-404.917 -363.049)" fill="#455a64"/>
      <path id="Path_231" data-name="Path 231" d="M425.884,403.11l-.423,6.13H412.452l-.4-6.13h13.83Z" transform="translate(-404.917 -363.049)" fill="#37474f"/>
      <rect id="Rectangle_169" data-name="Rectangle 169" width="15.712" height="4.697" transform="translate(21.906 41.755) rotate(180)" fill="#455a64"/>
    </g>
  </g>
</svg>
