<svg xmlns="http://www.w3.org/2000/svg" width="340" height="248.628" viewBox="0 0 340 248.628">
  <g id="Laundry_and_dry_cleaning-rafiki" data-name="Laundry and dry cleaning-rafiki" transform="translate(0 -55)">
    <g id="freepik--background-complete--inject-1" transform="translate(0 55)">
      <rect id="Rectangle_299" data-name="Rectangle 299" width="340" height="0.167" transform="translate(0 218.491)" fill="#ebebeb"/>
      <rect id="Rectangle_300" data-name="Rectangle 300" width="22.522" height="0.167" transform="translate(283.41 229.228)" fill="#ebebeb"/>
      <rect id="Rectangle_301" data-name="Rectangle 301" width="5.909" height="0.167" transform="translate(219.32 231.044)" fill="#ebebeb"/>
      <rect id="Rectangle_302" data-name="Rectangle 302" width="13.049" height="0.167" transform="translate(269.681 223.035)" fill="#ebebeb"/>
      <rect id="Rectangle_303" data-name="Rectangle 303" width="29.369" height="0.167" transform="translate(35.673 224.157)" fill="#ebebeb"/>
      <rect id="Rectangle_304" data-name="Rectangle 304" width="4.304" height="0.167" transform="translate(71.101 224.157)" fill="#ebebeb"/>
      <rect id="Rectangle_305" data-name="Rectangle 305" width="63.702" height="0.167" transform="translate(89.4 226.973)" fill="#ebebeb"/>
      <path id="Path_471" data-name="Path 471" d="M173.387,243.727H42.086a3.847,3.847,0,0,1-3.876-3.811V58.777A3.848,3.848,0,0,1,42.086,55h131.3a3.847,3.847,0,0,1,3.883,3.811V239.916A3.847,3.847,0,0,1,173.387,243.727ZM42.086,55.133a3.679,3.679,0,0,0-3.706,3.644V239.916a3.679,3.679,0,0,0,3.706,3.644h131.3a3.686,3.686,0,0,0,3.713-3.644V58.777a3.686,3.686,0,0,0-3.713-3.644Z" transform="translate(-12.227 -55)" fill="#ebebeb"/>
      <path id="Path_472" data-name="Path 472" d="M389.691,243.727H258.383a3.854,3.854,0,0,1-3.883-3.811V58.777A3.855,3.855,0,0,1,258.383,55H389.691a3.848,3.848,0,0,1,3.869,3.777V239.916A3.847,3.847,0,0,1,389.691,243.727ZM258.383,55.133a3.685,3.685,0,0,0-3.713,3.644V239.916a3.686,3.686,0,0,0,3.713,3.644H389.691a3.686,3.686,0,0,0,3.713-3.644V58.777a3.686,3.686,0,0,0-3.713-3.644Z" transform="translate(-81.44 -55)" fill="#ebebeb"/>
      <rect id="Rectangle_306" data-name="Rectangle 306" width="67.742" height="73.522" transform="translate(272.592 113.597) rotate(180)" fill="#e0e0e0"/>
      <rect id="Rectangle_307" data-name="Rectangle 307" width="70.258" height="73.522" transform="translate(272.945 113.597) rotate(180)" fill="#f0f0f0"/>
      <rect id="Rectangle_308" data-name="Rectangle 308" width="64.423" height="67.803" transform="translate(270.089 110.22) rotate(180)" fill="#fff"/>
      <rect id="Rectangle_309" data-name="Rectangle 309" width="1.863" height="67.803" transform="translate(207.522 110.22) rotate(180)" fill="#e0e0e0"/>
      <rect id="Rectangle_310" data-name="Rectangle 310" width="1.829" height="62.927" transform="translate(207.325 93.002) rotate(-90)" fill="#e0e0e0"/>
      <rect id="Rectangle_311" data-name="Rectangle 311" width="65.423" height="3.07" transform="translate(271.089 91.174) rotate(180)" fill="#f0f0f0"/>
      <path id="Path_601" data-name="Path 601" d="M13.844.072a13.912,13.912,0,0,1,13.915,13.7A13.566,13.566,0,0,1,13.987,27.329,13.912,13.912,0,0,1,.072,13.629,13.566,13.566,0,0,1,13.844.072Z" transform="translate(112.282 36.888) rotate(-16.85)" fill="#e0e0e0"/>
      <path id="Path_602" data-name="Path 602" d="M11.786.035a11.767,11.767,0,0,1,11.82,11.612A11.6,11.6,0,0,1,11.855,23.19,11.767,11.767,0,0,1,.035,11.578,11.6,11.6,0,0,1,11.786.035Z" transform="translate(116.04 36.405) rotate(-9.22)" fill="#f0f0f0"/>
      <path id="Path_473" data-name="Path 473" d="M187.157,131.758V123.67l-5.467,3.036" transform="translate(-58.141 -77.843)" fill="#f0f0f0"/>
      <path id="Path_474" data-name="Path 474" d="M186.882,132.062a.586.586,0,0,1-.592-.581v-7.094l-4.583,2.563a.594.594,0,0,1-.448.055.583.583,0,0,1-.354-.275.575.575,0,0,1,.224-.787l5.44-3.03a.608.608,0,0,1,.585,0,.572.572,0,0,1,.292.5V131.5a.586.586,0,0,1-.564.561Z" transform="translate(-57.866 -77.566)" fill="#e0e0e0"/>
      <rect id="Rectangle_312" data-name="Rectangle 312" width="14.688" height="5.699" transform="translate(50.85 212.785)" fill="#f5f5f5"/>
      <rect id="Rectangle_313" data-name="Rectangle 313" width="6.698" height="5.699" transform="translate(42.86 212.785)" fill="#f5f5f5"/>
      <rect id="Rectangle_314" data-name="Rectangle 314" width="14.688" height="5.699" transform="translate(66.817 212.785)" fill="#f5f5f5"/>
      <rect id="Rectangle_315" data-name="Rectangle 315" width="14.688" height="5.699" transform="translate(82.79 212.785)" fill="#f5f5f5"/>
      <rect id="Rectangle_316" data-name="Rectangle 316" width="14.688" height="5.699" transform="translate(98.763 212.785)" fill="#f5f5f5"/>
      <rect id="Rectangle_317" data-name="Rectangle 317" width="14.688" height="5.699" transform="translate(114.73 212.785)" fill="#f5f5f5"/>
      <rect id="Rectangle_318" data-name="Rectangle 318" width="14.688" height="5.699" transform="translate(130.703 212.785)" fill="#f5f5f5"/>
      <rect id="Rectangle_319" data-name="Rectangle 319" width="14.688" height="5.699" transform="translate(146.676 212.785)" fill="#f5f5f5"/>
      <rect id="Rectangle_320" data-name="Rectangle 320" width="14.688" height="5.699" transform="translate(162.642 212.785)" fill="#f5f5f5"/>
      <rect id="Rectangle_321" data-name="Rectangle 321" width="14.688" height="5.699" transform="translate(178.616 212.785)" fill="#f5f5f5"/>
      <rect id="Rectangle_322" data-name="Rectangle 322" width="14.688" height="5.699" transform="translate(194.589 212.785)" fill="#f5f5f5"/>
      <rect id="Rectangle_323" data-name="Rectangle 323" width="14.688" height="5.699" transform="translate(210.555 212.785)" fill="#f5f5f5"/>
      <rect id="Rectangle_324" data-name="Rectangle 324" width="14.688" height="5.699" transform="translate(226.528 212.785)" fill="#f5f5f5"/>
      <rect id="Rectangle_325" data-name="Rectangle 325" width="14.688" height="5.699" transform="translate(242.502 212.785)" fill="#f5f5f5"/>
      <rect id="Rectangle_326" data-name="Rectangle 326" width="14.688" height="5.699" transform="translate(258.468 212.785)" fill="#f5f5f5"/>
      <rect id="Rectangle_327" data-name="Rectangle 327" width="14.688" height="5.699" transform="translate(274.441 212.785)" fill="#f5f5f5"/>
      <rect id="Rectangle_328" data-name="Rectangle 328" width="6.698" height="5.699" transform="translate(290.414 212.785)" fill="#f5f5f5"/>
      <rect id="Rectangle_329" data-name="Rectangle 329" width="14.688" height="5.699" transform="translate(42.86 205.644)" fill="#f5f5f5"/>
      <rect id="Rectangle_330" data-name="Rectangle 330" width="14.688" height="5.699" transform="translate(58.834 205.644)" fill="#f5f5f5"/>
      <rect id="Rectangle_331" data-name="Rectangle 331" width="14.688" height="5.699" transform="translate(74.807 205.644)" fill="#f5f5f5"/>
      <rect id="Rectangle_332" data-name="Rectangle 332" width="14.688" height="5.699" transform="translate(90.773 205.644)" fill="#f5f5f5"/>
      <rect id="Rectangle_333" data-name="Rectangle 333" width="14.688" height="5.699" transform="translate(106.746 205.644)" fill="#f5f5f5"/>
      <rect id="Rectangle_334" data-name="Rectangle 334" width="14.688" height="5.699" transform="translate(122.72 205.644)" fill="#f5f5f5"/>
      <rect id="Rectangle_335" data-name="Rectangle 335" width="14.688" height="5.699" transform="translate(138.686 205.644)" fill="#f5f5f5"/>
      <rect id="Rectangle_336" data-name="Rectangle 336" width="14.688" height="5.699" transform="translate(154.659 205.644)" fill="#f5f5f5"/>
      <rect id="Rectangle_337" data-name="Rectangle 337" width="14.688" height="5.699" transform="translate(170.632 205.644)" fill="#f5f5f5"/>
      <rect id="Rectangle_338" data-name="Rectangle 338" width="14.688" height="5.699" transform="translate(186.599 205.644)" fill="#f5f5f5"/>
      <rect id="Rectangle_339" data-name="Rectangle 339" width="14.688" height="5.699" transform="translate(202.572 205.644)" fill="#f5f5f5"/>
      <rect id="Rectangle_340" data-name="Rectangle 340" width="14.688" height="5.699" transform="translate(218.545 205.644)" fill="#f5f5f5"/>
      <rect id="Rectangle_341" data-name="Rectangle 341" width="14.688" height="5.699" transform="translate(234.512 205.644)" fill="#f5f5f5"/>
      <rect id="Rectangle_342" data-name="Rectangle 342" width="14.688" height="5.699" transform="translate(250.485 205.644)" fill="#f5f5f5"/>
      <rect id="Rectangle_343" data-name="Rectangle 343" width="14.688" height="5.699" transform="translate(266.458 205.644)" fill="#f5f5f5"/>
      <rect id="Rectangle_344" data-name="Rectangle 344" width="14.688" height="5.699" transform="translate(282.424 205.644)" fill="#f5f5f5"/>
      <rect id="Rectangle_345" data-name="Rectangle 345" width="14.688" height="5.699" transform="translate(50.85 198.504)" fill="#f5f5f5"/>
      <rect id="Rectangle_346" data-name="Rectangle 346" width="6.698" height="5.699" transform="translate(42.86 198.504)" fill="#f5f5f5"/>
      <rect id="Rectangle_347" data-name="Rectangle 347" width="14.688" height="5.699" transform="translate(66.817 198.504)" fill="#f5f5f5"/>
      <rect id="Rectangle_348" data-name="Rectangle 348" width="14.688" height="5.699" transform="translate(82.79 198.504)" fill="#f5f5f5"/>
      <rect id="Rectangle_349" data-name="Rectangle 349" width="14.688" height="5.699" transform="translate(98.763 198.504)" fill="#f5f5f5"/>
      <rect id="Rectangle_350" data-name="Rectangle 350" width="14.688" height="5.699" transform="translate(114.73 198.504)" fill="#f5f5f5"/>
      <rect id="Rectangle_351" data-name="Rectangle 351" width="14.688" height="5.699" transform="translate(130.703 198.504)" fill="#f5f5f5"/>
      <rect id="Rectangle_352" data-name="Rectangle 352" width="14.688" height="5.699" transform="translate(146.676 198.504)" fill="#f5f5f5"/>
      <rect id="Rectangle_353" data-name="Rectangle 353" width="14.688" height="5.699" transform="translate(162.642 198.504)" fill="#f5f5f5"/>
      <rect id="Rectangle_354" data-name="Rectangle 354" width="14.688" height="5.699" transform="translate(178.616 198.504)" fill="#f5f5f5"/>
      <rect id="Rectangle_355" data-name="Rectangle 355" width="14.688" height="5.699" transform="translate(194.589 198.504)" fill="#f5f5f5"/>
      <rect id="Rectangle_356" data-name="Rectangle 356" width="14.688" height="5.699" transform="translate(210.555 198.504)" fill="#f5f5f5"/>
      <rect id="Rectangle_357" data-name="Rectangle 357" width="14.688" height="5.699" transform="translate(226.528 198.504)" fill="#f5f5f5"/>
      <rect id="Rectangle_358" data-name="Rectangle 358" width="14.688" height="5.699" transform="translate(242.502 198.504)" fill="#f5f5f5"/>
      <rect id="Rectangle_359" data-name="Rectangle 359" width="14.688" height="5.699" transform="translate(258.468 198.504)" fill="#f5f5f5"/>
      <rect id="Rectangle_360" data-name="Rectangle 360" width="14.688" height="5.699" transform="translate(274.441 198.504)" fill="#f5f5f5"/>
      <rect id="Rectangle_361" data-name="Rectangle 361" width="6.698" height="5.699" transform="translate(290.414 198.504)" fill="#f5f5f5"/>
      <rect id="Rectangle_362" data-name="Rectangle 362" width="14.688" height="5.699" transform="translate(42.86 191.363)" fill="#f5f5f5"/>
      <rect id="Rectangle_363" data-name="Rectangle 363" width="14.688" height="5.699" transform="translate(58.834 191.363)" fill="#f5f5f5"/>
      <rect id="Rectangle_364" data-name="Rectangle 364" width="14.688" height="5.699" transform="translate(74.807 191.363)" fill="#f5f5f5"/>
      <rect id="Rectangle_365" data-name="Rectangle 365" width="14.688" height="5.699" transform="translate(90.773 191.363)" fill="#f5f5f5"/>
      <rect id="Rectangle_366" data-name="Rectangle 366" width="14.688" height="5.699" transform="translate(106.746 191.363)" fill="#f5f5f5"/>
      <rect id="Rectangle_367" data-name="Rectangle 367" width="14.688" height="5.699" transform="translate(122.72 191.363)" fill="#f5f5f5"/>
      <rect id="Rectangle_368" data-name="Rectangle 368" width="14.688" height="5.699" transform="translate(138.686 191.363)" fill="#f5f5f5"/>
      <rect id="Rectangle_369" data-name="Rectangle 369" width="14.688" height="5.699" transform="translate(154.659 191.363)" fill="#f5f5f5"/>
      <rect id="Rectangle_370" data-name="Rectangle 370" width="14.688" height="5.699" transform="translate(170.632 191.363)" fill="#f5f5f5"/>
      <rect id="Rectangle_371" data-name="Rectangle 371" width="14.688" height="5.699" transform="translate(186.599 191.363)" fill="#f5f5f5"/>
      <rect id="Rectangle_372" data-name="Rectangle 372" width="14.688" height="5.699" transform="translate(202.572 191.363)" fill="#f5f5f5"/>
      <rect id="Rectangle_373" data-name="Rectangle 373" width="14.688" height="5.699" transform="translate(218.545 191.363)" fill="#f5f5f5"/>
      <rect id="Rectangle_374" data-name="Rectangle 374" width="14.688" height="5.699" transform="translate(234.512 191.363)" fill="#f5f5f5"/>
      <rect id="Rectangle_375" data-name="Rectangle 375" width="14.688" height="5.699" transform="translate(250.485 191.363)" fill="#f5f5f5"/>
      <rect id="Rectangle_376" data-name="Rectangle 376" width="14.688" height="5.699" transform="translate(266.458 191.363)" fill="#f5f5f5"/>
      <rect id="Rectangle_377" data-name="Rectangle 377" width="14.688" height="5.699" transform="translate(282.424 191.363)" fill="#f5f5f5"/>
      <rect id="Rectangle_378" data-name="Rectangle 378" width="14.688" height="5.699" transform="translate(50.85 184.222)" fill="#f5f5f5"/>
      <rect id="Rectangle_379" data-name="Rectangle 379" width="6.698" height="5.699" transform="translate(42.86 184.222)" fill="#f5f5f5"/>
      <rect id="Rectangle_380" data-name="Rectangle 380" width="14.688" height="5.699" transform="translate(66.817 184.222)" fill="#f5f5f5"/>
      <rect id="Rectangle_381" data-name="Rectangle 381" width="14.688" height="5.699" transform="translate(82.79 184.222)" fill="#f5f5f5"/>
      <rect id="Rectangle_382" data-name="Rectangle 382" width="14.688" height="5.699" transform="translate(98.763 184.222)" fill="#f5f5f5"/>
      <rect id="Rectangle_383" data-name="Rectangle 383" width="14.688" height="5.699" transform="translate(114.73 184.222)" fill="#f5f5f5"/>
      <rect id="Rectangle_384" data-name="Rectangle 384" width="14.688" height="5.699" transform="translate(130.703 184.222)" fill="#f5f5f5"/>
      <rect id="Rectangle_385" data-name="Rectangle 385" width="14.688" height="5.699" transform="translate(146.676 184.222)" fill="#f5f5f5"/>
      <rect id="Rectangle_386" data-name="Rectangle 386" width="14.688" height="5.699" transform="translate(162.642 184.222)" fill="#f5f5f5"/>
      <rect id="Rectangle_387" data-name="Rectangle 387" width="14.688" height="5.699" transform="translate(178.616 184.222)" fill="#f5f5f5"/>
      <rect id="Rectangle_388" data-name="Rectangle 388" width="14.688" height="5.699" transform="translate(194.589 184.222)" fill="#f5f5f5"/>
      <rect id="Rectangle_389" data-name="Rectangle 389" width="14.688" height="5.699" transform="translate(210.555 184.222)" fill="#f5f5f5"/>
      <rect id="Rectangle_390" data-name="Rectangle 390" width="14.688" height="5.699" transform="translate(226.528 184.222)" fill="#f5f5f5"/>
      <rect id="Rectangle_391" data-name="Rectangle 391" width="14.688" height="5.699" transform="translate(242.502 184.222)" fill="#f5f5f5"/>
      <rect id="Rectangle_392" data-name="Rectangle 392" width="14.688" height="5.699" transform="translate(258.468 184.222)" fill="#f5f5f5"/>
      <rect id="Rectangle_393" data-name="Rectangle 393" width="14.688" height="5.699" transform="translate(274.441 184.222)" fill="#f5f5f5"/>
      <rect id="Rectangle_394" data-name="Rectangle 394" width="6.698" height="5.699" transform="translate(290.414 184.222)" fill="#f5f5f5"/>
      <rect id="Rectangle_395" data-name="Rectangle 395" width="14.688" height="5.699" transform="translate(42.86 177.082)" fill="#f5f5f5"/>
      <rect id="Rectangle_396" data-name="Rectangle 396" width="14.688" height="5.699" transform="translate(58.834 177.082)" fill="#f5f5f5"/>
      <rect id="Rectangle_397" data-name="Rectangle 397" width="14.688" height="5.699" transform="translate(74.807 177.082)" fill="#f5f5f5"/>
      <rect id="Rectangle_398" data-name="Rectangle 398" width="14.688" height="5.699" transform="translate(90.773 177.082)" fill="#f5f5f5"/>
      <rect id="Rectangle_399" data-name="Rectangle 399" width="14.688" height="5.699" transform="translate(106.746 177.082)" fill="#f5f5f5"/>
      <rect id="Rectangle_400" data-name="Rectangle 400" width="14.688" height="5.699" transform="translate(122.72 177.082)" fill="#f5f5f5"/>
      <rect id="Rectangle_401" data-name="Rectangle 401" width="14.688" height="5.699" transform="translate(138.686 177.082)" fill="#f5f5f5"/>
      <rect id="Rectangle_402" data-name="Rectangle 402" width="14.688" height="5.699" transform="translate(154.659 177.082)" fill="#f5f5f5"/>
      <rect id="Rectangle_403" data-name="Rectangle 403" width="14.688" height="5.699" transform="translate(170.632 177.082)" fill="#f5f5f5"/>
      <rect id="Rectangle_404" data-name="Rectangle 404" width="14.688" height="5.699" transform="translate(186.599 177.082)" fill="#f5f5f5"/>
      <rect id="Rectangle_405" data-name="Rectangle 405" width="14.688" height="5.699" transform="translate(202.572 177.082)" fill="#f5f5f5"/>
      <rect id="Rectangle_406" data-name="Rectangle 406" width="14.688" height="5.699" transform="translate(218.545 177.082)" fill="#f5f5f5"/>
      <rect id="Rectangle_407" data-name="Rectangle 407" width="14.688" height="5.699" transform="translate(234.512 177.082)" fill="#f5f5f5"/>
      <rect id="Rectangle_408" data-name="Rectangle 408" width="14.688" height="5.699" transform="translate(250.485 177.082)" fill="#f5f5f5"/>
      <rect id="Rectangle_409" data-name="Rectangle 409" width="14.688" height="5.699" transform="translate(266.458 177.082)" fill="#f5f5f5"/>
      <rect id="Rectangle_410" data-name="Rectangle 410" width="14.688" height="5.699" transform="translate(282.424 177.082)" fill="#f5f5f5"/>
      <rect id="Rectangle_411" data-name="Rectangle 411" width="14.688" height="5.699" transform="translate(50.85 169.941)" fill="#f5f5f5"/>
      <rect id="Rectangle_412" data-name="Rectangle 412" width="6.698" height="5.699" transform="translate(42.86 169.941)" fill="#f5f5f5"/>
      <rect id="Rectangle_413" data-name="Rectangle 413" width="14.688" height="5.699" transform="translate(66.817 169.941)" fill="#f5f5f5"/>
      <rect id="Rectangle_414" data-name="Rectangle 414" width="14.688" height="5.699" transform="translate(82.79 169.941)" fill="#f5f5f5"/>
      <rect id="Rectangle_415" data-name="Rectangle 415" width="14.688" height="5.699" transform="translate(98.763 169.941)" fill="#f5f5f5"/>
      <rect id="Rectangle_416" data-name="Rectangle 416" width="14.688" height="5.699" transform="translate(114.73 169.941)" fill="#f5f5f5"/>
      <rect id="Rectangle_417" data-name="Rectangle 417" width="14.688" height="5.699" transform="translate(130.703 169.941)" fill="#f5f5f5"/>
      <rect id="Rectangle_418" data-name="Rectangle 418" width="14.688" height="5.699" transform="translate(146.676 169.941)" fill="#f5f5f5"/>
      <rect id="Rectangle_419" data-name="Rectangle 419" width="14.688" height="5.699" transform="translate(162.642 169.941)" fill="#f5f5f5"/>
      <rect id="Rectangle_420" data-name="Rectangle 420" width="14.688" height="5.699" transform="translate(178.616 169.941)" fill="#f5f5f5"/>
      <rect id="Rectangle_421" data-name="Rectangle 421" width="14.688" height="5.699" transform="translate(194.589 169.941)" fill="#f5f5f5"/>
      <rect id="Rectangle_422" data-name="Rectangle 422" width="14.688" height="5.699" transform="translate(210.555 169.941)" fill="#f5f5f5"/>
      <rect id="Rectangle_423" data-name="Rectangle 423" width="14.688" height="5.699" transform="translate(226.528 169.941)" fill="#f5f5f5"/>
      <rect id="Rectangle_424" data-name="Rectangle 424" width="14.688" height="5.699" transform="translate(242.502 169.941)" fill="#f5f5f5"/>
      <rect id="Rectangle_425" data-name="Rectangle 425" width="14.688" height="5.699" transform="translate(258.468 169.941)" fill="#f5f5f5"/>
      <rect id="Rectangle_426" data-name="Rectangle 426" width="14.688" height="5.699" transform="translate(274.441 169.941)" fill="#f5f5f5"/>
      <rect id="Rectangle_427" data-name="Rectangle 427" width="6.698" height="5.699" transform="translate(290.414 169.941)" fill="#f5f5f5"/>
      <rect id="Rectangle_428" data-name="Rectangle 428" width="14.688" height="5.699" transform="translate(42.86 162.8)" fill="#f5f5f5"/>
      <rect id="Rectangle_429" data-name="Rectangle 429" width="14.688" height="5.699" transform="translate(58.834 162.8)" fill="#f5f5f5"/>
      <rect id="Rectangle_430" data-name="Rectangle 430" width="14.688" height="5.699" transform="translate(74.807 162.8)" fill="#f5f5f5"/>
      <rect id="Rectangle_431" data-name="Rectangle 431" width="14.688" height="5.699" transform="translate(90.773 162.8)" fill="#f5f5f5"/>
      <rect id="Rectangle_432" data-name="Rectangle 432" width="14.688" height="5.699" transform="translate(106.746 162.8)" fill="#f5f5f5"/>
      <rect id="Rectangle_433" data-name="Rectangle 433" width="14.688" height="5.699" transform="translate(122.72 162.8)" fill="#f5f5f5"/>
      <rect id="Rectangle_434" data-name="Rectangle 434" width="14.688" height="5.699" transform="translate(138.686 162.8)" fill="#f5f5f5"/>
      <rect id="Rectangle_435" data-name="Rectangle 435" width="14.688" height="5.699" transform="translate(154.659 162.8)" fill="#f5f5f5"/>
      <rect id="Rectangle_436" data-name="Rectangle 436" width="14.688" height="5.699" transform="translate(170.632 162.8)" fill="#f5f5f5"/>
      <rect id="Rectangle_437" data-name="Rectangle 437" width="14.688" height="5.699" transform="translate(186.599 162.8)" fill="#f5f5f5"/>
      <rect id="Rectangle_438" data-name="Rectangle 438" width="14.688" height="5.699" transform="translate(202.572 162.8)" fill="#f5f5f5"/>
      <rect id="Rectangle_439" data-name="Rectangle 439" width="14.688" height="5.699" transform="translate(218.545 162.8)" fill="#f5f5f5"/>
      <rect id="Rectangle_440" data-name="Rectangle 440" width="14.688" height="5.699" transform="translate(234.512 162.8)" fill="#f5f5f5"/>
      <rect id="Rectangle_441" data-name="Rectangle 441" width="14.688" height="5.699" transform="translate(250.485 162.8)" fill="#f5f5f5"/>
      <rect id="Rectangle_442" data-name="Rectangle 442" width="14.688" height="5.699" transform="translate(266.458 162.8)" fill="#f5f5f5"/>
      <rect id="Rectangle_443" data-name="Rectangle 443" width="14.688" height="5.699" transform="translate(282.424 162.8)" fill="#f5f5f5"/>
      <rect id="Rectangle_444" data-name="Rectangle 444" width="14.688" height="5.699" transform="translate(50.85 155.66)" fill="#f5f5f5"/>
      <rect id="Rectangle_445" data-name="Rectangle 445" width="6.698" height="5.699" transform="translate(42.86 155.66)" fill="#f5f5f5"/>
      <rect id="Rectangle_446" data-name="Rectangle 446" width="14.688" height="5.699" transform="translate(66.817 155.66)" fill="#f5f5f5"/>
      <rect id="Rectangle_447" data-name="Rectangle 447" width="14.688" height="5.699" transform="translate(82.79 155.66)" fill="#f5f5f5"/>
      <rect id="Rectangle_448" data-name="Rectangle 448" width="14.688" height="5.699" transform="translate(98.763 155.66)" fill="#f5f5f5"/>
      <rect id="Rectangle_449" data-name="Rectangle 449" width="14.688" height="5.699" transform="translate(114.73 155.66)" fill="#f5f5f5"/>
      <rect id="Rectangle_450" data-name="Rectangle 450" width="14.688" height="5.699" transform="translate(130.703 155.66)" fill="#f5f5f5"/>
      <rect id="Rectangle_451" data-name="Rectangle 451" width="14.688" height="5.699" transform="translate(146.676 155.66)" fill="#f5f5f5"/>
      <rect id="Rectangle_452" data-name="Rectangle 452" width="14.688" height="5.699" transform="translate(162.642 155.66)" fill="#f5f5f5"/>
      <rect id="Rectangle_453" data-name="Rectangle 453" width="14.688" height="5.699" transform="translate(178.616 155.66)" fill="#f5f5f5"/>
      <rect id="Rectangle_454" data-name="Rectangle 454" width="14.688" height="5.699" transform="translate(194.589 155.66)" fill="#f5f5f5"/>
      <rect id="Rectangle_455" data-name="Rectangle 455" width="14.688" height="5.699" transform="translate(210.555 155.66)" fill="#f5f5f5"/>
      <rect id="Rectangle_456" data-name="Rectangle 456" width="14.688" height="5.699" transform="translate(226.528 155.66)" fill="#f5f5f5"/>
      <rect id="Rectangle_457" data-name="Rectangle 457" width="14.688" height="5.699" transform="translate(242.502 155.66)" fill="#f5f5f5"/>
      <rect id="Rectangle_458" data-name="Rectangle 458" width="14.688" height="5.699" transform="translate(258.468 155.66)" fill="#f5f5f5"/>
      <rect id="Rectangle_459" data-name="Rectangle 459" width="14.688" height="5.699" transform="translate(274.441 155.66)" fill="#f5f5f5"/>
      <rect id="Rectangle_460" data-name="Rectangle 460" width="6.698" height="5.699" transform="translate(290.414 155.66)" fill="#f5f5f5"/>
      <rect id="Rectangle_461" data-name="Rectangle 461" width="14.688" height="5.699" transform="translate(42.86 148.519)" fill="#f5f5f5"/>
      <rect id="Rectangle_462" data-name="Rectangle 462" width="14.688" height="5.699" transform="translate(58.834 148.519)" fill="#f5f5f5"/>
      <rect id="Rectangle_463" data-name="Rectangle 463" width="14.688" height="5.699" transform="translate(74.807 148.519)" fill="#f5f5f5"/>
      <rect id="Rectangle_464" data-name="Rectangle 464" width="14.688" height="5.699" transform="translate(90.773 148.519)" fill="#f5f5f5"/>
      <rect id="Rectangle_465" data-name="Rectangle 465" width="14.688" height="5.699" transform="translate(106.746 148.519)" fill="#f5f5f5"/>
      <rect id="Rectangle_466" data-name="Rectangle 466" width="14.688" height="5.699" transform="translate(122.72 148.519)" fill="#f5f5f5"/>
      <rect id="Rectangle_467" data-name="Rectangle 467" width="14.688" height="5.699" transform="translate(138.686 148.519)" fill="#f5f5f5"/>
      <rect id="Rectangle_468" data-name="Rectangle 468" width="14.688" height="5.699" transform="translate(154.659 148.519)" fill="#f5f5f5"/>
      <rect id="Rectangle_469" data-name="Rectangle 469" width="14.688" height="5.699" transform="translate(170.632 148.519)" fill="#f5f5f5"/>
      <rect id="Rectangle_470" data-name="Rectangle 470" width="14.688" height="5.699" transform="translate(186.599 148.519)" fill="#f5f5f5"/>
      <rect id="Rectangle_471" data-name="Rectangle 471" width="14.688" height="5.699" transform="translate(202.572 148.519)" fill="#f5f5f5"/>
      <rect id="Rectangle_472" data-name="Rectangle 472" width="14.688" height="5.699" transform="translate(218.545 148.519)" fill="#f5f5f5"/>
      <rect id="Rectangle_473" data-name="Rectangle 473" width="14.688" height="5.699" transform="translate(234.512 148.519)" fill="#f5f5f5"/>
      <rect id="Rectangle_474" data-name="Rectangle 474" width="14.688" height="5.699" transform="translate(250.485 148.519)" fill="#f5f5f5"/>
      <rect id="Rectangle_475" data-name="Rectangle 475" width="14.688" height="5.699" transform="translate(266.458 148.519)" fill="#f5f5f5"/>
      <rect id="Rectangle_476" data-name="Rectangle 476" width="14.688" height="5.699" transform="translate(282.424 148.519)" fill="#f5f5f5"/>
      <rect id="Rectangle_477" data-name="Rectangle 477" width="14.688" height="5.699" transform="translate(50.85 141.372)" fill="#f5f5f5"/>
      <rect id="Rectangle_478" data-name="Rectangle 478" width="6.698" height="5.699" transform="translate(42.86 141.372)" fill="#f5f5f5"/>
      <rect id="Rectangle_479" data-name="Rectangle 479" width="14.688" height="5.699" transform="translate(66.817 141.372)" fill="#f5f5f5"/>
      <rect id="Rectangle_480" data-name="Rectangle 480" width="14.688" height="5.699" transform="translate(82.79 141.372)" fill="#f5f5f5"/>
      <rect id="Rectangle_481" data-name="Rectangle 481" width="14.688" height="5.699" transform="translate(98.763 141.372)" fill="#f5f5f5"/>
      <rect id="Rectangle_482" data-name="Rectangle 482" width="14.688" height="5.699" transform="translate(114.73 141.372)" fill="#f5f5f5"/>
      <rect id="Rectangle_483" data-name="Rectangle 483" width="14.688" height="5.699" transform="translate(130.703 141.372)" fill="#f5f5f5"/>
      <rect id="Rectangle_484" data-name="Rectangle 484" width="14.688" height="5.699" transform="translate(146.676 141.372)" fill="#f5f5f5"/>
      <rect id="Rectangle_485" data-name="Rectangle 485" width="14.688" height="5.699" transform="translate(162.642 141.372)" fill="#f5f5f5"/>
      <rect id="Rectangle_486" data-name="Rectangle 486" width="14.688" height="5.699" transform="translate(178.616 141.372)" fill="#f5f5f5"/>
      <rect id="Rectangle_487" data-name="Rectangle 487" width="14.688" height="5.699" transform="translate(194.589 141.372)" fill="#f5f5f5"/>
      <rect id="Rectangle_488" data-name="Rectangle 488" width="14.688" height="5.699" transform="translate(210.555 141.372)" fill="#f5f5f5"/>
      <rect id="Rectangle_489" data-name="Rectangle 489" width="14.688" height="5.699" transform="translate(226.528 141.372)" fill="#f5f5f5"/>
      <rect id="Rectangle_490" data-name="Rectangle 490" width="14.688" height="5.699" transform="translate(242.502 141.372)" fill="#f5f5f5"/>
      <rect id="Rectangle_491" data-name="Rectangle 491" width="14.688" height="5.699" transform="translate(258.468 141.372)" fill="#f5f5f5"/>
      <rect id="Rectangle_492" data-name="Rectangle 492" width="14.688" height="5.699" transform="translate(274.441 141.372)" fill="#f5f5f5"/>
      <rect id="Rectangle_493" data-name="Rectangle 493" width="6.698" height="5.699" transform="translate(290.414 141.372)" fill="#f5f5f5"/>
      <rect id="Rectangle_494" data-name="Rectangle 494" width="14.688" height="5.699" transform="translate(42.86 134.231)" fill="#f5f5f5"/>
      <rect id="Rectangle_495" data-name="Rectangle 495" width="14.688" height="5.699" transform="translate(58.834 134.231)" fill="#f5f5f5"/>
      <rect id="Rectangle_496" data-name="Rectangle 496" width="14.688" height="5.699" transform="translate(74.807 134.231)" fill="#f5f5f5"/>
      <rect id="Rectangle_497" data-name="Rectangle 497" width="14.688" height="5.699" transform="translate(90.773 134.231)" fill="#f5f5f5"/>
      <rect id="Rectangle_498" data-name="Rectangle 498" width="14.688" height="5.699" transform="translate(106.746 134.231)" fill="#f5f5f5"/>
      <rect id="Rectangle_499" data-name="Rectangle 499" width="14.688" height="5.699" transform="translate(122.72 134.231)" fill="#f5f5f5"/>
      <rect id="Rectangle_500" data-name="Rectangle 500" width="14.688" height="5.699" transform="translate(138.686 134.231)" fill="#f5f5f5"/>
      <rect id="Rectangle_501" data-name="Rectangle 501" width="14.688" height="5.699" transform="translate(154.659 134.231)" fill="#f5f5f5"/>
      <rect id="Rectangle_502" data-name="Rectangle 502" width="14.688" height="5.699" transform="translate(170.632 134.231)" fill="#f5f5f5"/>
      <rect id="Rectangle_503" data-name="Rectangle 503" width="14.688" height="5.699" transform="translate(186.599 134.231)" fill="#f5f5f5"/>
      <rect id="Rectangle_504" data-name="Rectangle 504" width="14.688" height="5.699" transform="translate(202.572 134.231)" fill="#f5f5f5"/>
      <rect id="Rectangle_505" data-name="Rectangle 505" width="14.688" height="5.699" transform="translate(218.545 134.231)" fill="#f5f5f5"/>
      <rect id="Rectangle_506" data-name="Rectangle 506" width="14.688" height="5.699" transform="translate(234.512 134.231)" fill="#f5f5f5"/>
      <rect id="Rectangle_507" data-name="Rectangle 507" width="14.688" height="5.699" transform="translate(250.485 134.231)" fill="#f5f5f5"/>
      <rect id="Rectangle_508" data-name="Rectangle 508" width="14.688" height="5.699" transform="translate(266.458 134.231)" fill="#f5f5f5"/>
      <rect id="Rectangle_509" data-name="Rectangle 509" width="14.688" height="5.699" transform="translate(282.424 134.231)" fill="#f5f5f5"/>
    </g>
    <g id="freepik--Shadow--inject-1" transform="translate(38.155 288.52)">
      <ellipse id="freepik--path--inject-1" cx="131.845" cy="7.554" rx="131.845" ry="7.554" fill="#f5f5f5"/>
    </g>
    <g id="freepik--Clothes--inject-1" transform="translate(61.601 130.513)">
      <path id="Path_475" data-name="Path 475" d="M233.75,184.51s-2.761,3.864-5.875,3.864-6.589-3.864-6.589-3.864-8.16,5.859-9.574,7.741-2.278,23.05-1.612,32.2-10.826,81.63-9.867,88.01,18.108,4.111,28.22,4.191,24.222,3.684,25.84-1.7-.966-34.582-4.488-49.344-3.747-48.55-4.44-55.771-1.238-15.3-1.775-17.591S233.75,184.51,233.75,184.51Z" transform="translate(-125.658 -173.594)" fill="#407bff"/>
      <path id="Path_476" data-name="Path 476" d="M201.91,265.623a79.373,79.373,0,0,1-.9,14.809c-.544,3.3-1.068,4.091-4.6,3.39-2.237-.447-4.529-1.588-6.841-.861a20.544,20.544,0,0,0-2.217,1.008,14.262,14.262,0,0,1-5.556.754h-13.26c-3.08,0-6.072.667-6.392-2.976a268.115,268.115,0,0,1,.17-43.278c.272-3.6.592-7.2.938-10.8.3-3.09,1.17-6.567.68-9.65a90.533,90.533,0,0,1-.741-16.751c.054-2.416-.619-7.661,1-9.757,1.442-1.875,10.662-7.027,10.662-7.027s3.468,3.864,6.582,3.864,5.882-3.864,5.882-3.864,11.172,6.006,11.71,8.322-.8,9.8-.109,17.011c.843,8.722.129,17.3.68,26.027s1.748,17.351,2.2,26.027Q201.862,263.761,201.91,265.623Z" transform="translate(-113.231 -173.584)" fill="#407bff"/>
      <path id="Path_477" data-name="Path 477" d="M148.908,262.62a79.373,79.373,0,0,1-.9,14.809c-.544,3.3-1.068,4.091-4.6,3.39-2.244-.447-4.529-1.6-6.848-.861a20.536,20.536,0,0,0-2.217,1.008,14.136,14.136,0,0,1-5.556.747h-13.26c-3.08,0-6.066.667-6.392-2.976a268.117,268.117,0,0,1,.177-43.278q.408-5.406.932-10.8c.3-3.09,1.176-6.567.68-9.65-.9-5.546,1.17-9.763,1.306-15.416.054-2.416-.619-7.661,1-9.757,1.442-1.875,8.622-8.362,8.622-8.362s3.468,3.857,6.582,3.857,5.882-3.857,5.882-3.857,9.812,7.341,10.35,9.657.558,8.462,1.251,15.676c.836,8.722.129,17.3.68,26.027s1.748,17.351,2.2,26.027C148.8,260.131,148.853,261.379,148.908,262.62Z" transform="translate(-96.269 -172.583)" fill="#407bff"/>
      <path id="Path_478" data-name="Path 478" d="M148.908,262.62a79.373,79.373,0,0,1-.9,14.809c-.544,3.3-1.068,4.091-4.6,3.39-2.244-.447-4.529-1.6-6.848-.861a20.536,20.536,0,0,0-2.217,1.008,14.136,14.136,0,0,1-5.556.747h-13.26c-3.08,0-6.066.667-6.392-2.976a268.117,268.117,0,0,1,.177-43.278q.408-5.406.932-10.8c.3-3.09,1.176-6.567.68-9.65-.9-5.546,1.17-9.763,1.306-15.416.054-2.416-.619-7.661,1-9.757,1.442-1.875,8.622-8.362,8.622-8.362s3.468,3.857,6.582,3.857,5.882-3.857,5.882-3.857,9.812,7.341,10.35,9.657.558,8.462,1.251,15.676c.836,8.722.129,17.3.68,26.027s1.748,17.351,2.2,26.027C148.8,260.131,148.853,261.379,148.908,262.62Z" transform="translate(-96.269 -172.583)" fill="#fff" opacity="0.7"/>
      <path id="Path_479" data-name="Path 479" d="M201.91,265.623a79.373,79.373,0,0,1-.9,14.809c-.544,3.3-1.068,4.091-4.6,3.39-2.237-.447-4.529-1.588-6.841-.861a20.544,20.544,0,0,0-2.217,1.008,14.262,14.262,0,0,1-5.556.754h-13.26c-3.08,0-6.072.667-6.392-2.976a268.115,268.115,0,0,1,.17-43.278c.272-3.6.592-7.2.938-10.8.3-3.09,1.17-6.567.68-9.65a90.533,90.533,0,0,1-.741-16.751c.054-2.416-.619-7.661,1-9.757,1.442-1.875,10.662-7.027,10.662-7.027s3.468,3.864,6.582,3.864,5.882-3.864,5.882-3.864,11.172,6.006,11.71,8.322-.8,9.8-.109,17.011c.843,8.722.129,17.3.68,26.027s1.748,17.351,2.2,26.027Q201.862,263.761,201.91,265.623Z" transform="translate(-113.231 -173.584)" fill="#fff" opacity="0.7"/>
      <path id="Path_480" data-name="Path 480" d="M233.75,184.51s-2.761,3.864-5.875,3.864-6.589-3.864-6.589-3.864-8.16,5.859-9.574,7.741-2.278,23.05-1.612,32.2-10.826,81.63-9.867,88.01,18.108,4.111,28.22,4.191,24.222,3.684,25.84-1.7-.966-34.582-4.488-49.344-3.747-48.55-4.44-55.771-1.238-15.3-1.775-17.591S233.75,184.51,233.75,184.51Z" transform="translate(-125.658 -173.594)" fill="#fff" opacity="0.7"/>
      <path id="Path_481" data-name="Path 481" d="M91.61,326.074h2.421V170.741a1.011,1.011,0,0,1,1.02-1H221.612a1.011,1.011,0,0,1,1.02,1V326.074h2.285a1,1,0,1,1,0,2H217.4a1,1,0,1,1,0-2h3.2V171.742H96.071V326.074h3.06a1,1,0,1,1,0,2H91.61a1,1,0,1,1,0-2Z" transform="translate(-90.59 -168.681)" fill="#263238"/>
      <path id="Path_482" data-name="Path 482" d="M91.61,326.074h2.421V170.741a1.011,1.011,0,0,1,1.02-1H221.612a1.011,1.011,0,0,1,1.02,1V326.074h2.285a1,1,0,1,1,0,2H217.4a1,1,0,1,1,0-2h3.2V171.742H96.071V326.074h3.06a1,1,0,1,1,0,2H91.61a1,1,0,1,1,0-2Z" transform="translate(-90.59 -168.681)" fill="#fff" opacity="0.4"/>
      <path id="Path_483" data-name="Path 483" d="M219.617,191.234a1.143,1.143,0,0,1,.428-1.335l13.45-9.69a.345.345,0,0,1,.394,0l14.321,9.677a1.17,1.17,0,0,1,.459,1.318,1.2,1.2,0,0,1-1.139.831H220.753A1.182,1.182,0,0,1,219.617,191.234Zm.83-.774a.489.489,0,0,0-.184.567.509.509,0,0,0,.49.354h26.778a.51.51,0,0,0,.292-.934L233.707,180.9Z" transform="translate(-131.856 -172.143)" fill="#263238"/>
      <path id="Path_484" data-name="Path 484" d="M239.238,176.84a.337.337,0,0,0,.34-.334v-3.45c.347-.547,1.8-2.99,1.108-4.224a1.513,1.513,0,0,0-1.448-.667c-1.17,0-1.924.274-2.237.814a1.5,1.5,0,0,0,.061,1.415.34.34,0,0,0,.211.153.345.345,0,0,0,.259-.039.33.33,0,0,0,.1-.454.847.847,0,0,1-.054-.747c.184-.307.768-.474,1.646-.474.68,0,.8.26.85.34.408.734-.483,2.616-1.136,3.63a.329.329,0,0,0-.054.174v3.55A.338.338,0,0,0,239.238,176.84Z" transform="translate(-137.394 -168.153)" fill="#263238"/>
      <path id="Path_485" data-name="Path 485" d="M252.18,198.554l.517-10.744,2.564,1.875-.938,9.2Z" transform="translate(-142.299 -174.692)" fill="#407bff"/>
      <path id="Path_486" data-name="Path 486" d="M227.6,198.888l-1.027-11.078-2.312,1.875.6,9.2Z" transform="translate(-133.364 -174.692)" fill="#407bff"/>
      <path id="Path_487" data-name="Path 487" d="M252.18,198.554l.517-10.744,2.564,1.875-.938,9.2Z" transform="translate(-142.299 -174.692)" opacity="0.2"/>
      <path id="Path_488" data-name="Path 488" d="M227.6,198.888l-1.027-11.078-2.312,1.875.6,9.2Z" transform="translate(-133.364 -174.692)" opacity="0.2"/>
      <path id="Path_489" data-name="Path 489" d="M209,315.167c2.149-.047,4.352-.787,6.392-.133,1.034.327,1.924.988,2.924,1.4,2.455.994,5.277.36,7.752-.594s4.862-2.242,7.48-2.569c4.814-.581,9.52,2.136,14.348,1.915,2.19-.1,6.766-1.135,7.249-3.5a5.978,5.978,0,0,0-.292-1.662c-.292-1.7-.571-3.41-.864-5.119l-2.836-16.824L243.7,243.927q-1.734-10.251-3.461-20.5l-.469-2.783a2.632,2.632,0,0,0-.075-.454l.428-2.669q.87-5.439,1.727-10.871l.68-4.358a2.661,2.661,0,0,0,.088-1.168.663.663,0,0,0-.122-.227c-.755-.921-3.461-.848-4.5-.7a29.6,29.6,0,0,0-4.944,1.542,19.691,19.691,0,0,1-11.05.113,19.3,19.3,0,0,0-3.4-.787c-1.36-.113-3.2.133-3.108,1.708a17.179,17.179,0,0,0,.292,1.755q1.523,8.956,3.026,17.912v.107c-.1.6-.2,1.208-.3,1.809l-3.529,21.035q-3.652,21.749-7.3,43.5l-2.8,16.724C204.25,309.481,202.353,315.314,209,315.167Z" transform="translate(-126.927 -178.783)" fill="#407bff"/>
      <path id="Path_490" data-name="Path 490" d="M225.3,234.557c1.319.541,4.27,1.488,6.956.567,3.584-1.228,7.48,2.536,11.893.387a13.335,13.335,0,0,0,2.883-1.849l-.469-2.783a6.383,6.383,0,0,1-5.6,1.955c-4.223-.881-6.283-1.542-9.738.113a6.929,6.929,0,0,1-5.624-.2C225.5,233.349,225.4,233.956,225.3,234.557Z" transform="translate(-133.697 -189.019)" opacity="0.2"/>
      <path id="Path_491" data-name="Path 491" d="M169.2,191.234a1.143,1.143,0,0,1,.428-1.335l13.45-9.69a.345.345,0,0,1,.394,0l14.321,9.677a1.17,1.17,0,0,1,.459,1.318,1.2,1.2,0,0,1-1.139.831H170.333a1.182,1.182,0,0,1-1.136-.8Zm.83-.774a.489.489,0,0,0-.184.567.509.509,0,0,0,.49.354h26.778a.522.522,0,0,0,.492-.363.509.509,0,0,0-.2-.571L183.321,180.9Z" transform="translate(-115.722 -172.143)" fill="#263238"/>
      <path id="Path_492" data-name="Path 492" d="M188.818,176.84a.337.337,0,0,0,.34-.334v-3.45c.347-.547,1.8-2.99,1.108-4.224a1.513,1.513,0,0,0-1.448-.667c-1.17,0-1.924.274-2.237.814a1.5,1.5,0,0,0,.061,1.415.344.344,0,0,0,.466.117.33.33,0,0,0,.119-.457.847.847,0,0,1-.054-.747c.184-.307.768-.474,1.646-.474.68,0,.8.26.85.34.408.734-.483,2.616-1.136,3.63a.329.329,0,0,0-.054.174v3.55A.337.337,0,0,0,188.818,176.84Z" transform="translate(-121.26 -168.153)" fill="#263238"/>
      <path id="Path_493" data-name="Path 493" d="M188.856,186.107s-4.814,3.41-7.317,3.41-5.9-3.757-5.9-3.757l-6.059,4.057c-.891.594-2.788,1.381-3.4,2.269-.952,1.395.993,4.625,1.945,5.926a3.322,3.322,0,0,1,.578.981,4.273,4.273,0,0,1,.082.888c.129,2.156,2.1,3.29,2.475,5.232a13.084,13.084,0,0,1-.3,3.337c-.15,1.675-.286,3.337-.428,5.032q-.632,7.441-1.258,14.875-1.5,17.6-2.985,35.183-.585,6.807-1.156,13.607c-.068.787-.5,2.342-.048,2.976a11.02,11.02,0,0,0,2,.954,16.349,16.349,0,0,0,4.991,1.141c4.76.567,9.71,1.134,14.355-.113a23.9,23.9,0,0,1,2.36-.594c2.21-.334,4.461.414,6.691.24,1.9-.14,3.162-1.415,4.876-1.768-.68-5.886-1.2-11.9-1.829-17.838q-1.816-17.3-3.638-34.609l-1.51-14.388-.51-4.838a18.928,18.928,0,0,1-.245-2.3c.061-1.789,1.782-3.3,2.9-4.671a5.091,5.091,0,0,0,.68-.961,4.449,4.449,0,0,0,.32-1.061,20.768,20.768,0,0,1,2.781-6.093C196.527,190.4,192.209,188.349,188.856,186.107Z" transform="translate(-114.362 -174.01)" fill="#263238"/>
      <path id="Path_494" data-name="Path 494" d="M165.091,280.1a10.587,10.587,0,0,0,2,.948,16.121,16.121,0,0,0,4.991,1.148c4.76.567,9.7,1.134,14.355-.113a23.887,23.887,0,0,1,2.36-.594c2.21-.334,4.461.414,6.691.24,1.9-.14,3.155-1.415,4.876-1.768-.68-5.886-1.21-11.9-1.829-17.838q-1.816-17.3-3.638-34.609l-1.51-14.388-.51-4.838a17.649,17.649,0,0,1-.245-2.3,3.414,3.414,0,0,1,.4-1.461,18.437,18.437,0,0,1,2.5-3.2,5.092,5.092,0,0,0,.68-.961,4.785,4.785,0,0,0,.32-1.061,20.594,20.594,0,0,1,2.781-6.093c-2.822-2.816-7.14-4.865-10.486-7.107,0,0-4.814,3.41-7.317,3.41s-5.9-3.757-5.9-3.757l-6.066,4.057c-.891.594-2.788,1.381-3.4,2.269-.952,1.395.993,4.625,1.945,5.926a3.183,3.183,0,0,1,.571.981,3.859,3.859,0,0,1,.088.888c.116,1.9,1.652,3,2.278,4.558a4.3,4.3,0,0,1,.2.667,13.083,13.083,0,0,1-.3,3.337c-.15,1.675-.286,3.337-.428,5.032q-.632,7.441-1.258,14.875-1.5,17.6-2.985,35.183-.585,6.807-1.156,13.607C165.071,277.908,164.629,279.463,165.091,280.1Z" transform="translate(-114.363 -174.01)" fill="#fff" opacity="0.5"/>
      <path id="Path_495" data-name="Path 495" d="M165.092,289.174a10.587,10.587,0,0,0,2,.948,16.121,16.121,0,0,0,4.991,1.148c4.76.567,9.7,1.134,14.355-.113a23.9,23.9,0,0,1,2.36-.594c2.21-.334,4.461.414,6.691.24,1.9-.14,3.155-1.415,4.876-1.768-.68-5.886-1.21-11.9-1.829-17.838q-1.816-17.3-3.638-34.609l-1.51-14.388-.51-4.838a17.649,17.649,0,0,1-.245-2.3,3.414,3.414,0,0,1,.4-1.461,33.554,33.554,0,0,1-5.712-.073c-2.38-.354-3.747-.881-6.739,0-2.638.774-6.752-.26-9.52,0a4.3,4.3,0,0,1,.2.667,13.083,13.083,0,0,1-.3,3.337c-.15,1.675-.286,3.337-.428,5.032q-.632,7.441-1.258,14.875-1.5,17.6-2.985,35.183-.585,6.807-1.156,13.607C165.071,286.985,164.629,288.54,165.092,289.174Z" transform="translate(-114.364 -183.087)" opacity="0.2"/>
      <path id="Path_496" data-name="Path 496" d="M116.777,191.234a1.136,1.136,0,0,1,.428-1.335l13.45-9.69a.345.345,0,0,1,.394,0l14.321,9.677a1.17,1.17,0,0,1,.459,1.318,1.2,1.2,0,0,1-1.139.831H117.912a1.175,1.175,0,0,1-1.136-.8Zm.809-.774a.482.482,0,0,0-.184.567.5.5,0,0,0,.49.354H144.67a.522.522,0,0,0,.492-.363.509.509,0,0,0-.2-.571L130.846,180.9Z" transform="translate(-98.947 -172.143)" fill="#263238"/>
      <path id="Path_497" data-name="Path 497" d="M136.4,176.84a.337.337,0,0,0,.34-.334v-3.45c.34-.547,1.8-2.99,1.1-4.224a1.5,1.5,0,0,0-1.442-.667c-1.17,0-1.924.274-2.244.814a1.516,1.516,0,0,0,.068,1.415.344.344,0,0,0,.466.117.33.33,0,0,0,.119-.457.866.866,0,0,1-.061-.747c.184-.307.768-.474,1.652-.474.68,0,.8.26.85.34.408.734-.483,2.616-1.136,3.63a.329.329,0,0,0-.054.174v3.55A.337.337,0,0,0,136.4,176.84Z" transform="translate(-104.484 -168.153)" fill="#263238"/>
      <path id="Path_498" data-name="Path 498" d="M141.61,188.241c.082.06-.354,5.819-.19,6.487.394,1.615,1.523,2.876,1.911,4.4.585,2.342.32,5.259.469,7.675.612,10.13,1.149,20.261,1.686,30.4.129,2.5.265,4.992.394,7.488.184,3.437-.313,6.88-.231,10.324.061,2.422,1,7.4-.3,9.543s-8.561.988-10.928.974l-9.724-.087c-2.088,0-4.2.067-6.276-.047-1.489-.08-1.578.08-2.224-1.181s-.469-3.63-.476-5.025c-.088-17.825,1.183-35.777,1.639-53.655l.136-5.212s3.917-7.121,2.258-11.405l4.121-3.771s4.665,3.337,7.106,2.923,5.76-3.564,5.76-3.564Z" transform="translate(-98.627 -173.594)" fill="#407bff"/>
      <path id="Path_499" data-name="Path 499" d="M141.61,188.241c.082.06-.354,5.819-.19,6.487.394,1.615,1.523,2.876,1.911,4.4.585,2.342.32,5.259.469,7.675.612,10.13,1.149,20.261,1.686,30.4.129,2.5.265,4.992.394,7.488.184,3.437-.313,6.88-.231,10.324.061,2.422,1,7.4-.3,9.543s-8.561.988-10.928.974l-9.724-.087c-2.088,0-4.2.067-6.276-.047-1.489-.08-1.578.08-2.224-1.181s-.469-3.63-.476-5.025c-.088-17.825,1.183-35.777,1.639-53.655l.136-5.212s3.917-7.121,2.258-11.405l4.121-3.771s4.665,3.337,7.106,2.923,5.76-3.564,5.76-3.564Z" transform="translate(-98.627 -173.594)" opacity="0.2"/>
      <path id="Path_500" data-name="Path 500" d="M132.908,187.884s-2.224,5.339-3.475,5.392-6.283-5.906-6.283-5.906,2.04-3.53,2.87-3.53S132.908,187.884,132.908,187.884Z" transform="translate(-101.009 -173.371)" fill="#407bff"/>
      <path id="Path_501" data-name="Path 501" d="M137.5,187.881s5.222-4.224,6.12-4.044,3.482,3.036,3.482,3.036-4.556,6.333-5.991,6.4S137.5,187.881,137.5,187.881Z" transform="translate(-105.601 -173.369)" fill="#407bff"/>
      <path id="Path_502" data-name="Path 502" d="M148.908,262.62a79.373,79.373,0,0,1-.9,14.809c-.544,3.3-1.068,4.091-4.6,3.39-2.244-.447-4.529-1.6-6.848-.861a20.536,20.536,0,0,0-2.217,1.008,14.136,14.136,0,0,1-5.556.747h-13.26c-3.08,0-6.066.667-6.392-2.976a268.117,268.117,0,0,1,.177-43.278q.408-5.406.932-10.8c.3-3.09,1.176-6.567.68-9.65-.9-5.546,1.17-9.763,1.306-15.416.054-2.416-.619-7.661,1-9.757,1.442-1.875,8.622-8.362,8.622-8.362s3.468,3.857,6.582,3.857,5.882-3.857,5.882-3.857,9.812,7.341,10.35,9.657.558,8.462,1.251,15.676c.836,8.722.129,17.3.68,26.027s1.748,17.351,2.2,26.027C148.8,260.131,148.853,261.379,148.908,262.62Z" transform="translate(-96.269 -172.583)" fill="#fff" opacity="0.2"/>
      <path id="Path_503" data-name="Path 503" d="M201.91,265.623a79.373,79.373,0,0,1-.9,14.809c-.544,3.3-1.068,4.091-4.6,3.39-2.237-.447-4.529-1.588-6.841-.861a20.544,20.544,0,0,0-2.217,1.008,14.262,14.262,0,0,1-5.556.754h-13.26c-3.08,0-6.072.667-6.392-2.976a268.115,268.115,0,0,1,.17-43.278c.272-3.6.592-7.2.938-10.8.3-3.09,1.17-6.567.68-9.65a90.533,90.533,0,0,1-.741-16.751c.054-2.416-.619-7.661,1-9.757,1.442-1.875,10.662-7.027,10.662-7.027s3.468,3.864,6.582,3.864,5.882-3.864,5.882-3.864,11.172,6.006,11.71,8.322-.8,9.8-.109,17.011c.843,8.722.129,17.3.68,26.027s1.748,17.351,2.2,26.027Q201.862,263.761,201.91,265.623Z" transform="translate(-113.231 -173.584)" fill="#fff" opacity="0.2"/>
      <path id="Path_504" data-name="Path 504" d="M233.75,184.51s-2.761,3.864-5.875,3.864-6.589-3.864-6.589-3.864-8.16,5.859-9.574,7.741-2.278,23.05-1.612,32.2-10.826,81.63-9.867,88.01,18.108,4.111,28.22,4.191,24.222,3.684,25.84-1.7-.966-34.582-4.488-49.344-3.747-48.55-4.44-55.771-1.238-15.3-1.775-17.591S233.75,184.51,233.75,184.51Z" transform="translate(-125.658 -173.594)" fill="#fff" opacity="0.2"/>
    </g>
    <g id="freepik--Character--inject-1" transform="translate(52.074 198.906)">
      <rect id="Rectangle_510" data-name="Rectangle 510" width="100.307" height="87.189" transform="translate(173.842 97.468) rotate(180)" fill="#407bff"/>
      <rect id="Rectangle_511" data-name="Rectangle 511" width="100.307" height="87.189" transform="translate(173.842 97.468) rotate(180)" fill="#fafafa" opacity="0.6"/>
      <rect id="Rectangle_512" data-name="Rectangle 512" width="57.528" height="87.189" transform="translate(131.057 97.468) rotate(180)" fill="#fff" opacity="0.3"/>
      <rect id="Rectangle_513" data-name="Rectangle 513" width="57.528" height="1.148" transform="translate(73.535 18.574)" opacity="0.2"/>
      <rect id="Rectangle_514" data-name="Rectangle 514" width="100.307" height="1.475" transform="translate(73.535 84.575)" opacity="0.2"/>
      <path id="Path_505" data-name="Path 505" d="M247.027,291.684a1.034,1.034,0,1,1-1.034-1.014A1.024,1.024,0,0,1,247.027,291.684Z" transform="translate(-130.461 -277.301)" opacity="0.2"/>
      <path id="Path_506" data-name="Path 506" d="M252.9,291.684a1.021,1.021,0,0,1-.639.949,1.055,1.055,0,0,1-1.137-.22,1.007,1.007,0,0,1-.224-1.116,1.041,1.041,0,0,1,.967-.627,1.024,1.024,0,0,1,1.034,1.014Z" transform="translate(-132.337 -277.301)" opacity="0.2"/>
      <ellipse id="Ellipse_21" data-name="Ellipse 21" cx="1.034" cy="1.014" rx="1.034" ry="1.014" transform="translate(82.77 13.369)" opacity="0.2"/>
      <path id="Path_507" data-name="Path 507" d="M206.227,291.684a1.034,1.034,0,1,1-1.034-1.014A1.024,1.024,0,0,1,206.227,291.684Z" transform="translate(-117.405 -277.301)" opacity="0.2"/>
      <rect id="Rectangle_515" data-name="Rectangle 515" width="18.448" height="4.925" rx="1.08" transform="translate(92.446 11.921)" opacity="0.2"/>
      <rect id="Rectangle_516" data-name="Rectangle 516" width="4.767" height="6.894" rx="1.26" transform="translate(76.126 22.018)" fill="#fff" opacity="0.3"/>
      <path id="Path_508" data-name="Path 508" d="M192.832,306.985c0,1.121-.68,2-1.51,2s-1.5-.908-1.5-2,.68-2.035,1.5-2.035S192.832,305.851,192.832,306.985Z" transform="translate(-112.817 -282.051)" opacity="0.1"/>
      <rect id="Rectangle_517" data-name="Rectangle 517" width="3.182" height="0.514" transform="translate(76.915 27.543)" opacity="0.1"/>
      <ellipse id="Ellipse_22" data-name="Ellipse 22" cx="18.795" cy="25.132" rx="18.795" ry="25.132" transform="translate(82.872 26.723)" fill="#263238"/>
      <path id="Path_509" data-name="Path 509" d="M244.735,335.816c0,13.881-8.412,25.132-18.8,25.132h-.32c10.241-.22,18.482-11.385,18.482-25.126S235.861,310.9,225.62,310.69h.32C236.323,310.683,244.735,321.935,244.735,335.816Z" transform="translate(-124.273 -283.961)" opacity="0.2"/>
      <ellipse id="Ellipse_23" data-name="Ellipse 23" cx="18.795" cy="25.132" rx="18.795" ry="25.132" transform="translate(82.872 26.723)" fill="#fff" opacity="0.3"/>
      <path id="Path_510" data-name="Path 510" d="M234.369,337.363c0,11.065-5.821,20.247-13.369,21.789a11.506,11.506,0,0,1-2.258.234,11.665,11.665,0,0,1-5.807-1.582,12.1,12.1,0,0,1-1.292-.834,19.206,19.206,0,0,1-5.957-7.541,25.608,25.608,0,0,1-1.435-3.864c-.163-.567-.313-1.141-.442-1.735a30.279,30.279,0,0,1-.68-6.467c0-12.139,7-22.023,15.64-22.023a11.508,11.508,0,0,1,2.258.227,12.125,12.125,0,0,1,3.291,1.208,9.847,9.847,0,0,1,1.081.667,15.224,15.224,0,0,1,2.366,1.942,21.3,21.3,0,0,1,4.76,7.561q.32.794.571,1.622A29.629,29.629,0,0,1,234.369,337.363Z" transform="translate(-117.076 -285.508)" fill="#fff" opacity="0.3"/>
      <path id="Path_511" data-name="Path 511" d="M236.491,337.479c0,11.065-5.821,20.247-13.369,21.789-7.541-1.548-13.362-10.731-13.362-21.789s5.821-20.241,13.362-21.789C230.67,317.232,236.491,326.421,236.491,337.479Z" transform="translate(-119.197 -285.624)" fill="#263238"/>
      <ellipse id="Ellipse_24" data-name="Ellipse 24" cx="19.999" cy="25.132" rx="19.999" ry="25.132" transform="translate(48.702 26.723)" fill="#407bff"/>
      <path id="Path_512" data-name="Path 512" d="M148.21,335.819c0,13.881,8.949,25.132,20,25.132h.333c-10.88-.22-19.659-11.385-19.659-25.126s8.765-24.9,19.659-25.126h-.333C157.159,310.687,148.21,321.938,148.21,335.819Z" transform="translate(-99.501 -283.964)" opacity="0.2"/>
      <ellipse id="Ellipse_25" data-name="Ellipse 25" cx="17.972" cy="23.264" rx="17.972" ry="23.264" transform="translate(52.081 28.591)" opacity="0.2"/>
      <ellipse id="Ellipse_26" data-name="Ellipse 26" cx="16.463" cy="21.889" rx="16.463" ry="21.889" transform="translate(56.134 29.966)" fill="#407bff"/>
      <path id="Path_513" data-name="Path 513" d="M191.27,338.979c0,10.177-6,18.773-13.1,18.773a9.64,9.64,0,0,1-5.5-1.8,11.873,11.873,0,0,1-1.278-1.008,19.1,19.1,0,0,1-5.338-9,24.986,24.986,0,0,1-.864-4.671q-.088-1.061-.1-2.142v-.153c0-10.177,5.991-18.773,13.083-18.773a8.781,8.781,0,0,1,2.468.347,9.186,9.186,0,0,1,1.3.481,11.387,11.387,0,0,1,2.72,1.735,18.127,18.127,0,0,1,5.1,7.641c.2.554.388,1.128.551,1.708h0A25.2,25.2,0,0,1,191.27,338.979Z" transform="translate(-104.903 -287.124)" fill="#fff" opacity="0.5"/>
      <path id="Path_514" data-name="Path 514" d="M197.777,338.966c0,10.177-5.991,18.773-13.1,18.773a9.071,9.071,0,0,1-1.36-.1c6.487-1.008,11.737-9.149,11.737-18.686s-5.25-17.665-11.737-18.686a8.267,8.267,0,0,1,1.36-.107C191.786,320.193,197.777,328.789,197.777,338.966Z" transform="translate(-110.737 -287.111)" opacity="0.2"/>
      <path id="Path_515" data-name="Path 515" d="M180.682,320.557a119.124,119.124,0,0,0-15.552,18.579v-.153c0-10.177,5.991-18.773,13.083-18.773A8.782,8.782,0,0,1,180.682,320.557Z" transform="translate(-104.916 -287.128)" fill="#fff" opacity="0.1"/>
      <path id="Path_516" data-name="Path 516" d="M184.722,323.182a119.279,119.279,0,0,0-18.618,23.17,24.986,24.986,0,0,1-.864-4.671,119.754,119.754,0,0,1,16.748-20.241,11.389,11.389,0,0,1,2.734,1.742Z" transform="translate(-104.951 -287.537)" fill="#fff" opacity="0.1"/>
      <path id="Path_517" data-name="Path 517" d="M193.278,337.205h0A118.242,118.242,0,0,0,175.6,361.03a11.872,11.872,0,0,1-1.278-1.008,118.269,118.269,0,0,1,18.36-24.532A9.525,9.525,0,0,1,193.278,337.205Z" transform="translate(-107.857 -292.21)" fill="#fff" opacity="0.1"/>
      <path id="Path_518" data-name="Path 518" d="M145.482,313.615c.646,1.041,1.36,2.176,2.04,3.237s1.435,2.136,2.176,3.15a35.277,35.277,0,0,0,2.319,2.863,15.991,15.991,0,0,0,1.176,1.161,6.249,6.249,0,0,0,.551.434l.17.12.163.08a6.467,6.467,0,0,0,2.836.18,25.055,25.055,0,0,0,3.652-.667,75,75,0,0,0,7.48-2.382h.054a1.5,1.5,0,0,1,1.918.848,1.466,1.466,0,0,1-.564,1.735,42.421,42.421,0,0,1-7.48,3.957,26.31,26.31,0,0,1-4.257,1.335,15.036,15.036,0,0,1-2.421.314,8.868,8.868,0,0,1-2.836-.3,5.609,5.609,0,0,1-.789-.28,6.746,6.746,0,0,1-.734-.36,11.459,11.459,0,0,1-1.122-.714,17.712,17.712,0,0,1-1.843-1.535,33.08,33.08,0,0,1-2.972-3.25,52.168,52.168,0,0,1-4.76-7,2.907,2.907,0,0,1,1.112-3.932,3.025,3.025,0,0,1,4.042.955Z" transform="translate(-96.835 -284.463)" fill="#eabdbd"/>
      <path id="Path_519" data-name="Path 519" d="M145.482,313.615c.646,1.041,1.36,2.176,2.04,3.237s1.435,2.136,2.176,3.15a35.277,35.277,0,0,0,2.319,2.863,15.991,15.991,0,0,0,1.176,1.161,6.249,6.249,0,0,0,.551.434l.17.12.163.08a6.467,6.467,0,0,0,2.836.18,25.055,25.055,0,0,0,3.652-.667,75,75,0,0,0,7.48-2.382h.054a1.5,1.5,0,0,1,1.918.848,1.466,1.466,0,0,1-.564,1.735,42.421,42.421,0,0,1-7.48,3.957,26.31,26.31,0,0,1-4.257,1.335,15.036,15.036,0,0,1-2.421.314,8.868,8.868,0,0,1-2.836-.3,5.609,5.609,0,0,1-.789-.28,6.746,6.746,0,0,1-.734-.36,11.459,11.459,0,0,1-1.122-.714,17.712,17.712,0,0,1-1.843-1.535,33.08,33.08,0,0,1-2.972-3.25,52.168,52.168,0,0,1-4.76-7,2.907,2.907,0,0,1,1.112-3.932,3.025,3.025,0,0,1,4.042.955Z" transform="translate(-96.835 -284.463)" opacity="0.2"/>
      <path id="Path_520" data-name="Path 520" d="M144.96,312.21c1.523,1.008,3.7,4.905,3.7,4.905l-5.44,4.311-2.19-1.6Z" transform="translate(-97.204 -284.466)" fill="#263238"/>
      <path id="Path_521" data-name="Path 521" d="M148.676,317.115l-3.488,2.776-1.924,1.535-.32-.234-1.863-1.368,2.312-4.531h0l1.578-3.083c1.21.794,2.829,3.41,3.441,4.465Z" transform="translate(-97.22 -284.466)" fill="#fff" opacity="0.3"/>
      <path id="Path_522" data-name="Path 522" d="M150.152,319.588l-4.032,2.97-2.013,1.482-.367-.681.054-.047,2.149-1.775,3.325-2.743.258-.214Z" transform="translate(-98.071 -286.585)" fill="#263238"/>
      <path id="Path_523" data-name="Path 523" d="M145.253,321.982l-2.04,1.482-.381-.667.061-.047-1.863-1.368,2.312-4.531h0a16.462,16.462,0,0,1,1.748,4.1c.041.16.068.32.1.474A5.314,5.314,0,0,1,145.253,321.982Z" transform="translate(-97.204 -286.01)" opacity="0.2"/>
      <path id="Path_524" data-name="Path 524" d="M179.259,326.376l3.461-2.436.843,4.818a5.8,5.8,0,0,1-4.923-.707Z" transform="translate(-109.239 -288.368)" fill="#ffc3bd"/>
      <path id="Path_525" data-name="Path 525" d="M188.829,324.147l-.054,3.7-3.291.914-.843-4.818Z" transform="translate(-111.159 -288.368)" fill="#ffc3bd"/>
      <path id="Path_526" data-name="Path 526" d="M105.675,402.4l-2.652,5.779-5.916-.834-4.488-.641-5.549-.787,2.863-2.382,4.447-.32,4.27-.307Z" transform="translate(-79.937 -314.468)" fill="#eec1bb"/>
      <path id="Path_527" data-name="Path 527" d="M101.262,403.16,99.718,407.6l-4.488-.641,1.761-3.49Z" transform="translate(-82.548 -314.721)" opacity="0.2"/>
      <path id="Path_528" data-name="Path 528" d="M89.106,402.178c.286.287-3.461,3.59-3.461,3.59s-4.413,0-7.018,1.622-2.72-.794-.367-3.15l5.814-5.813C85.706,396.753,86.114,399.2,89.106,402.178Z" transform="translate(-76.58 -312.965)" fill="#407bff"/>
      <path id="Path_529" data-name="Path 529" d="M88.436,409.55h.1v.04a2.79,2.79,0,0,1,.292,1.822.789.789,0,0,1-.469.447.476.476,0,0,1-.53-.06c-.177-.194-.116-.627,0-1.061a2.114,2.114,0,0,1-.877.7.546.546,0,0,1-.435-.047.46.46,0,0,1-.292-.454.717.717,0,0,1,.224-.394A6.493,6.493,0,0,1,88.436,409.55Zm-.258.38c-.748.307-1.591.761-1.612,1.061,0,0,0,.107.163.207a.319.319,0,0,0,.224,0,1.361,1.361,0,0,0,.5-.34A5.892,5.892,0,0,0,88.178,409.93Zm.469,1.415a2.132,2.132,0,0,0-.17-1.335c-.32.714-.544,1.488-.388,1.648.048.053.17,0,.245,0a.56.56,0,0,0,.313-.294Z" transform="translate(-79.664 -316.846)" fill="#407bff"/>
      <path id="Path_530" data-name="Path 530" d="M148.3,382.531c-1.238,4.671-4.76,6.14-8.344,6.306-4.318.214-42.323-2.116-42.323-2.116l2-5.733,33.47-1.295L114.63,369.651S97.2,367.182,98.609,354.963a48.246,48.246,0,0,1,3.828-13.487c.143-.34.3-.667.449-1l18-1.014.129.848,1.006,6.36,2.04,5.339S150.922,372.561,148.3,382.531Z" transform="translate(-83.316 -293.531)" fill="#263238"/>
      <path id="Path_531" data-name="Path 531" d="M124.878,359.26l-23.208,11.071c4.685,4.745,12.961,5.906,12.961,5.906L133.1,386.294l-33.47,1.295-2,5.733s38.005,2.329,42.323,2.116c3.55-.167,7.106-1.615,8.344-6.306C150.65,380.195,129.359,362.8,124.878,359.26Z" transform="translate(-83.316 -300.118)" opacity="0.2"/>
      <path id="Path_532" data-name="Path 532" d="M158.243,387.314l-.911,1.829-3.781,7.528-3.067,6.113-2.924-.14,1.666-6.694,1.9-7.648.422-1.7Z" transform="translate(-99.293 -309.212)" fill="#eec1bb"/>
      <path id="Path_533" data-name="Path 533" d="M158.116,389.991l-3.781,7.528-4.325-.721,1.9-7.648Z" transform="translate(-100.077 -310.06)" opacity="0.2"/>
      <path id="Path_534" data-name="Path 534" d="M133.178,309.15s-1.7,13.434-9.268,24.058c0,0-16.13-2-19.72-3.023,2.237-6.487,3.57-10.811,4.495-22.977.224-2.936,2.931-4.625,5.882-4.1a35.423,35.423,0,0,1,8.534,1.648A94.7,94.7,0,0,1,133.178,309.15Z" transform="translate(-85.415 -281.406)" fill="#263238"/>
      <path id="Path_535" data-name="Path 535" d="M99.5,355.314s-2.04,12.533,7.317,13.787c15.361,2.055,29.668-12.806,31.443-12.773s-5.107,24.145-5.107,24.145l6.875,1.008s12.417-29.7,9.4-36.1S110.381,355.547,99.5,355.314Z" transform="translate(-83.855 -295.01)" fill="#263238"/>
      <path id="Path_536" data-name="Path 536" d="M146.737,407.367c0-.4,5.039-.093,5.039-.093s3.094,3.083,6.12,3.777,1.36,2.463-2.04,2.463h-8.33C145.139,413.527,146.628,411.532,146.737,407.367Z" transform="translate(-98.851 -316.052)" fill="#407bff"/>
      <path id="Path_537" data-name="Path 537" d="M154.53,406.857h-.041v-.04h0a.092.092,0,0,1,0-.04h0a.144.144,0,0,1,0-.053,2.742,2.742,0,0,1,1.122-1.482.8.8,0,0,1,.68,0c.224.107.34.247.326.414s-.374.521-.782.734a2.138,2.138,0,0,1,1.129.12.55.55,0,0,1,.272.334.474.474,0,0,1-.122.527.69.69,0,0,1-.442.12A6.309,6.309,0,0,1,154.53,406.857Zm.462-.08c.741.307,1.659.581,1.9.387,0,0,.082-.067,0-.26a.275.275,0,0,0-.143-.174,1.264,1.264,0,0,0-.592-.107,5.75,5.75,0,0,0-1.163.154Zm.68-1.335a2.177,2.177,0,0,0-.864,1.061c.748-.274,1.462-.667,1.476-.881,0-.067-.109-.133-.177-.167a.608.608,0,0,0-.231-.053.551.551,0,0,0-.19.053Z" transform="translate(-101.51 -315.388)" fill="#407bff"/>
      <path id="Path_538" data-name="Path 538" d="M151.24,323.954c-.972-1.268,2.441-5.753,4.59-5.486s6.637,1.335,8.9-.133,6.65-.053,8.282.961,2.38-.961,4.406,2.569,3.25,2.609,3.89,9.223,7.67,17.084,13.063,17.945,7.14,4.925,9.969,3.45,9.336-.507,9.336-.507-3.5,7.047-10.975,7.3c0,0-4.3,11.619-13.478,10.3s-17.122-7.988-20.849-23.651A34.507,34.507,0,0,0,151.24,323.954Z" transform="translate(-100.416 -286.294)" fill="#407bff"/>
      <path id="Path_539" data-name="Path 539" d="M213.674,351.973s-3.5,7.041-10.975,7.3c0,0-4.3,11.625-13.478,10.3S172.1,361.6,168.373,345.927c-3.4-14.328-14.96-20.861-16.864-21.862l-.272-.133a1.162,1.162,0,0,1-.143-.894h0c.306-1.768,2.951-4.812,4.76-4.585a32.066,32.066,0,0,0,6.378.594,5.517,5.517,0,0,0,2.523-.727,3.754,3.754,0,0,1,1.36-.521c2.353-.454,5.556.667,6.9,1.482a2.065,2.065,0,0,0,.87.314c.87.107,1.544-.314,2.577.868a8.122,8.122,0,0,1,.952,1.381c2.04,3.524,3.25,2.616,3.9,9.229.326,3.337,2.244,7.594,4.76,11.151,2.176,3.076,4.76,5.606,7.208,6.5a6.3,6.3,0,0,0,1.088.294c4.379.7,6.351,3.5,8.452,3.744h0a2.452,2.452,0,0,0,1.516-.294,5.9,5.9,0,0,1,1.163-.434h0C208.663,351.225,213.674,351.973,213.674,351.973Z" transform="translate(-100.414 -286.29)" fill="#fff" opacity="0.9"/>
      <path id="Path_540" data-name="Path 540" d="M151.07,325.63v.06Z" transform="translate(-100.417 -288.931)" opacity="0.2"/>
      <path id="Path_541" data-name="Path 541" d="M151.11,325.72Z" transform="translate(-100.429 -288.96)" opacity="0.2"/>
      <path id="Path_542" data-name="Path 542" d="M213.69,353.742s-3.5,7.041-10.975,7.3c0,0-4.3,11.625-13.478,10.3s-17.122-7.982-20.849-23.651c-3.4-14.328-14.96-20.861-16.864-21.862-.218-.527-.354-.881-.415-1.028h0c.258.147,2.2-2.309,5.44-1.7,3.482.667,8.663,5.252,10.758,14.288s6.038,27.248,15.069,31.519,16.891-1.061,18.142-4.465S207.108,353.155,213.69,353.742Z" transform="translate(-100.429 -288.06)" opacity="0.1"/>
      <path id="Path_543" data-name="Path 543" d="M222.1,369.16c-2.917,1.261-6.6,7.267-11.118,7.221s-9.126-5.619-7.949-5.052,5.44,3.791,9.438,1.441A39.565,39.565,0,0,1,222.1,369.16Z" transform="translate(-116.985 -303.411)" opacity="0.1"/>
      <path id="Path_544" data-name="Path 544" d="M174.359,327.006c-2.094-4.885-4.522-6.967-6.909-7.888a5.515,5.515,0,0,0,2.523-.727,3.754,3.754,0,0,1,1.36-.521C175.732,320.98,176.868,332.825,174.359,327.006Z" transform="translate(-105.658 -286.349)" opacity="0.1"/>
      <path id="Path_545" data-name="Path 545" d="M187.2,321.428c-.245,3-1.707,6.72-1.72,3.27a9.083,9.083,0,0,0-.857-4.138C185.49,320.667,186.164,320.246,187.2,321.428Z" transform="translate(-111.153 -287.244)" opacity="0.1"/>
      <path id="Path_546" data-name="Path 546" d="M203.275,357.282c-9.663,1.261-18.564-7.828-20.917-13.521-.864-2.1,6.8,5.112,10.921,6.794a3.464,3.464,0,0,0,2.788.227C198.243,353.858,200.854,356.388,203.275,357.282Z" transform="translate(-110.407 -294.836)" opacity="0.1"/>
      <path id="Path_547" data-name="Path 547" d="M148.416,326.9l3.55-2.316.68,4.852a5.787,5.787,0,0,1-4.9-.894Z" transform="translate(-99.354 -288.581)" fill="#ffc3bd"/>
      <path id="Path_548" data-name="Path 548" d="M158.125,324.94l-.19,3.69-3.325.8-.66-4.852Z" transform="translate(-101.338 -288.581)" fill="#ffc3bd"/>
      <path id="Path_549" data-name="Path 549" d="M133.172,309.152a59.783,59.783,0,0,1-2.366,9.9,52.572,52.572,0,0,1-6.9,14.155s-16.13-2-19.72-3.023c.422-1.221.809-2.362,1.17-3.5a62.51,62.51,0,0,0,2.564-11.819c.252-1.9.462-4,.68-6.513,0-.374.054-.754.088-1.148.224-2.936,2.931-4.625,5.889-4.1.415.073,1.306.093,2.72.287a3.469,3.469,0,0,1,.381.047,36.243,36.243,0,0,1,5.44,1.335,29.122,29.122,0,0,1,3.046,1.155h0C129.52,307.3,133.172,309.152,133.172,309.152Z" transform="translate(-85.415 -281.408)" fill="#fff" opacity="0.3"/>
      <path id="Path_550" data-name="Path 550" d="M133.069,301.689a4.929,4.929,0,0,0-1.19,2.376,1.226,1.226,0,0,0,.333,1.128c-.32,2-3.026,1.815-3.026,1.815-3.3-3.157-3.216-5.5-3.216-5.5a5.092,5.092,0,0,0,3.856-2.8,9.893,9.893,0,0,0,1.04-2.763L134.633,300A15.539,15.539,0,0,0,133.069,301.689Z" transform="translate(-92.385 -279.058)" fill="#eec1bb"/>
      <path id="Path_551" data-name="Path 551" d="M136.452,299.987a15.542,15.542,0,0,0-1.564,1.688,4.929,4.929,0,0,0-1.19,2.376,7.349,7.349,0,0,1-2.04-5.339,9.894,9.894,0,0,0,1.04-2.763Z" transform="translate(-94.203 -279.058)" opacity="0.2"/>
      <path id="Path_552" data-name="Path 552" d="M134.577,274.67a3.672,3.672,0,0,0-3.23-4c-3.543-.487-6.963,5.419-1.238,6.34S134.577,274.67,134.577,274.67Z" transform="translate(-92.73 -270.637)" fill="#263238"/>
      <path id="Path_553" data-name="Path 553" d="M137.535,277.316s-1.2-1.628-4.114-.667-3.108,3.884-2.509,3.9S137,278.657,137.535,277.316Z" transform="translate(-93.878 -272.536)" fill="#407bff"/>
      <path id="Path_554" data-name="Path 554" d="M133.066,291.294s-6.365-.1-4.944-8.362,14.654-8.188,14.28-.667S133.066,291.294,133.066,291.294Z" transform="translate(-93.007 -272.647)" fill="#263238"/>
      <path id="Path_555" data-name="Path 555" d="M131.97,282.934c-.993,4.611-1.516,6.54.1,9.61,2.441,4.611,8.276,5.079,10.615.914,2.1-3.744,3.4-10.678-.524-13.908a6.206,6.206,0,0,0-6.123-1.286A6.04,6.04,0,0,0,131.97,282.934Z" transform="translate(-94.006 -273.069)" fill="#eec1bb"/>
      <path id="Path_556" data-name="Path 556" d="M136.494,281.437c-3.7,2.062-.245,7.588-5.1,5.339s.054-8.248,3.645-8.609S136.494,281.437,136.494,281.437Z" transform="translate(-93.47 -273.134)" fill="#263238"/>
      <path id="Path_557" data-name="Path 557" d="M137.564,278.055c-.612,3.17-.456,4.124,2.523,4.411a3.21,3.21,0,0,1,.347-2.189,3.121,3.121,0,0,0,.8,2.242,11.982,11.982,0,0,1,2.489.234,2.988,2.988,0,0,1,.4-1.335,2.917,2.917,0,0,0,.5,1.6,8.126,8.126,0,0,1,2.21,1.388C148.125,281.311,144.215,275.846,137.564,278.055Z" transform="translate(-96.002 -272.934)" fill="#263238"/>
      <path id="Path_558" data-name="Path 558" d="M142.1,290.427c-.1.387,0,.761.258.841s.524-.167.626-.554,0-.761-.258-.841S142.2,290.046,142.1,290.427Z" transform="translate(-97.534 -277.031)" fill="#263238"/>
      <path id="Path_559" data-name="Path 559" d="M148.812,292.766c-.1.38,0,.754.258.834s.524-.167.626-.547,0-.761-.258-.841S148.927,292.379,148.812,292.766Z" transform="translate(-99.681 -277.809)" fill="#263238"/>
      <path id="Path_560" data-name="Path 560" d="M149.58,292.2h.966S149.9,292.794,149.58,292.2Z" transform="translate(-99.94 -277.81)" fill="#263238"/>
      <path id="Path_561" data-name="Path 561" d="M146.374,293.37a11.288,11.288,0,0,0,.68,2.876,1.631,1.631,0,0,1-1.394-.173Z" transform="translate(-98.685 -278.199)" fill="#d4827d"/>
      <path id="Path_562" data-name="Path 562" d="M141.226,297.491a3.64,3.64,0,0,0,.612.26.1.1,0,0,0,.087-.008.1.1,0,0,0,.049-.072.12.12,0,0,0-.075-.147,3.285,3.285,0,0,1-2.094-1.969.123.123,0,0,0-.143-.087.12.12,0,0,0-.075.147A3.443,3.443,0,0,0,141.226,297.491Z" transform="translate(-96.741 -278.897)" fill="#263238"/>
      <path id="Path_563" data-name="Path 563" d="M129.207,290.208a3.222,3.222,0,0,0,1.183,2.356c.9.667,1.822-.287,1.972-1.562.129-1.155-.184-2.89-1.278-3.05S129.126,289,129.207,290.208Z" transform="translate(-93.419 -276.392)" fill="#eec1bb"/>
      <path id="Path_564" data-name="Path 564" d="M141.444,286.678a.222.222,0,0,0,.184,0,1.735,1.735,0,0,1,1.632.047.221.221,0,0,0,.173.031.217.217,0,0,0,.14-.1.251.251,0,0,0-.082-.327,2.205,2.205,0,0,0-2.04-.08.238.238,0,0,0-.1.314A.234.234,0,0,0,141.444,286.678Z" transform="translate(-97.298 -275.758)" fill="#263238"/>
      <path id="Path_565" data-name="Path 565" d="M150.9,289.611a.214.214,0,0,0,.17,0,.223.223,0,0,0,.129-.12.216.216,0,0,0,0-.174,2.436,2.436,0,0,0-1.5-1.562.221.221,0,0,0-.173.025.213.213,0,0,0-.1.142.246.246,0,0,0,.17.287,1.97,1.97,0,0,1,1.183,1.248.234.234,0,0,0,.122.154Z" transform="translate(-99.889 -276.329)" fill="#263238"/>
      <path id="Path_566" data-name="Path 566" d="M142.87,289.86h.966S143.19,290.461,142.87,289.86Z" transform="translate(-97.793 -277.032)" fill="#263238"/>
      <path id="Path_567" data-name="Path 567" d="M134.233,332.913c-.585.32-20.543,11.238-26.058,10.01s-5.705-9.543-5.705-9.543l1.768-6.346a2.125,2.125,0,0,0,.571-.174c3.2-1.475,9.051-11.278,9.051-11.278s1.163-9.1,2.863-12.012a3.469,3.469,0,0,1,.381.047,13.892,13.892,0,0,0-.68,2.523c-.272,1.535-.836,7.227-.836,7.227l12.546,2.3c-1.034-7.341-2.455-9.456-2.536-9.583,2.89,2.136,4.631,13.147,4.631,13.147-.755,4.625-4.012,11.872-5.018,13.454s-.524,2.282-.524,2.282Z" transform="translate(-84.865 -281.592)" fill="#407bff"/>
      <path id="Path_568" data-name="Path 568" d="M117.738,311.737s-5.535,4.238-8.058,4.838c.252-1.9.462-4,.68-6.513a6.473,6.473,0,0,1,6.725-1.622,13.127,13.127,0,0,1,.653,3.3Z" transform="translate(-87.172 -283.112)" opacity="0.2"/>
      <path id="Path_569" data-name="Path 569" d="M116.094,307.959c.415,1.542.816,3.143,1.258,4.671s.85,3.15,1.312,4.671.938,3.083,1.482,4.518c.272.714.544,1.421.836,2,.068.147.143.28.211.407l.1.16v.04h0v-.04c-.109-.1-.184-.093-.1-.047a3.807,3.807,0,0,0,1.442.154,15.076,15.076,0,0,0,2.135-.267,41.5,41.5,0,0,0,4.6-1.195c1.557-.474,3.108-1.021,4.651-1.615s3.108-1.188,4.624-1.8h.034a1.5,1.5,0,0,1,1.82.7,1.445,1.445,0,0,1-.46,1.866c-1.462.948-2.938,1.775-4.447,2.616s-3.067,1.568-4.658,2.276a37.589,37.589,0,0,1-5.032,1.849,18.974,18.974,0,0,1-2.849.581,8.676,8.676,0,0,1-3.577-.22,5.138,5.138,0,0,1-2.217-1.335l-.238-.28-.109-.133-.061-.087-.258-.36c-.15-.227-.292-.454-.422-.667a24.639,24.639,0,0,1-1.265-2.5c-.714-1.635-1.319-3.243-1.856-4.865s-1.047-3.23-1.516-4.852-.891-3.237-1.258-4.918a2.93,2.93,0,0,1,2.2-3.54,2.991,2.991,0,0,1,3.607,2.159Z" transform="translate(-87.337 -282.291)" fill="#eabdbd"/>
      <path id="Path_570" data-name="Path 570" d="M115.361,303.568c-2.686-1.054-7.154.948-5.9,7.554l7.48-1.148S117.55,304.435,115.361,303.568Z" transform="translate(-87.032 -281.503)" fill="#263238"/>
      <path id="Path_571" data-name="Path 571" d="M115.361,303.568c-2.686-1.054-7.154.948-5.9,7.554l7.48-1.148S117.55,304.435,115.361,303.568Z" transform="translate(-87.032 -281.503)" fill="#fff" opacity="0.3"/>
      <path id="Path_572" data-name="Path 572" d="M109.07,313.425l7.99-1.275.041.848-7.915,1.635Z" transform="translate(-86.977 -284.446)" fill="#263238"/>
    </g>
    <g id="freepik--washing-machine--inject-1" transform="translate(188.448 209.185)">
      <rect id="Rectangle_518" data-name="Rectangle 518" width="100.307" height="87.189" transform="translate(100.314 87.189) rotate(180)" fill="#407bff"/>
      <rect id="Rectangle_519" data-name="Rectangle 519" width="100.307" height="87.189" transform="translate(100.314 87.189) rotate(180)" fill="#fafafa" opacity="0.6"/>
      <rect id="Rectangle_520" data-name="Rectangle 520" width="57.528" height="87.189" transform="translate(57.528 87.189) rotate(180)" fill="#fff" opacity="0.3"/>
      <rect id="Rectangle_521" data-name="Rectangle 521" width="57.528" height="1.148" transform="translate(0.007 8.295)" opacity="0.2"/>
      <rect id="Rectangle_522" data-name="Rectangle 522" width="100.307" height="1.475" transform="translate(0.007 74.296)" opacity="0.2"/>
      <path id="Path_573" data-name="Path 573" d="M339.467,291.684a1.034,1.034,0,1,1-1.034-1.014A1.024,1.024,0,0,1,339.467,291.684Z" transform="translate(-296.416 -287.58)" opacity="0.2"/>
      <path id="Path_574" data-name="Path 574" d="M345.321,291.684a1.021,1.021,0,0,1-.639.949,1.055,1.055,0,0,1-1.137-.22,1.007,1.007,0,0,1-.224-1.116,1.041,1.041,0,0,1,.967-.627A1.024,1.024,0,0,1,345.321,291.684Z" transform="translate(-298.285 -287.58)" opacity="0.2"/>
      <ellipse id="Ellipse_27" data-name="Ellipse 27" cx="1.034" cy="1.014" rx="1.034" ry="1.014" transform="translate(9.241 3.09)" opacity="0.2"/>
      <path id="Path_575" data-name="Path 575" d="M298.647,291.684a1.034,1.034,0,1,1-1.034-1.014A1.024,1.024,0,0,1,298.647,291.684Z" transform="translate(-283.354 -287.58)" opacity="0.2"/>
      <rect id="Rectangle_523" data-name="Rectangle 523" width="18.448" height="4.925" rx="1.08" transform="translate(18.918 1.642)" opacity="0.2"/>
      <rect id="Rectangle_524" data-name="Rectangle 524" width="4.767" height="6.894" rx="1.26" transform="translate(2.591 11.739)" fill="#fff" opacity="0.3"/>
      <path id="Path_576" data-name="Path 576" d="M285.252,306.985c0,1.121-.68,2-1.51,2s-1.5-.908-1.5-2,.68-2.035,1.5-2.035S285.252,305.851,285.252,306.985Z" transform="translate(-278.765 -292.33)" opacity="0.1"/>
      <rect id="Rectangle_525" data-name="Rectangle 525" width="3.182" height="0.514" transform="translate(3.386 17.264)" opacity="0.1"/>
      <ellipse id="Ellipse_28" data-name="Ellipse 28" cx="18.795" cy="25.132" rx="18.795" ry="25.132" transform="translate(9.343 16.444)" fill="#407bff"/>
      <path id="Path_577" data-name="Path 577" d="M326.8,337.373c0,11.065-5.821,20.247-13.369,21.789a11.506,11.506,0,0,1-2.258.234,11.664,11.664,0,0,1-5.787-1.562,12.092,12.092,0,0,1-1.292-.834,19.2,19.2,0,0,1-5.957-7.541,25.6,25.6,0,0,1-1.435-3.864c-.17-.567-.313-1.141-.442-1.735a30.28,30.28,0,0,1-.68-6.467c0-12.139,7-22.023,15.64-22.023a11.508,11.508,0,0,1,2.258.227,12.122,12.122,0,0,1,3.291,1.208,9.849,9.849,0,0,1,1.081.667,15.577,15.577,0,0,1,2.366,1.942,21.4,21.4,0,0,1,4.76,7.561q.32.794.571,1.622A29.844,29.844,0,0,1,326.8,337.373Z" transform="translate(-283.034 -295.797)" fill="#fff" opacity="0.3"/>
      <path id="Path_578" data-name="Path 578" d="M328.911,337.479c0,11.065-5.821,20.247-13.369,21.789-7.548-1.548-13.362-10.731-13.362-21.789s5.814-20.241,13.362-21.789C323.09,317.232,328.911,326.421,328.911,337.479Z" transform="translate(-285.146 -295.903)" opacity="0.2"/>
      <path id="Path_579" data-name="Path 579" d="M316.712,316.771A118.864,118.864,0,0,0,296.23,343.8a30.28,30.28,0,0,1-.68-6.467c0-12.139,7-22.023,15.64-22.023a11.51,11.51,0,0,1,2.258.227,12.121,12.121,0,0,1,3.264,1.235Z" transform="translate(-283.024 -295.777)" fill="#fff" opacity="0.1"/>
      <path id="Path_580" data-name="Path 580" d="M320.687,320.4a118.173,118.173,0,0,0-22.052,30.031,25.6,25.6,0,0,1-1.435-3.864,118.694,118.694,0,0,1,21.121-28.136A15.573,15.573,0,0,1,320.687,320.4Z" transform="translate(-283.552 -296.814)" fill="#fff" opacity="0.1"/>
      <path id="Path_581" data-name="Path 581" d="M329.5,334.345a118.513,118.513,0,0,0-20.108,29.27,12.1,12.1,0,0,1-1.292-.834,118.5,118.5,0,0,1,20.849-30.031Q329.248,333.517,329.5,334.345Z" transform="translate(-287.04 -301.578)" fill="#fff" opacity="0.1"/>
      <path id="Path_582" data-name="Path 582" d="M337.142,335.816c0,13.881-8.412,25.132-18.8,25.132H318c10.241-.22,18.482-11.385,18.482-25.126S328.268,310.9,318,310.69h.32C328.73,310.683,337.142,321.935,337.142,335.816Z" transform="translate(-290.208 -294.24)" opacity="0.2"/>
    </g>
    <g id="freepik--Basket--inject-1" transform="translate(150.389 268.688)">
      <path id="Path_583" data-name="Path 583" d="M297.9,392.1c4.121-3.337,3.6-7.261-1.5-10.064s-5.726-2.856-9.758-2-2.944-1.081-8.663-.18-9.846,2.7-8.874,5.252S291.431,397.3,297.9,392.1Z" transform="translate(-236.459 -376.651)" fill="#263238"/>
      <path id="Path_584" data-name="Path 584" d="M297.9,392.1c4.121-3.337,3.6-7.261-1.5-10.064s-5.726-2.856-9.758-2-2.944-1.081-8.663-.18-9.846,2.7-8.874,5.252S291.431,397.3,297.9,392.1Z" transform="translate(-236.459 -376.651)" fill="#fff" opacity="0.3"/>
      <path id="Path_585" data-name="Path 585" d="M276.46,387.254c1.863-3.55-2.659-3.737-6.426-6.633s-6.392-7.081-10.023-4.725-3.264,3.864-9.126,4.725-7.283,1.061-9.9,2.256-4.175.667-4.209,3.2-3.706,4.558,6.8,4.8S274.753,390.51,276.46,387.254Z" transform="translate(-225.949 -375.204)" fill="#407bff"/>
      <path id="Path_586" data-name="Path 586" d="M276.46,387.254c1.863-3.55-2.659-3.737-6.426-6.633s-6.392-7.081-10.023-4.725-3.264,3.864-9.126,4.725-7.283,1.061-9.9,2.256-4.175.667-4.209,3.2-3.706,4.558,6.8,4.8S274.753,390.51,276.46,387.254Z" transform="translate(-225.949 -375.204)" fill="#fff" opacity="0.5"/>
      <path id="Path_587" data-name="Path 587" d="M267.643,402.6c.34-2.136-4.08-4.865-7.8-7.768s-3.55-2.91-9.275-2.576-6.208.394-9.765-.3-4.3-.6-7.269.3-4.76.848-5.093,3.03S225.408,406.42,232,406.994,267.241,405.179,267.643,402.6Z" transform="translate(-223.225 -380.623)" fill="#407bff"/>
      <path id="Path_588" data-name="Path 588" d="M267.643,402.6c.34-2.136-4.08-4.865-7.8-7.768s-3.55-2.91-9.275-2.576-6.208.394-9.765-.3-4.3-.6-7.269.3-4.76.848-5.093,3.03S225.408,406.42,232,406.994,267.241,405.179,267.643,402.6Z" transform="translate(-223.225 -380.623)" fill="#fff" opacity="0.3"/>
      <path id="Path_589" data-name="Path 589" d="M287.88,407.507c-.279-1.568-3.869-2.97-7.562-3.3a19.221,19.221,0,0,1-8.84-2.816c-3.1-1.742-4.549-1.822-7.024,0s-3.543,2.289-7.174,2a33.951,33.951,0,0,0-5.964-.167c-3.25.1-3.563-.3-5.807.894s-3.182-.367-5.086,1.3-3.25,1.688-3.624,2.5-1.5,1.388.449,1.9,48.885.881,49.558,0A3.948,3.948,0,0,0,287.88,407.507Z" transform="translate(-225.952 -383.471)" fill="#263238"/>
      <path id="Path_590" data-name="Path 590" d="M291.85,403.761c3.679-1.041,3.6-1.175,4.474-5.179s3.638-3.844-.551-5.239-6.188-1.929-9.52-2.1-5.93.894-8.84.367-1.822-.267-6.12-1.188-5.528-1.682-8.677-.267-6.657-.34-5.114,3.2S283.058,406.243,291.85,403.761Z" transform="translate(-232.669 -379.918)" fill="#407bff"/>
      <path id="Path_591" data-name="Path 591" d="M257.532,393.364c.768,1.755,7.052,4.938,14.28,7.4a70.717,70.717,0,0,0,11.961,3.05,20.52,20.52,0,0,0,8.085-.04l.9-.26c2.768-.834,2.781-1.275,3.57-4.912a8.511,8.511,0,0,1,.945-2.436c.911-1.588,1.564-1.782-1.5-2.8-4.189-1.395-6.188-1.929-9.52-2.1a31.91,31.91,0,0,0-5.3.4,12.086,12.086,0,0,1-3.536-.04c-2.9-.527-1.822-.26-6.12-1.188-3.257-.667-4.76-1.3-6.65-.934a8.7,8.7,0,0,0-2.04.667C259.5,391.582,255.982,389.8,257.532,393.364Z" transform="translate(-232.678 -379.925)" opacity="0.4"/>
      <path id="Path_592" data-name="Path 592" d="M272.906,391.8c2.557,1.161,2.489,1.542,4.638,1.568s3.033-.227,4.91,1.221,3.57,1.522,3.033-.921a3.947,3.947,0,0,0-1.17-2,12.089,12.089,0,0,1-3.536-.04c-2.9-.527-1.822-.26-6.12-1.188-3.257-.667-4.76-1.3-6.65-.934C266.194,390.9,270.634,390.761,272.906,391.8Z" transform="translate(-236.016 -379.925)" fill="#fff" opacity="0.3"/>
      <path id="Path_593" data-name="Path 593" d="M299.788,393.958c.231,1.915,2.972,2.77,3.686,4.752s-1.816,1.722.782,3.824a14.972,14.972,0,0,1,2.142,2.249c2.768-.834,2.781-1.275,3.57-4.912a8.512,8.512,0,0,1,.945-2.436c-1.884-1.395-3.788-.574-6.426-1.568C300.821,394.486,299.556,392.043,299.788,393.958Z" transform="translate(-246.312 -381.208)" fill="#fff" opacity="0.3"/>
      <path id="Path_594" data-name="Path 594" d="M273.611,399.936a10.976,10.976,0,0,1,1.448,2.336,70.713,70.713,0,0,0,11.968,3.05c.483-2.216-.938-2.669-3.5-4.364-3.108-2.075-4.284-3-6.521-2.863s-2.169.667-4.461-1.128-3.924-3.036-5.052-3.036S270.966,396.713,273.611,399.936Z" transform="translate(-235.932 -381.433)" fill="#fff" opacity="0.3"/>
      <path id="Path_595" data-name="Path 595" d="M235.137,381.318a.657.657,0,0,1,0-.667l1.754-3.036a2.73,2.73,0,0,1,2.387-1.335h6.8a2.74,2.74,0,0,1,2.135,1l2.611,3.177a.658.658,0,0,1,.088.7.681.681,0,0,1-.612.387l-14.579.127h0A.682.682,0,0,1,235.137,381.318ZM247.16,378.1a1.37,1.37,0,0,0-1.074-.507h-6.8a1.4,1.4,0,0,0-1.2.667l-1.176,2,12-.107Z" transform="translate(-225.603 -375.562)" fill="#407bff"/>
      <path id="Path_596" data-name="Path 596" d="M303.332,381.632l-14.579-.127a.681.681,0,0,1-.612-.387.657.657,0,0,1,.088-.7l2.618-3.177a2.74,2.74,0,0,1,2.128-1h6.8a2.73,2.73,0,0,1,2.387,1.335l1.761,3.036a.657.657,0,0,1,0,.667.683.683,0,0,1-.585.327Zm-10.356-4.057a1.37,1.37,0,0,0-1.074.507l-1.727,2.1,11.988.107-1.176-2a1.4,1.4,0,0,0-1.2-.667Z" transform="translate(-242.573 -375.548)" fill="#407bff"/>
      <g id="Group_36" data-name="Group 36" transform="translate(9.443 0.718)" opacity="0.2">
        <path id="Path_597" data-name="Path 597" d="M235.137,381.318a.657.657,0,0,1,0-.667l1.754-3.036a2.73,2.73,0,0,1,2.387-1.335h6.8a2.74,2.74,0,0,1,2.135,1l2.611,3.177a.658.658,0,0,1,.088.7.681.681,0,0,1-.612.387l-14.579.127h0A.682.682,0,0,1,235.137,381.318ZM247.16,378.1a1.37,1.37,0,0,0-1.074-.507h-6.8a1.4,1.4,0,0,0-1.2.667l-1.176,2,12-.107Z" transform="translate(-235.046 -376.28)"/>
      </g>
      <g id="Group_37" data-name="Group 37" transform="translate(45.504 0.692)" opacity="0.2">
        <path id="Path_598" data-name="Path 598" d="M303.332,381.632l-14.579-.127a.681.681,0,0,1-.612-.387.657.657,0,0,1,.088-.7l2.618-3.177a2.74,2.74,0,0,1,2.128-1h6.8a2.73,2.73,0,0,1,2.387,1.335l1.761,3.036a.657.657,0,0,1,0,.667.683.683,0,0,1-.585.327Zm-10.356-4.057a1.37,1.37,0,0,0-1.074.507l-1.727,2.1,11.988.107-1.176-2a1.4,1.4,0,0,0-1.2-.667Z" transform="translate(-288.077 -376.24)"/>
      </g>
      <path id="Path_599" data-name="Path 599" d="M221.2,383.395l5.44,20.795a1.356,1.356,0,0,0,1.292.981h55.536a1.356,1.356,0,0,0,1.292-.981l5.44-20.795a1.026,1.026,0,0,0-.171-.921,1.068,1.068,0,0,0-.856-.414H222.234a1.075,1.075,0,0,0-.857.414,1.032,1.032,0,0,0-.177.921Zm58.521,18.519,4.76-16.764a.67.67,0,0,1,.32-.4.691.691,0,0,1,.517-.063.678.678,0,0,1,.411.314.656.656,0,0,1,.065.507l-4.76,16.764a.679.679,0,0,1-.68.487h-.184a.677.677,0,0,1-.4-.328A.656.656,0,0,1,279.722,401.914Zm-4.175,0,4.223-16.764a.672.672,0,0,1,.469-.5.689.689,0,0,1,.675.164.659.659,0,0,1,.176.66l-4.223,16.764a.678.678,0,0,1-.68.507h-.163a.666.666,0,0,1-.476-.814Zm-4.175,0,3.672-16.764a.7.7,0,0,1,.823-.527.682.682,0,0,1,.537.807l-3.672,16.8a.677.677,0,0,1-.68.527.6.6,0,0,1-.15,0,.68.68,0,0,1-.44-.293.657.657,0,0,1-.09-.514Zm-4.175,0,3.128-16.764a.687.687,0,0,1,1.23-.256.657.657,0,0,1,.109.5l-3.135,16.764a.677.677,0,0,1-.68.541h-.122a.669.669,0,0,1-.53-.734Zm-4.182,0L265.6,385.15a.685.685,0,0,1,.779-.571.676.676,0,0,1,.581.764l-2.584,16.764a.676.676,0,0,1-.68.567h-.1a.671.671,0,0,1-.585-.681Zm-4.175,0,2.04-16.764a.682.682,0,0,1,.758-.591.675.675,0,0,1,.6.744l-2.04,16.764a.676.676,0,0,1-.68.587h-.082a.673.673,0,0,1-.6-.614Zm-9.758.047.68-16.764a.681.681,0,0,1,1.36.053l-.68,16.764a.674.674,0,0,1-.68.667h0a.674.674,0,0,1-.68-.641Zm-4.039-16.6a.674.674,0,0,1,.68-.667h0a.674.674,0,0,1,.68.667l.136,16.764a.674.674,0,0,1-.68.667h0a.674.674,0,0,1-.68-.667Zm-4.712.033a.681.681,0,0,1,1.36-.073l.952,16.764a.66.66,0,0,1-.175.482.685.685,0,0,1-.471.219h-.034a.675.675,0,0,1-.68-.627Zm-4.719.033a.659.659,0,0,1,.15-.492.684.684,0,0,1,.462-.242.677.677,0,0,1,.741.594l1.768,16.757a.659.659,0,0,1-.15.492.684.684,0,0,1-.462.242h-.068a.676.676,0,0,1-.68-.594Zm-2.122,16.791L230.9,385.45a.669.669,0,0,1,.571-.754.69.69,0,0,1,.506.122.665.665,0,0,1,.269.438l2.584,16.764a.669.669,0,0,1-.571.754h-.1a.675.675,0,0,1-.666-.587Zm-7.3-16.731a.681.681,0,0,1,.547-.8.692.692,0,0,1,.813.537l3.4,16.764a.657.657,0,0,1-.1.5.681.681,0,0,1-.436.284h-.129a.677.677,0,0,1-.68-.534Z" transform="translate(-221.16 -377.484)" fill="#407bff"/>
      <path id="Path_600" data-name="Path 600" d="M221.2,383.408l5.44,20.795a1.356,1.356,0,0,0,1.292.981h24.752a1.351,1.351,0,0,0,1.326-1.161l2.4-20.761a1.035,1.035,0,0,0-.266-.813,1.077,1.077,0,0,0-.794-.348H222.238a1.075,1.075,0,0,0-.843.406A1.033,1.033,0,0,0,221.2,383.408Zm27.88,18.686.68-16.764a.681.681,0,0,1,1.36.053l-.68,16.764a.674.674,0,0,1-.68.667h0a.686.686,0,0,1-.518-.227.659.659,0,0,1-.162-.534Zm-4.039-16.724a.674.674,0,0,1,.68-.667h0a.674.674,0,0,1,.68.667l.136,16.764a.674.674,0,0,1-.68.667h0a.674.674,0,0,1-.68-.667Zm-4.712.033a.681.681,0,0,1,1.36-.073l.952,16.764a.66.66,0,0,1-.175.482.685.685,0,0,1-.471.219h-.034a.675.675,0,0,1-.68-.627Zm-4.719.033a.659.659,0,0,1,.15-.492.684.684,0,0,1,.462-.242.677.677,0,0,1,.741.594l1.768,16.757a.659.659,0,0,1-.15.492.684.684,0,0,1-.462.242h-.068a.676.676,0,0,1-.68-.594Zm-2.122,16.791L230.9,385.463a.669.669,0,0,1,.571-.754.69.69,0,0,1,.506.122.665.665,0,0,1,.269.438l2.584,16.764a.669.669,0,0,1-.571.754h-.1a.676.676,0,0,1-.666-.587Zm-7.3-16.73a.681.681,0,0,1,.547-.8.692.692,0,0,1,.813.537l3.4,16.764a.657.657,0,0,1-.1.5.681.681,0,0,1-.436.284h-.129a.677.677,0,0,1-.68-.534Z" transform="translate(-221.163 -377.498)" opacity="0.2"/>
    </g>
  </g>
</svg>
